<svg xmlns="http://www.w3.org/2000/svg" width="450" viewBox="0 0 408.65 70.89"><title>sw-logo</title><path d="M373.05,385.28v.63h-.88v2.31h-.77v-2.31h-.87v-.63Z" transform="translate(-101.99 -360.37)" fill="#2b3943"/><path d="M374.12,385.28l.78,1.72.77-1.72h.84v2.94h-.68v-1.86l-.68,1.57h-.51l-.68-1.57v1.86h-.68v-2.94Z" transform="translate(-101.99 -360.37)" fill="#2b3943"/><path d="M189.27,395.53v10.23h-5.09V404a5.68,5.68,0,0,1-4.74,2c-3.37,0-5.38-2-5.38-4.91s2.12-4.71,6-4.77h4.1v-.17c0-1.49-1-2.36-3-2.36a11.55,11.55,0,0,0-4.71,1.25l-1.43-3.49a17.39,17.39,0,0,1,7.33-1.71C186.71,389.83,189.24,391.92,189.27,395.53Zm-5.09,4.91v-1.37H181.1c-1.46,0-2.18.53-2.18,1.63s.78,1.78,2.12,1.78A3.11,3.11,0,0,0,184.18,400.44Z" transform="translate(-101.99 -360.37)" fill="#2b3943"/><path d="M211.62,405.11a8.72,8.72,0,0,1-4.24,1c-3.06,0-5.27-1.77-5.27-5v-14.5h5.15V391h4.07v3.71h-4.07v5.65c0,1.16.52,1.68,1.42,1.66a5.4,5.4,0,0,0,1.95-.53Z" transform="translate(-101.99 -360.37)" fill="#2b3943"/><path d="M200.88,390v4.74c-2.88-.29-4.8,1-5.06,3.17v8h-5.18V390.21h5.18v2.62A5.66,5.66,0,0,1,200.88,390Z" transform="translate(-101.99 -360.37)" fill="#2b3943"/><path d="M228.35,390.54v15.73h-5.18v-2.56a5.54,5.54,0,0,1-5,2.8c-3.4,0-5.61-2.36-5.61-6v-9.95h5.18V399c0,1.78,1,2.85,2.53,2.85,1.83,0,2.93-1.48,2.93-3.54v-7.77Z" transform="translate(-101.99 -360.37)" fill="#2b3943"/><path d="M164.16,386.62h5.15V391h4.07v3.74h-4.07v5.62c0,1.16.52,1.68,1.42,1.66a5.51,5.51,0,0,0,2-.53l1,3.67a8.79,8.79,0,0,1-4.25,1c-3,0-5.26-1.77-5.26-5Z" transform="translate(-101.99 -360.37)" fill="#2b3943"/><path d="M246.93,398.54c0,4.8-2.85,8-7.21,8A5.76,5.76,0,0,1,235,404.3V412H229.8V390.6H235v2a5.59,5.59,0,0,1,4.62-2.21C244,390.43,246.93,393.66,246.93,398.54Zm-5.21-.11c0-2.33-1.37-3.93-3.4-3.93s-3.34,1.6-3.34,3.93,1.36,3.89,3.34,3.89S241.72,400.75,241.72,398.43Z" transform="translate(-101.99 -360.37)" fill="#2b3943"/><path d="M149.12,403.6l2.09-3.39a10.3,10.3,0,0,0,5.47,1.83c1,0,1.41-.3,1.41-.86v-.05c0-.62-.88-.89-2.56-1.36-3.14-.82-5.64-1.88-5.64-5.09v-.06c0-3.38,2.7-5.26,6.38-5.26a12.51,12.51,0,0,1,6.56,1.85l-1.91,3.53a10.79,10.79,0,0,0-4.71-1.47c-.85,0-1.29.32-1.29.77v0c0,.62.91.92,2.58,1.42,3.15.88,5.65,2,5.65,5.06v.06c0,3.5-2.62,5.32-6.5,5.32A12.82,12.82,0,0,1,149.12,403.6Z" transform="translate(-101.99 -360.37)" fill="#2b3943"/><path d="M285,399.37H274a3.56,3.56,0,0,0,3.62,2.8,5.29,5.29,0,0,0,3.74-1.62l2.74,2.74a9,9,0,0,1-6.95,2.82c-5.21,0-8.42-3.2-8.42-8.06s3.33-8.22,8.3-8.22C282.57,389.83,285.39,393.57,285,399.37ZM280,396.58a2.85,2.85,0,0,0-3-3.07c-1.71,0-2.82,1.24-3.18,3.07Z" transform="translate(-101.99 -360.37)" fill="#2b3943"/><path d="M302.17,399.37H291.1a3.57,3.57,0,0,0,3.62,2.8,5.27,5.27,0,0,0,3.74-1.62l2.74,2.74a9,9,0,0,1-6.95,2.82c-5.21,0-8.42-3.21-8.42-8.06s3.33-8.22,8.3-8.22C299.7,389.83,302.52,393.57,302.17,399.37Zm-5.06-2.8a2.85,2.85,0,0,0-2.95-3.06c-1.7,0-2.82,1.24-3.18,3.06Z" transform="translate(-101.99 -360.37)" fill="#2b3943"/><polygon points="216.59 30.31 210.26 30.31 206.38 34.72 206.38 24.93 201.14 24.93 201.14 45.74 206.38 45.74 206.38 41.42 206.38 40.06 210.45 45.53 216.3 45.53 210.45 37.44 216.59 30.31" fill="#2b3943"/><path d="M333.11,399.55H322a3.57,3.57,0,0,0,3.62,2.8,5.27,5.27,0,0,0,3.74-1.62l2.74,2.74a9,9,0,0,1-6.95,2.83c-5.21,0-8.42-3.21-8.42-8.07s3.33-8.21,8.3-8.21C330.64,390,333.46,393.75,333.11,399.55Zm-5.06-2.79a2.84,2.84,0,0,0-2.95-3.06c-1.71,0-2.82,1.23-3.18,3.06Z" transform="translate(-101.99 -360.37)" fill="#2b3943"/><path d="M350.44,396.26v10h-5.21v-8.54a2.62,2.62,0,0,0-2.71-2.91,3.12,3.12,0,0,0-3.12,3v8.42h-5.24V390.37h5.24V393a5.84,5.84,0,0,1,5.27-2.8C348.14,390.17,350.44,392.52,350.44,396.26Z" transform="translate(-101.99 -360.37)" fill="#2b3943"/><path d="M368.88,385.31v21h-5.24v-2.06a5.61,5.61,0,0,1-4.71,2.27c-4.47,0-7.41-3.3-7.41-8.25s2.91-8.06,7.3-8.06a5.85,5.85,0,0,1,4.82,2.26v-7.15Zm-5.24,13.1c0-2.38-1.38-4-3.41-4s-3.45,1.62-3.45,4,1.39,4,3.45,4S363.64,400.77,363.64,398.41Z" transform="translate(-101.99 -360.37)" fill="#2b3943"/><path d="M246.18,390.6h5.45l1.91,7.33,1.8-7.33h5l1.83,7.39,2-7.39h5.36L264.77,406h-4.83l-2.13-8.27L255.63,406h-4.8Z" transform="translate(-101.99 -360.37)" fill="#2b3943"/><path d="M306.68,418.28a2.2,2.2,0,0,1,1.09.23l-.33,1.07a1.66,1.66,0,0,0-.72-.16,1,1,0,0,0-.74.32,1.18,1.18,0,0,0-.29.83v.83h1.71v1.12h-1.71v5.41h-1.22v-5.41h-1.23V421.4h1.23v-.95a2.06,2.06,0,0,1,.62-1.57A2.18,2.18,0,0,1,306.68,418.28Z" transform="translate(-101.99 -360.37)" fill="#1d1d1b"/><path d="M307.75,424.66a3.46,3.46,0,0,1,.94-2.49,3.43,3.43,0,0,1,4.82,0,3.72,3.72,0,0,1,0,5,3.45,3.45,0,0,1-4.82,0A3.47,3.47,0,0,1,307.75,424.66Zm1.22,0a2.39,2.39,0,0,0,.62,1.71,2.1,2.1,0,0,0,3,0,2.67,2.67,0,0,0,0-3.4,2,2,0,0,0-1.52-.67,2,2,0,0,0-1.52.67A2.38,2.38,0,0,0,309,424.66Z" transform="translate(-101.99 -360.37)" fill="#1d1d1b"/><path d="M316.6,427.93h-1.23V421.4h1.17v1.06h.06a1.76,1.76,0,0,1,.76-.88,2.1,2.1,0,0,1,1.14-.37,2.25,2.25,0,0,1,.91.16l-.37,1.19a2,2,0,0,0-.72-.1,1.61,1.61,0,0,0-1.21.56,1.9,1.9,0,0,0-.51,1.31Z" transform="translate(-101.99 -360.37)" fill="#1d1d1b"/><path d="M328.45,425.38a2.48,2.48,0,0,1-.92,2,3.51,3.51,0,0,1-2.27.75,3.35,3.35,0,0,1-2.09-.69,3.49,3.49,0,0,1-1.25-1.89l1.17-.48a3.14,3.14,0,0,0,.33.77,2.41,2.41,0,0,0,.5.59,2,2,0,0,0,.64.39,2,2,0,0,0,.73.14,2.08,2.08,0,0,0,1.37-.43,1.42,1.42,0,0,0,.54-1.16,1.37,1.37,0,0,0-.44-1,4.26,4.26,0,0,0-1.55-.8c-.77-.28-1.24-.46-1.43-.56a2.47,2.47,0,0,1-1.52-2.28,2.33,2.33,0,0,1,.84-1.8,3.07,3.07,0,0,1,2.1-.75,3.24,3.24,0,0,1,1.89.56,2.68,2.68,0,0,1,1.07,1.37l-1.15.48a1.72,1.72,0,0,0-.63-.88,1.86,1.86,0,0,0-1.16-.35,1.89,1.89,0,0,0-1.21.39,1.15,1.15,0,0,0-.49,1,1.11,1.11,0,0,0,.38.85,6.73,6.73,0,0,0,1.86.85,4.71,4.71,0,0,1,2.07,1.21A2.61,2.61,0,0,1,328.45,425.38Z" transform="translate(-101.99 -360.37)" fill="#1d1d1b"/><path d="M331.83,428a1.85,1.85,0,0,1-1.32-.5,1.83,1.83,0,0,1-.54-1.37v-3.65h-1.15V421.4H330v-2h1.22v2h1.6v1.12h-1.6v3.25a1.2,1.2,0,0,0,.26.89.85.85,0,0,0,.57.23,1.43,1.43,0,0,0,.29,0,2,2,0,0,0,.26-.09l.38,1.09A3.17,3.17,0,0,1,331.83,428Z" transform="translate(-101.99 -360.37)" fill="#1d1d1b"/><path d="M336.27,421.18a3.06,3.06,0,0,1,2.15.73,2.6,2.6,0,0,1,.79,2v4H338V427h0a2.34,2.34,0,0,1-2,1.12,2.59,2.59,0,0,1-1.8-.64,2,2,0,0,1-.73-1.6,2,2,0,0,1,.77-1.61,3.22,3.22,0,0,1,2-.6,3.58,3.58,0,0,1,1.8.4v-.28a1.39,1.39,0,0,0-.5-1.09,1.79,1.79,0,0,0-1.19-.44,1.9,1.9,0,0,0-1.63.86l-1.08-.68A3,3,0,0,1,336.27,421.18Zm-1.58,4.75a1,1,0,0,0,.4.8,1.54,1.54,0,0,0,1,.32,2,2,0,0,0,1.38-.57,1.82,1.82,0,0,0,.6-1.35,2.52,2.52,0,0,0-1.6-.45,2.07,2.07,0,0,0-1.24.36A1,1,0,0,0,334.69,425.93Z" transform="translate(-101.99 -360.37)" fill="#1d1d1b"/><path d="M340.35,421.4h1.18v1.06h.05a2.2,2.2,0,0,1,2.25-1.25l.26,0v1.28l-.55-.06a2,2,0,0,0-1.41.53,1.76,1.76,0,0,0-.55,1.34v3.6h-1.23ZM348,428a1.85,1.85,0,0,1-1.32-.5,1.83,1.83,0,0,1-.54-1.37v-3.65H345V421.4h1.15v-2h1.22v2H349v1.12h-1.6v3.25a1.2,1.2,0,0,0,.26.89.85.85,0,0,0,.57.23,1.43,1.43,0,0,0,.29,0,2,2,0,0,0,.26-.09l.38,1.09A3.17,3.17,0,0,1,348,428Z" transform="translate(-101.99 -360.37)" fill="#1d1d1b"/><path d="M355.69,427.93h-1.17V427h0a2.23,2.23,0,0,1-.86.8,2.41,2.41,0,0,1-1.21.32,2.46,2.46,0,0,1-1.85-.68,2.76,2.76,0,0,1-.64-2v-4.1h1.22v4a1.45,1.45,0,0,0,1.62,1.6,1.49,1.49,0,0,0,1.22-.59,2.16,2.16,0,0,0,.5-1.42V421.4h1.22Z" transform="translate(-101.99 -360.37)" fill="#1d1d1b"/><path d="M360.29,428.14a2.84,2.84,0,0,1-1.31-.3,2.27,2.27,0,0,1-.91-.82H358l.06.91v2.88h-1.23V421.4H358v.9h.06a2.33,2.33,0,0,1,.91-.81,2.84,2.84,0,0,1,1.31-.31,2.81,2.81,0,0,1,2.19,1,3.76,3.76,0,0,1,0,4.93A2.84,2.84,0,0,1,360.29,428.14Zm-.2-1.12a1.92,1.92,0,0,0,1.48-.66,2.42,2.42,0,0,0,.6-1.7,2.44,2.44,0,0,0-.6-1.69,1.93,1.93,0,0,0-1.48-.67,2,2,0,0,0-1.49.67,2.74,2.74,0,0,0,0,3.4A1.93,1.93,0,0,0,360.09,427Z" transform="translate(-101.99 -360.37)" fill="#1d1d1b"/><path d="M369.38,426.12a1.77,1.77,0,0,1-.75,1.44,2.93,2.93,0,0,1-1.88.58,3,3,0,0,1-1.73-.51,2.84,2.84,0,0,1-1.07-1.35l1.1-.47a2,2,0,0,0,.7.91,1.67,1.67,0,0,0,1,.33,1.76,1.76,0,0,0,1-.25.71.71,0,0,0,.4-.6c0-.42-.32-.73-1-.92l-1.12-.28c-1.27-.32-1.91-.94-1.91-1.84a1.69,1.69,0,0,1,.73-1.44,3,3,0,0,1,1.86-.54,3,3,0,0,1,1.56.42,2.17,2.17,0,0,1,1,1.1l-1.09.46a1.37,1.37,0,0,0-.61-.65,2,2,0,0,0-.94-.23,1.59,1.59,0,0,0-.86.24.69.69,0,0,0-.38.58c0,.38.35.64,1.06.8l1,.26C368.73,424.48,369.38,425.13,369.38,426.12Z" transform="translate(-101.99 -360.37)" fill="#1d1d1b"/><path d="M262.25,428.14a5.4,5.4,0,1,1,0-10.8,5.14,5.14,0,0,1,3.7,1.49l-1,1a3.75,3.75,0,0,0-2.66-1.06,3.93,3.93,0,0,0,0,7.85,3.57,3.57,0,0,0,2.72-1.08,3.09,3.09,0,0,0,.81-1.85h-3.53v-1.48h5a5.08,5.08,0,0,1,.08.92,4.84,4.84,0,0,1-1.28,3.45A4.93,4.93,0,0,1,262.25,428.14Z" transform="translate(-101.99 -360.37)" fill="#1d1d1b"/><path d="M275,424.66a3.43,3.43,0,1,1-3.43-3.48A3.41,3.41,0,0,1,275,424.66Zm-1.5,0a1.93,1.93,0,1,0-1.93,2.11A2,2,0,0,0,273.47,424.66Z" transform="translate(-101.99 -360.37)" fill="#1d1d1b"/><path d="M282.66,424.66a3.43,3.43,0,1,1-3.43-3.48A3.41,3.41,0,0,1,282.66,424.66Zm-1.51,0a1.93,1.93,0,1,0-1.92,2.11A2,2,0,0,0,281.15,424.66Z" transform="translate(-101.99 -360.37)" fill="#1d1d1b"/><path d="M290.15,421.4v6.24c0,2.57-1.52,3.62-3.31,3.62a3.3,3.3,0,0,1-3.08-2.05l1.33-.56a1.93,1.93,0,0,0,1.75,1.24,1.78,1.78,0,0,0,1.86-2v-.5h-.06a2.37,2.37,0,0,1-1.83.79,3.48,3.48,0,0,1,0-7,2.4,2.4,0,0,1,1.83.78h.06v-.56Zm-1.35,3.28a2,2,0,0,0-1.85-2.13,2,2,0,0,0-1.94,2.13,2,2,0,0,0,1.94,2.09A1.94,1.94,0,0,0,288.8,424.68Z" transform="translate(-101.99 -360.37)" fill="#1d1d1b"/><path d="M292.82,417.71v10.22H291.3V417.71Z" transform="translate(-101.99 -360.37)" fill="#1d1d1b"/><path d="M298.83,425.81l1.19.79a3.48,3.48,0,0,1-2.9,1.54,3.36,3.36,0,0,1-3.4-3.48,3.27,3.27,0,0,1,3.23-3.48,3.22,3.22,0,0,1,3,2.22l.16.39-4.65,1.93a1.79,1.79,0,0,0,1.69,1A2,2,0,0,0,298.83,425.81Zm-3.65-1.25,3.11-1.29a1.33,1.33,0,0,0-1.29-.74A1.9,1.9,0,0,0,295.18,424.56Z" transform="translate(-101.99 -360.37)" fill="#1d1d1b"/><path d="M165.65,427.93h-.83v-6.52h.83Z" transform="translate(-101.99 -360.37)" fill="#010101"/><path d="M167.8,427.93H167v-6.52h1l3.17,5.07h0l0-1.26v-3.81H172v6.52h-.88l-3.31-5.32h0l0,1.26Z" transform="translate(-101.99 -360.37)" fill="#010101"/><path d="M176.14,425.29v2.64h-.84v-6.52h2.22A2,2,0,0,1,179,422a1.88,1.88,0,0,1,0,2.75,2,2,0,0,1-1.44.56Zm0-3.08v2.28h1.4a1.14,1.14,0,1,0,0-2.28Z" transform="translate(-101.99 -360.37)" fill="#010101"/><path d="M180.18,427.93h-.93l2.46-6.52h.95l2.45,6.52h-.92l-.63-1.77h-2.74Zm2-5.49-1.07,2.94h2.17l-1.07-2.94Z" transform="translate(-101.99 -360.37)" fill="#010101"/><path d="M186.72,427.93h-.84v-6.52h2.22a2,2,0,0,1,1.44.56,1.86,1.86,0,0,1,.16,2.57,1.9,1.9,0,0,1-1.12.67l0,0,1.83,2.65v0h-1l-1.76-2.64h-.92Zm0-5.72v2.3h1.34a1.25,1.25,0,0,0,.87-.34,1.05,1.05,0,0,0,.35-.82,1.14,1.14,0,0,0-1.16-1.14Z" transform="translate(-101.99 -360.37)" fill="#010101"/><path d="M193.36,422.21v5.72h-.84v-5.72H190.7v-.8h4.48v.8Z" transform="translate(-101.99 -360.37)" fill="#010101"/><path d="M196.89,427.93h-.83v-6.52h1l3.17,5.07h0l0-1.26v-3.81h.84v6.52h-.87l-3.32-5.32h0l0,1.26Z" transform="translate(-101.99 -360.37)" fill="#010101"/><path d="M206.2,421.41v.8h-3v2.07h2.68v.78h-2.68v2.07h3v.8h-3.81v-6.52Z" transform="translate(-101.99 -360.37)" fill="#010101"/><path d="M208.16,427.93h-.84v-6.52h2.23A2.05,2.05,0,0,1,211,422a1.8,1.8,0,0,1,.6,1.38,1.75,1.75,0,0,1-.45,1.19,1.84,1.84,0,0,1-1.11.67l0,0,1.83,2.65v0h-1l-1.76-2.64h-.93Zm0-5.72v2.3h1.35a1.21,1.21,0,0,0,.86-.34,1.06,1.06,0,0,0,.36-.82,1.13,1.13,0,0,0-.33-.8,1.15,1.15,0,0,0-.84-.34Z" transform="translate(-101.99 -360.37)" fill="#010101"/><path d="M216.61,426.19a1.68,1.68,0,0,1-.63,1.37,2.39,2.39,0,0,1-1.55.51,2.23,2.23,0,0,1-1.42-.47,2.43,2.43,0,0,1-.86-1.29l.8-.33a2.3,2.3,0,0,0,.23.53,1.67,1.67,0,0,0,.34.4,1.48,1.48,0,0,0,.43.27,1.43,1.43,0,0,0,.5.09,1.47,1.47,0,0,0,.94-.29,1,1,0,0,0,.36-.79.94.94,0,0,0-.3-.7,2.83,2.83,0,0,0-1-.55,8.8,8.8,0,0,1-1-.38,1.67,1.67,0,0,1-1-1.56,1.59,1.59,0,0,1,.57-1.23,2.29,2.29,0,0,1,2.72-.12,1.75,1.75,0,0,1,.73.94l-.78.32a1.18,1.18,0,0,0-.44-.6,1.26,1.26,0,0,0-.78-.25,1.28,1.28,0,0,0-.83.28.8.8,0,0,0-.07,1.25,4.72,4.72,0,0,0,1.26.58,3.3,3.3,0,0,1,1.42.82A1.79,1.79,0,0,1,216.61,426.19Z" transform="translate(-101.99 -360.37)" fill="#010101"/><path d="M218.46,427.93h-.84v-6.52h.84v2.8h3.26v-2.8h.83v6.52h-.83V425h-3.26Z" transform="translate(-101.99 -360.37)" fill="#010101"/><path d="M224.7,427.93h-.84v-6.52h.84Z" transform="translate(-101.99 -360.37)" fill="#010101"/><path d="M226.85,425.29v2.64H226v-6.52h2.22a2,2,0,0,1,1.44.57,1.88,1.88,0,0,1,0,2.75,2,2,0,0,1-1.44.56Zm0-3.08v2.28h1.4a1.14,1.14,0,1,0,0-2.28Z" transform="translate(-101.99 -360.37)" fill="#010101"/><path d="M239.5,421.41h.88l-1.74,6.52h-.86l-1.4-4.3h0l-1.4,4.3h-.85l-1.81-6.52h.87l1.37,5.13h0l1.41-4.25h.78l1.41,4.25h0Z" transform="translate(-101.99 -360.37)" fill="#010101"/><path d="M242,427.93h-.84v-6.52H242Z" transform="translate(-101.99 -360.37)" fill="#010101"/><path d="M245.55,422.21v5.72h-.84v-5.72h-1.82v-.8h4.48v.8Z" transform="translate(-101.99 -360.37)" fill="#010101"/><path d="M249.08,427.93h-.84v-6.52h.84v2.8h3.26v-2.8h.83v6.52h-.83V425h-3.26Z" transform="translate(-101.99 -360.37)" fill="#010101"/><polygon points="341.94 40.1 346.39 25.8 337.1 18.66 313.05 42.23 338.9 42.23 341.92 40.16 341.94 40.1" fill="#6d91a3"/><polygon points="371.75 18.66 362.46 25.8 366.93 40.16 369.96 42.23 395.8 42.23 371.75 18.66" fill="#6d91a3"/><polygon points="367.42 10.54 357.61 10.52 354.43 1.1 351.24 10.52 341.44 10.54 349.28 16.57 346.4 25.82 354.43 20.31 362.45 25.82 359.58 16.57 367.42 10.54" fill="#16b14b"/><polygon points="354.46 31.64 354.43 31.62 338.9 42.23 369.96 42.23 354.46 31.64" fill="#16b14b"/><path d="M405.41,414.25v-1.5H408V409.5l1.87-.82v4.07H413v1.5h-3.19v10.13c0,2.1.22,2.6,1.72,2.6a8.37,8.37,0,0,0,1.47-.1v1.63a17.24,17.24,0,0,1-1.78.09c-2.53,0-3.28-1.12-3.28-3.06V414.25Z" transform="translate(-101.99 -360.37)" fill="#6d91a3"/><path d="M417,421v1.21c0,2.19.6,5.1,3.57,5.1a3.23,3.23,0,0,0,3.47-3.62h2c-.22,3.81-2.28,5.12-5.44,5.12-2.72,0-5.44-1.09-5.44-5.88V419.1c0-4.57,1.91-6.66,5.44-6.66,5.44,0,5.44,3.9,5.44,8.6Zm7.13-1.5c0-3.51-.56-5.6-3.56-5.6S417,416,417,419.54Z" transform="translate(-101.99 -360.37)" fill="#6d91a3"/><path d="M436.44,417.28c.09-2-.63-3.34-2.79-3.34a2.6,2.6,0,0,0-2.53,1.81,21.6,21.6,0,0,0-.44,5c0,2.85,0,6.63,2.91,6.63,2.47,0,2.79-1.56,2.88-3.47h1.88c.15,4.25-2.85,5-4.32,5-5.35,0-5.35-4.22-5.35-8.13a20.77,20.77,0,0,1,.47-5.22c.81-2.25,2.6-3.06,4.75-3.06,2.73,0,4.57,1.53,4.41,4.84Z" transform="translate(-101.99 -360.37)" fill="#6d91a3"/><path d="M441.57,428.54V406h1.87v8.73h.07a4.53,4.53,0,0,1,3.81-2.25c3.91,0,4.32,2.9,4.32,5v11.13h-1.88v-11c0-1.84-.72-3.56-2.91-3.56-1.69,0-3.41,1.15-3.41,4.69v9.91Z" transform="translate(-101.99 -360.37)" fill="#6d91a3"/><path d="M459.64,428.85c-3.4,0-4.75-1.65-4.72-5h1.91c0,2.16.5,3.6,2.91,3.6a2.46,2.46,0,0,0,2.69-2.79c0-4.12-7.1-3.06-7.1-8.28,0-2.91,2-3.94,4.75-3.94,3.13,0,4.13,2.15,4.13,4.56h-1.84c-.1-2-.63-3.06-2.76-3.06a2.24,2.24,0,0,0-2.4,2.28c0,3.94,7.09,2.88,7.09,8.16C464.3,427.35,462.58,428.85,459.64,428.85Z" transform="translate(-101.99 -360.37)" fill="#6d91a3"/><path d="M466.21,414.25v-1.5h2.54V409.5l1.87-.82v4.07h3.19v1.5h-3.19v10.13c0,2.1.22,2.6,1.72,2.6a8.37,8.37,0,0,0,1.47-.1v1.63a17.24,17.24,0,0,1-1.78.09c-2.53,0-3.28-1.12-3.28-3.06V414.25Z" transform="translate(-101.99 -360.37)" fill="#6d91a3"/><path d="M484.48,426.6h-.07a5.06,5.06,0,0,1-4.47,2.25c-2.81,0-4.34-1.9-4.34-4.66,0-5.53,5.56-5,8.75-5.22v-1.31c0-2.32-.69-3.72-3.19-3.72-1.72,0-3.09.84-3.09,2.72h-2c.16-3,2.51-4.22,5.26-4.22,1.59,0,4.91.15,4.91,4.19v7.94a33.28,33.28,0,0,0,.19,4h-1.94Zm-.13-6.13c-2.69.1-6.75-.22-6.75,3.63,0,1.78.9,3.25,2.84,3.25a4.05,4.05,0,0,0,3.91-4Z" transform="translate(-101.99 -360.37)" fill="#6d91a3"/><path d="M491.89,414.87H492a4.79,4.79,0,0,1,4.35-2.43v1.9a3.78,3.78,0,0,0-4.41,4v10.16H490V412.75h1.88Z" transform="translate(-101.99 -360.37)" fill="#6d91a3"/><path d="M502.62,428.85c-3.41,0-4.76-1.65-4.72-5h1.9c0,2.16.5,3.6,2.91,3.6a2.46,2.46,0,0,0,2.69-2.79c0-4.12-7.1-3.06-7.1-8.28,0-2.91,2-3.94,4.76-3.94,3.12,0,4.12,2.15,4.12,4.56h-1.84c-.1-2-.63-3.06-2.75-3.06a2.25,2.25,0,0,0-2.41,2.28c0,3.94,7.1,2.88,7.1,8.16C507.28,427.35,505.56,428.85,502.62,428.85Z" transform="translate(-101.99 -360.37)" fill="#6d91a3"/><path d="M507.41,412.48a1.76,1.76,0,0,1,.21-.85,1.67,1.67,0,0,1,.59-.62,1.59,1.59,0,0,1,.82-.23,1.55,1.55,0,0,1,.81.23,1.67,1.67,0,0,1,.59.62,1.81,1.81,0,0,1,0,1.69,1.6,1.6,0,0,1-.58.63,1.48,1.48,0,0,1-.82.24,1.52,1.52,0,0,1-.83-.24,1.67,1.67,0,0,1-.58-.63A1.74,1.74,0,0,1,507.41,412.48Zm.26,0a1.39,1.39,0,0,0,.19.72,1.29,1.29,0,0,0,.49.52,1.25,1.25,0,0,0,.68.19,1.27,1.27,0,0,0,.68-.19,1.36,1.36,0,0,0,.49-.52,1.53,1.53,0,0,0,0-1.44,1.33,1.33,0,0,0-1.17-.71,1.34,1.34,0,0,0-.68.19,1.39,1.39,0,0,0-.5.52A1.48,1.48,0,0,0,507.67,412.48Zm1,.17v.77h-.32v-1.93H509a.87.87,0,0,1,.54.15.5.5,0,0,1,.19.43.47.47,0,0,1-.29.43.44.44,0,0,1,.28.46v.14a.63.63,0,0,0,0,.28v0h-.33a.93.93,0,0,1,0-.29,1.23,1.23,0,0,0,0-.25c0-.15-.12-.22-.3-.23Zm0-.29h.36a.42.42,0,0,0,.26-.08.23.23,0,0,0,.1-.2.27.27,0,0,0-.09-.23.49.49,0,0,0-.31-.07h-.32Z" transform="translate(-101.99 -360.37)" fill="#6d91a3"/><rect x="286.9" y="10.61" width="0.28" height="59.54" fill="#2b3943"/><path d="M132.92,379.48c0-.44-3.53-.93-7.88-.93s-7.87.49-7.87.93,3.53.94,7.87.94S132.92,379.93,132.92,379.48Z" transform="translate(-101.99 -360.37)" fill="#12b24b"/><path d="M121.62,369.38a4.51,4.51,0,1,0-4.5-4.5A4.5,4.5,0,0,0,121.62,369.38Z" transform="translate(-101.99 -360.37)" fill="#12b24b"/><path d="M128.64,374.35a3.22,3.22,0,1,0-3.22-3.21A3.22,3.22,0,0,0,128.64,374.35Z" transform="translate(-101.99 -360.37)" fill="#12b24b"/><path d="M148.07,423l-14-34.43,4-10.59a1,1,0,0,0-.66-1.35A45.22,45.22,0,0,0,125.05,375h-1a2.55,2.55,0,1,0-4.91-1,2.47,2.47,0,0,0,.35,1.27,41.58,41.58,0,0,0-6.78,1.32,1,1,0,0,0-.61.54,1,1,0,0,0,0,.81l4.1,10.65L102.07,423a1.23,1.23,0,0,0-.08.49c0,1.17,1.44,1.39,2.61,1.57s2.75.32,4.81.45c4.18.27,9.74.41,15.66.41s11.47-.14,15.66-.41c2.05-.13,3.67-.28,4.81-.45s2.61-.4,2.61-1.57A1.71,1.71,0,0,0,148.07,423Zm-23,.87c-11.41,0-18.53-.51-20.76-.94L118.2,389a1,1,0,0,0,0-.76l-3.84-10a45.58,45.58,0,0,1,21.37,0L132,388.2a1,1,0,0,0,0,.75l13.82,34C143.59,423.34,136.47,423.85,125.07,423.85Z" transform="translate(-101.99 -360.37)" fill="#12b24b"/><path d="M142.75,421.2l-3.8-9.33V410a5.74,5.74,0,0,0-1.64-4.09,5.61,5.61,0,0,0-.92-.77s-6.52-16.36-6.52-16.36-.05-.12-.11-.12c-1.31.13-2.94.21-4.7.21s-3.4-.08-4.71-.21c-.06,0-.1.07-.12.12l-4.87,12.15a5.73,5.73,0,0,0-2.38,4.73v1.55l-5.62,14a45.06,45.06,0,0,0,7.54.53V405.67a3.75,3.75,0,1,1,7.5,0v5.94a5.71,5.71,0,0,0-3.32,5.24V422H121v-5.11a3.66,3.66,0,0,1,7.32,0V422h2.09v-5.1a5.65,5.65,0,0,0-.93-3.09V409.9a3.81,3.81,0,0,1,7.61,0v11.87A42.3,42.3,0,0,0,142.75,421.2Zm-12.86-15.88a5.47,5.47,0,0,0-1.51,1.56,5.64,5.64,0,0,0-.8,1.93,5.38,5.38,0,0,0-.13,1.2v1.85a6.17,6.17,0,0,0-2.76-.67h-.38v-5.52a5.33,5.33,0,0,0-1.74-4.12v-2.83a4.1,4.1,0,0,1,8.19,0v6.13h0A4.83,4.83,0,0,0,129.89,405.32Z" transform="translate(-101.99 -360.37)" fill="#12b24b"/><path d="M117,407.63a1,1,0,1,0-1-1A1,1,0,0,0,117,407.63Z" transform="translate(-101.99 -360.37)" fill="#12b24b"/><path d="M121.26,406.61a1,1,0,1,0-1,1A1,1,0,0,0,121.26,406.61Z" transform="translate(-101.99 -360.37)" fill="#12b24b"/><path d="M125.13,400a1,1,0,1,0-1-1A1,1,0,0,0,125.13,400Z" transform="translate(-101.99 -360.37)" fill="#12b24b"/><path d="M128.37,400a1,1,0,1,0-1-1A1,1,0,0,0,128.37,400Z" transform="translate(-101.99 -360.37)" fill="#12b24b"/><path d="M131.71,412a1,1,0,1,0-1-1A1,1,0,0,0,131.71,412Z" transform="translate(-101.99 -360.37)" fill="#12b24b"/><path d="M136,411a1,1,0,0,0-1-1,1,1,0,0,0,0,2A1,1,0,0,0,136,411Z" transform="translate(-101.99 -360.37)" fill="#12b24b"/><path d="M123.2,417.59a1,1,0,1,0-1-.95A.94.94,0,0,0,123.2,417.59Z" transform="translate(-101.99 -360.37)" fill="#12b24b"/><path d="M127.2,416.64a1,1,0,1,0-.94.95A.95.95,0,0,0,127.2,416.64Z" transform="translate(-101.99 -360.37)" fill="#12b24b"/><path d="M126.77,402.94a3.44,3.44,0,0,1-1.81-.51.58.58,0,0,1-.18-.78.57.57,0,0,1,.78-.19,2.29,2.29,0,0,0,2.42,0,.57.57,0,0,1,.78.19.58.58,0,0,1-.18.78A3.44,3.44,0,0,1,126.77,402.94Z" transform="translate(-101.99 -360.37)" fill="#12b24b"/><path d="M118.67,410.64a3.44,3.44,0,0,1-1.81-.51.57.57,0,0,1,.6-1,2.29,2.29,0,0,0,2.42,0,.57.57,0,1,1,.59,1A3.38,3.38,0,0,1,118.67,410.64Z" transform="translate(-101.99 -360.37)" fill="#12b24b"/><path d="M124.73,420.45a3.44,3.44,0,0,1-1.81-.51.58.58,0,0,1-.18-.78.56.56,0,0,1,.78-.18,2.29,2.29,0,0,0,2.42,0,.56.56,0,0,1,.78.18.58.58,0,0,1-.18.78A3.44,3.44,0,0,1,124.73,420.45Z" transform="translate(-101.99 -360.37)" fill="#12b24b"/><path d="M133.34,415a3.36,3.36,0,0,1-1.81-.52.56.56,0,0,1-.18-.78.57.57,0,0,1,.78-.18,2.28,2.28,0,0,0,2.41,0,.57.57,0,0,1,.78.18.56.56,0,0,1-.18.78A3.33,3.33,0,0,1,133.34,415Z" transform="translate(-101.99 -360.37)" fill="#12b24b"/></svg>