<?xml version="1.0" encoding="utf-8"?>
<!-- Generator: Adobe Illustrator 23.0.2, SVG Export Plug-In . SVG Version: 6.00 Build 0)  -->
<svg version="1.1" id="Layer_1" xmlns="http://www.w3.org/2000/svg" xmlns:xlink="http://www.w3.org/1999/xlink" x="0px" y="0px"
	 viewBox="0 0 358.35 402.56" enable-background="new 0 0 358.35 402.56" xml:space="preserve">
<g>
	<g>
		<g>
			<path fill="#231F20" d="M139.94,28c-17.28,6.82-36.07,17.31-53.78,31.48c-52.78,42.22-65.01,77.38-68.1,101.98
				c-6.75,50.95,14.76,91.67,47.14,132.15c60.63,75.79,174.52,98.58,259.44,30.64c13.36-10.68,24.83-22.41,33.71-33.22l0,0H139.94
				V28z"/>
			<path fill="#231F20" d="M76.87,42.18c15.88-12.7,39.05-29.28,61.35-41.27c0.59-0.31,1.14-0.61,1.72-0.91l0,0H0v139.52
				C11.97,108.41,35.08,75.62,76.87,42.18z"/>
			<path fill="#231F20" d="M32.02,325.36C21.27,311.91,8.8,291.52,0,266.44v136.12h156.38C99.67,393.79,59.42,359.61,32.02,325.36z"
				/>
			<path fill="#231F20" d="M339.24,342.51c-44.21,35.38-84.18,54.04-123.89,60.05h143v-76.2
				C352.02,332.01,345.56,337.46,339.24,342.51z"/>
		</g>
	</g>
</g>
</svg>
