<svg xmlns="http://www.w3.org/2000/svg" width="300" viewBox="0 0 368.11 104.97"><title>chp-logo</title><path d="M164.34,282.48v-20h4.89a28.26,28.26,0,0,0,10.05-1.41,11.61,11.61,0,0,0,5.52-4.51,12.85,12.85,0,0,0,2-7.14,12.3,12.3,0,0,0-3.93-9.58q-3.93-3.57-10.54-3.57H157.7v20.32H142.41V241.88H135.8v14.69H120.53v5.85H135.8v20.06h6.61V262.42H157.7v20.06Zm0-40.35h6.84q8.79,0,8.79,7.11a6.8,6.8,0,0,1-2.18,5.43,9.15,9.15,0,0,1-6.21,1.9h-7.24Z" transform="translate(-94.67 -204.15)" fill="#3c7573"/><path d="M150.56,295.62q-17.82,0-29.27-10.86T109.85,257q0-16.73,11.62-27.84t29.24-11.11q17.16,0,35.13,10.26V212.58q-19.72-8.43-35.87-8.43-23.4,0-39.35,15.26T94.67,257a51.64,51.64,0,0,0,7,26.18,50.87,50.87,0,0,0,18.93,19q12,6.88,29.12,6.89,21.12,0,37.26-8.81V284.18Q169.2,295.61,150.56,295.62Z" transform="translate(-94.67 -204.15)" fill="#3c7573"/><path d="M262.71,252.13v9.67a45.87,45.87,0,0,1-22.34,5.28q-10.29,0-17.46-4.13a30.56,30.56,0,0,1-11.35-11.39,31,31,0,0,1-4.17-15.7A30,30,0,0,1,217,213.29q9.57-9.14,23.6-9.14,9.67,0,21.5,5v9.46q-10.77-6.15-21.06-6.16-10.56,0-17.53,6.67a23.51,23.51,0,0,0-.11,33.31Q230.21,259,240.9,259,252.08,259,262.71,252.13Z" transform="translate(-94.67 -204.15)" fill="#3c7573"/><path d="M272.61,204.94h8v61.44h-8Z" transform="translate(-94.67 -204.15)" fill="#3c7573"/><path d="M296.31,208.9a4.69,4.69,0,0,1,3.39,1.36,4.46,4.46,0,0,1,1.41,3.34,4.54,4.54,0,0,1-1.41,3.34,4.62,4.62,0,0,1-3.39,1.41,4.41,4.41,0,0,1-3.25-1.43,4.58,4.58,0,0,1-1.41-3.32,4.52,4.52,0,0,1,1.41-3.27A4.41,4.41,0,0,1,296.31,208.9Zm-4,17h8v40.46h-8Z" transform="translate(-94.67 -204.15)" fill="#3c7573"/><path d="M319.93,225.92v5.14q5.37-5.94,12.18-5.94a13.48,13.48,0,0,1,7,2,12.83,12.83,0,0,1,5,5.37q1.68,3.41,1.69,10.79v23.14h-8v-23q0-6.2-1.89-8.86t-6.33-2.66q-5.67,0-9.63,5.67v28.9h-8.18V225.92Z" transform="translate(-94.67 -204.15)" fill="#3c7573"/><path d="M361.09,208.9a4.69,4.69,0,0,1,3.39,1.36,4.46,4.46,0,0,1,1.41,3.34,4.54,4.54,0,0,1-1.41,3.34,4.62,4.62,0,0,1-3.39,1.41,4.41,4.41,0,0,1-3.25-1.43,4.58,4.58,0,0,1-1.41-3.32,4.52,4.52,0,0,1,1.41-3.27A4.41,4.41,0,0,1,361.09,208.9Zm-3.95,17h8v40.46h-8Z" transform="translate(-94.67 -204.15)" fill="#3c7573"/><path d="M407.05,256.92v7.92a33.71,33.71,0,0,1-11.78,2.24q-9.51,0-15.15-5.63t-5.66-15.08q0-9.54,5.5-15.4t14.47-5.85a24,24,0,0,1,5.61.6,36.59,36.59,0,0,1,6.13,2.22v8.53q-6.06-3.87-11.26-3.87a11.49,11.49,0,0,0-8.88,3.81,13.77,13.77,0,0,0-3.47,9.69q0,6.21,3.76,9.85t10.13,3.65A26.38,26.38,0,0,0,407.05,256.92Z" transform="translate(-94.67 -204.15)" fill="#3c7573"/><path d="M441.58,242.06v17.19c0,1.38.46,2.07,1.4,2.07s2.48-.72,4.53-2.16v4.89a25.93,25.93,0,0,1-4.37,2.39,9.4,9.4,0,0,1-3.46.64c-3.42,0-5.45-1.35-6.06-4A17.5,17.5,0,0,1,422.75,267a9.57,9.57,0,0,1-7-2.79,9.46,9.46,0,0,1-2.82-7,9.87,9.87,0,0,1,2.75-6.84,18.5,18.5,0,0,1,7.81-4.77l10.24-3.52V239.9q0-7.29-7.3-7.3-6.56,0-12.75,6.77v-8.75q4.67-5.49,13.41-5.5,6.56,0,10.51,3.44a11.58,11.58,0,0,1,3.72,6.57A54,54,0,0,1,441.58,242.06Zm-7.88,16.31v-12l-5.36,2.06a18.22,18.22,0,0,0-5.79,3.28,5.92,5.92,0,0,0-.08,8.2,5.64,5.64,0,0,0,4.15,1.59A10,10,0,0,0,433.7,258.37Z" transform="translate(-94.67 -204.15)" fill="#3c7573"/><path d="M454.77,204.94h8v61.44h-8Z" transform="translate(-94.67 -204.15)" fill="#3c7573"/><path d="M232.19,278.55v30.16h-2.35V294.42H209.71v14.29h-2.33V278.55h2.33v13.92h20.13V278.55Z" transform="translate(-94.67 -204.15)" fill="#3c7573"/><path d="M247.67,288.46a9.64,9.64,0,0,1,7.2,3,10.86,10.86,0,0,1,0,14.73,10.29,10.29,0,0,1-14.42,0,10.78,10.78,0,0,1,0-14.73A9.71,9.71,0,0,1,247.67,288.46Zm0,18.57a7.41,7.41,0,0,0,5.59-2.35,8.81,8.81,0,0,0,0-11.77,7.36,7.36,0,0,0-5.58-2.38,7.45,7.45,0,0,0-5.62,2.36,8.82,8.82,0,0,0,0,11.79A7.44,7.44,0,0,0,247.67,307Z" transform="translate(-94.67 -204.15)" fill="#3c7573"/><path d="M264.42,288.85v3.5h.09c1.61-2.6,3.72-3.89,6.33-3.89q4.55,0,6.41,4.77,2.81-4.77,6.9-4.77a6.26,6.26,0,0,1,5,2.2,8.68,8.68,0,0,1,1.89,5.85v12.2h-2.11V297.44a8.35,8.35,0,0,0-1.36-5.06,4.46,4.46,0,0,0-3.81-1.85,4.93,4.93,0,0,0-3.19,1.1,13.31,13.31,0,0,0-2.8,3.54v13.54h-2.14V297.4a8,8,0,0,0-1.42-5.09,4.59,4.59,0,0,0-3.78-1.78c-2.31,0-4.3,1.42-6,4.26v13.92h-2.11V288.85Z" transform="translate(-94.67 -204.15)" fill="#3c7573"/><path d="M313.41,298.05H297.76a8.89,8.89,0,0,0-.06,1,7.58,7.58,0,0,0,2.37,5.64,7.77,7.77,0,0,0,5.61,2.31,11.61,11.61,0,0,0,7.39-3v2.4a12.23,12.23,0,0,1-7.64,2.63,9.33,9.33,0,0,1-7.11-3,10.62,10.62,0,0,1-2.81-7.58,10.34,10.34,0,0,1,2.6-7.22,8.85,8.85,0,0,1,12.76-.28A9.56,9.56,0,0,1,313.41,298.05ZM298,296.34h12.87q-1.12-5.8-6.28-5.81a6.29,6.29,0,0,0-4.22,1.52A7.49,7.49,0,0,0,298,296.34Z" transform="translate(-94.67 -204.15)" fill="#3c7573"/><path d="M330.66,278.55H339q4.77,0,7.3,2.14a7.18,7.18,0,0,1,2.54,5.83,7.34,7.34,0,0,1-2.56,5.91c-1.7,1.46-4.2,2.18-7.5,2.18H333v14.1h-2.34Zm2.34,1.94v12.18h5.61a8.88,8.88,0,0,0,5.74-1.6,6.11,6.11,0,0,0,0-8.94,8.29,8.29,0,0,0-5.51-1.64Z" transform="translate(-94.67 -204.15)" fill="#3c7573"/><path d="M366.25,290.81l-1.24,2q-2.47-2.26-4-2.27-3,0-6.37,5.7v12.48h-2.11V288.85h2.11v5.22h.09q3.56-5.61,6.95-5.61C363,288.46,364.5,289.24,366.25,290.81Z" transform="translate(-94.67 -204.15)" fill="#3c7573"/><path d="M384.19,305.26V307q-2.74,2.07-4,2.07a1,1,0,0,1-1-.49,5.27,5.27,0,0,1-.41-2,10.09,10.09,0,0,1-6.22,2.46,5.31,5.31,0,0,1-3.8-1.47,4.7,4.7,0,0,1-1.56-3.56,5.76,5.76,0,0,1,3-5.11c2-1.24,4.86-2,8.58-2.15v-2.52q0-4.07-4.41-4.06a10.17,10.17,0,0,0-6.07,2.53v-2.19a12.16,12.16,0,0,1,6.42-2.11,7.13,7.13,0,0,1,4.45,1.33,4.54,4.54,0,0,1,1.74,3.85V306q0,1,.48,1C381.76,307,382.7,306.44,384.19,305.26Zm-5.44-.48v-6.2A12.21,12.21,0,0,0,372,300q-2.69,1.59-2.69,4.05a2.93,2.93,0,0,0,1.12,2.33,4.23,4.23,0,0,0,2.81,1A8.36,8.36,0,0,0,378.75,304.78Z" transform="translate(-94.67 -204.15)" fill="#3c7573"/><path d="M401.2,289.43v2.35a13.08,13.08,0,0,0-5.16-1.25,6.94,6.94,0,0,0-5.41,2.31,8.61,8.61,0,0,0-2.08,6,8.33,8.33,0,0,0,2.08,6,7.29,7.29,0,0,0,5.58,2.22,14.07,14.07,0,0,0,5.36-1.15v2.2a17.17,17.17,0,0,1-5.53,1,9.39,9.39,0,0,1-7.05-2.76,10,10,0,0,1-2.69-7.26,10.94,10.94,0,0,1,2.71-7.65,9,9,0,0,1,6.92-3A17.06,17.06,0,0,1,401.2,289.43Z" transform="translate(-94.67 -204.15)" fill="#3c7573"/><path d="M409.51,282.26v6.59h5.57v1.72h-5.57v11.81a9.62,9.62,0,0,0,.47,3.75q.47.9,2.49.9a8.89,8.89,0,0,0,3.63-1v2a9.36,9.36,0,0,1-4.1,1,4.88,4.88,0,0,1-3.29-1.12,3.9,3.9,0,0,1-1.31-3.11v-14.3H402v-1.72h5.36v-4.73l1.44-1.86Z" transform="translate(-94.67 -204.15)" fill="#3c7573"/><path d="M421.45,278.55v3.63h-2.13v-3.63Zm0,10.3v19.86h-2.13V288.85Z" transform="translate(-94.67 -204.15)" fill="#3c7573"/><path d="M441.29,289.43v2.35a13.08,13.08,0,0,0-5.16-1.25,7,7,0,0,0-5.41,2.31,8.66,8.66,0,0,0-2.08,6,8.38,8.38,0,0,0,2.08,6,7.3,7.3,0,0,0,5.59,2.22,14.07,14.07,0,0,0,5.35-1.15v2.2a17.17,17.17,0,0,1-5.53,1,9.42,9.42,0,0,1-7.05-2.76,10,10,0,0,1-2.68-7.26,10.89,10.89,0,0,1,2.71-7.65,8.94,8.94,0,0,1,6.92-3A17,17,0,0,1,441.29,289.43Z" transform="translate(-94.67 -204.15)" fill="#3c7573"/><path d="M462.65,298.05H447a8.89,8.89,0,0,0-.06,1,7.58,7.58,0,0,0,2.37,5.64,7.81,7.81,0,0,0,5.62,2.31,11.57,11.57,0,0,0,7.38-3v2.4a12.21,12.21,0,0,1-7.64,2.63,9.35,9.35,0,0,1-7.11-3,10.61,10.61,0,0,1-2.8-7.58,10.33,10.33,0,0,1,2.59-7.22A8.85,8.85,0,0,1,460.1,291,9.53,9.53,0,0,1,462.65,298.05Zm-15.38-1.71h12.87q-1.12-5.8-6.28-5.81a6.31,6.31,0,0,0-4.22,1.52A7.49,7.49,0,0,0,447.27,296.34Z" transform="translate(-94.67 -204.15)" fill="#3c7573"/></svg>