<svg xmlns="http://www.w3.org/2000/svg" width="300" viewBox="0 0 360 59.43"><title>tdcw-logo</title><path d="M91.31,57.56a.35.35,0,0,0,0-.18.47.47,0,0,0-.15-.35.45.45,0,0,0-.66,0,6.23,6.23,0,0,1-1.62,1.09,4.84,4.84,0,0,1-2,.38,4.49,4.49,0,0,1-1.88-.39A4.62,4.62,0,0,1,83.58,57a4.92,4.92,0,0,1-1-1.58,5.72,5.72,0,0,1,0-3.94,4.82,4.82,0,0,1,1-1.58,4.74,4.74,0,0,1,1.5-1.06A4.52,4.52,0,0,1,87,48.48c.33,0,.62,0,.87,0a3.16,3.16,0,0,1,.72.17,3.34,3.34,0,0,1,.63.31,5.1,5.1,0,0,1,.66.52.57.57,0,0,0,.47.17,1.81,1.81,0,0,0,.57-.12,2.27,2.27,0,0,0,.45-.21,2.28,2.28,0,0,1-.39-.27,3.35,3.35,0,0,1-.4-.35l-.07-.05a5.4,5.4,0,0,0-.76-.54,4.54,4.54,0,0,0-.78-.35,4.39,4.39,0,0,0-.88-.19A8.77,8.77,0,0,0,87,47.55a5.82,5.82,0,0,0-2.34.47A5.65,5.65,0,0,0,82.8,49.3a5.72,5.72,0,0,0-1.21,1.89,6.5,6.5,0,0,0,0,4.65,5.77,5.77,0,0,0,1.2,1.87A5.7,5.7,0,0,0,84.61,59a5.79,5.79,0,0,0,2.3.45A5.87,5.87,0,0,0,89.33,59a6.91,6.91,0,0,0,1.86-1.25A.4.4,0,0,0,91.31,57.56Z" fill="#414042"/><path d="M103.09,56.54a6.63,6.63,0,0,0,.35-2.24V48.09a.53.53,0,1,0-1,0V54.4a4.21,4.21,0,0,1-1,3,3.7,3.7,0,0,1-2.73,1,3.64,3.64,0,0,1-2.78-1.09,4.35,4.35,0,0,1-1-3.07V48.09a.52.52,0,0,0-.16-.38.5.5,0,0,0-.37-.16H93.07l.27.19a1.6,1.6,0,0,1,.33.31.9.9,0,0,1,.16.55v5.81a6.35,6.35,0,0,0,.35,2.18,4.4,4.4,0,0,0,1,1.56,4.15,4.15,0,0,0,1.5.94,5.63,5.63,0,0,0,2,.33,5.71,5.71,0,0,0,2-.33,3.87,3.87,0,0,0,1.5-1A4.32,4.32,0,0,0,103.09,56.54Z" fill="#414042"/><path d="M114,57.55a3,3,0,0,0,.29-1.32,2.55,2.55,0,0,0-.88-2.06A6.93,6.93,0,0,0,110.52,53a13,13,0,0,1-1.63-.44,4.19,4.19,0,0,1-1-.52,1.68,1.68,0,0,1-.55-.66,2.09,2.09,0,0,1-.15-.81A1.88,1.88,0,0,1,107.9,49a3,3,0,0,1,1.95-.59c.26,0,.52,0,.76,0a3.62,3.62,0,0,1,.67.14,3.44,3.44,0,0,1,.66.28c.2.12.44.26.7.44l.09.07a.88.88,0,0,0,.59.15,1.24,1.24,0,0,0,.55-.19,1.87,1.87,0,0,0,.37-.29L114,49l-.41-.2a3.89,3.89,0,0,1-.39-.28,6.07,6.07,0,0,0-.76-.47,4.11,4.11,0,0,0-.73-.29,4.25,4.25,0,0,0-.82-.16,10.14,10.14,0,0,0-1-.05,4.54,4.54,0,0,0-1.5.24,3.68,3.68,0,0,0-1.19.65,2.93,2.93,0,0,0-.77,1,2.7,2.7,0,0,0-.28,1.22,3.25,3.25,0,0,0,.22,1.25,2.55,2.55,0,0,0,.69.89,4.84,4.84,0,0,0,1.2.67,11.29,11.29,0,0,0,1.75.5,10.72,10.72,0,0,1,1.55.42,4,4,0,0,1,1,.51,1.63,1.63,0,0,1,.52.67,2.18,2.18,0,0,1,.14.79,2,2,0,0,1-.2.91,2.23,2.23,0,0,1-.58.69,2.6,2.6,0,0,1-.88.44,4,4,0,0,1-1.12.15,8.27,8.27,0,0,1-1.05-.06,3.57,3.57,0,0,1-.87-.21,3.81,3.81,0,0,1-.81-.4,6.21,6.21,0,0,1-.79-.59.24.24,0,0,1-.08-.06,1.86,1.86,0,0,0-.25-.16,2.25,2.25,0,0,0-.41-.21,2.21,2.21,0,0,0-.46-.11h-.16l.11.11a2.68,2.68,0,0,1,.26.37,1.39,1.39,0,0,1,.17.52.41.41,0,0,0,.17.3,7,7,0,0,0,1,.66,5.2,5.2,0,0,0,1,.43,5.53,5.53,0,0,0,1,.24,8.46,8.46,0,0,0,1.17.07,5.29,5.29,0,0,0,1.58-.23,3.77,3.77,0,0,0,1.23-.64A3,3,0,0,0,114,57.55Z" fill="#414042"/><path d="M125.06,47.7a.47.47,0,0,0-.35-.15H116a2.28,2.28,0,0,0,.13.36,1.38,1.38,0,0,0,.23.38.71.71,0,0,0,.39.21.22.22,0,0,0,.12,0H120V58.88a.51.51,0,0,0,.16.38.52.52,0,0,0,.76,0,.51.51,0,0,0,.16-.38V48.52h3.65a.5.5,0,0,0,.35-.14.45.45,0,0,0,.14-.34A.49.49,0,0,0,125.06,47.7Z" fill="#414042"/><path d="M137.29,55.76a6.38,6.38,0,0,0-.29-5.2,9.1,9.1,0,0,0-1.49-1.77c-.47-.48-.53-.54-.51-.66a.55.55,0,0,1,.36-.4l.46-.18h-3.95a5.77,5.77,0,0,0-5.44,3.68,6.37,6.37,0,0,0,0,4.55,5.93,5.93,0,0,0,7.81,3.16,5.71,5.71,0,0,0,3-3.18ZM133.8,58.1a4.69,4.69,0,0,1-1.91.39,4.54,4.54,0,0,1-1.93-.4A4.6,4.6,0,0,1,128.44,57a4.83,4.83,0,0,1-1-1.59,5.61,5.61,0,0,1,0-3.9,4.8,4.8,0,0,1,1-1.59,4.73,4.73,0,0,1,1.5-1.07,4.84,4.84,0,0,1,3.83,0A4.74,4.74,0,0,1,135.29,50a4.85,4.85,0,0,1,1,1.6,5.26,5.26,0,0,1,.36,1.94v0a5.17,5.17,0,0,1-.36,1.93,4.9,4.9,0,0,1-1,1.57A4.51,4.51,0,0,1,133.8,58.1Z" fill="#414042"/><path d="M150.66,59.26a.53.53,0,0,0,.76,0,.51.51,0,0,0,.16-.38V48.07a.53.53,0,0,0-.15-.37.54.54,0,0,0-.38-.15h-.15a.55.55,0,0,0-.52.29L146.3,54a.46.46,0,0,1-.35.21h0a.51.51,0,0,1-.35-.24l-.05-.09-4-6a.54.54,0,0,0-.2-.22.62.62,0,0,0-.31-.08h-1.53l.3.17a1.49,1.49,0,0,1,.36.31,1.24,1.24,0,0,1,.2.64V58.9a.5.5,0,0,0,.15.37.51.51,0,0,0,.72,0,.5.5,0,0,0,.16-.37V49.44l4.1,6.05a.56.56,0,0,0,.45.28.41.41,0,0,0,.23-.06,1.66,1.66,0,0,0,.23-.23l4.11-6v9.45A.55.55,0,0,0,150.66,59.26Z" fill="#414042"/><path d="M173.94,47.55a.79.79,0,0,0-.55.21,1.07,1.07,0,0,0-.31.46l-2.81,8.07-2.64-8.07a1.27,1.27,0,0,0-.3-.47.88.88,0,0,0-.57-.2h-.09a.77.77,0,0,0-.59.22,1.12,1.12,0,0,0-.28.46l-2.64,8.06-2.8-8a1.1,1.1,0,0,0-.32-.48.85.85,0,0,0-.61-.22H157.7v.27a.44.44,0,0,0,.26.42l.21.1a1.2,1.2,0,0,1,.25.2,1.07,1.07,0,0,1,.23.41l3.5,9.73a.93.93,0,0,0,.91.73h.1a.86.86,0,0,0,.58-.21,1.13,1.13,0,0,0,.33-.51l2.61-7.76,2.61,7.77a1.25,1.25,0,0,0,.33.49.8.8,0,0,0,.59.22h.09a.89.89,0,0,0,.59-.21,1.09,1.09,0,0,0,.32-.51L174.7,49a1.4,1.4,0,0,1,.23-.43,1.11,1.11,0,0,1,.26-.24.75.75,0,0,1,.2-.12.42.42,0,0,0,.26-.38v-.27Z" fill="#414042"/><path d="M187.17,50.57A5.73,5.73,0,0,0,185.9,49l0,0-.17-.11c-.12-.09-.24-.19-.37-.27h0l.06,0,.47-.18c.37-.13.45-.35.45-.51v-.27H182a5.71,5.71,0,0,0-2.39.49,5.83,5.83,0,0,0-1.85,1.3,5.68,5.68,0,0,0-1.2,1.9,6.16,6.16,0,0,0-.42,2.28,6,6,0,0,0,.42,2.25,5.63,5.63,0,0,0,1.19,1.88,5.55,5.55,0,0,0,1.85,1.29,6.07,6.07,0,0,0,4.78,0,5.69,5.69,0,0,0,1.86-1.29,6,6,0,0,0,1.2-1.9,6.17,6.17,0,0,0,.42-2.29A6.09,6.09,0,0,0,187.17,50.57Zm-1.12,2.92v0a4.69,4.69,0,0,1-.3,1.65,4.26,4.26,0,0,1-.83,1.34,4,4,0,0,1-1.27.89,4,4,0,0,1-4.52-.91,4.11,4.11,0,0,1-.84-1.34,4.62,4.62,0,0,1-.3-1.69,4.52,4.52,0,0,1,.3-1.65,4.11,4.11,0,0,1,.84-1.34,4,4,0,0,1,4.49-.89,4.17,4.17,0,0,1,1.28.9,4,4,0,0,1,.84,1.35A4.62,4.62,0,0,1,186.05,53.49Z" fill="#414042"/><path d="M199.39,49.34a5.77,5.77,0,0,0-4.24-1.79h-4.33v.27c0,.16.07.38.44.51l.47.18.07,0h0a5.68,5.68,0,0,0-1.79,2,6.12,6.12,0,0,0-.71,2.92,6.15,6.15,0,0,0,1.62,4.16,5.69,5.69,0,0,0,1.86,1.29,6.07,6.07,0,0,0,4.78,0,5.55,5.55,0,0,0,1.85-1.29,5.63,5.63,0,0,0,1.19-1.88,6.09,6.09,0,0,0,.43-2.28,5.93,5.93,0,0,0-.43-2.25A5.68,5.68,0,0,0,199.39,49.34Zm-.21,4.15a4.57,4.57,0,0,1-.3,1.66,4,4,0,0,1-2.13,2.25,4.16,4.16,0,0,1-3.23,0,3.94,3.94,0,0,1-1.26-.89,4.26,4.26,0,0,1-.83-1.34,4.48,4.48,0,0,1-.3-1.65v0a4.61,4.61,0,0,1,.3-1.66,4,4,0,0,1,2.12-2.25,4,4,0,0,1,1.61-.34,3.91,3.91,0,0,1,1.62.33,4,4,0,0,1,1.27.9,4.26,4.26,0,0,1,.83,1.34A4.56,4.56,0,0,1,199.18,53.49Z" fill="#414042"/><path d="M212.14,49.25a6.11,6.11,0,0,0-2-1.25,7,7,0,0,0-2.54-.45h-5.27v.27a.69.69,0,0,0,.28.61l.37.26a1.31,1.31,0,0,1,.31.27.53.53,0,0,1,.1.37v9.18a.92.92,0,0,0,.26.64.9.9,0,0,0,.64.28h3.31a7,7,0,0,0,2.54-.46,6.11,6.11,0,0,0,2-1.25,5.73,5.73,0,0,0,1.29-1.89,6.13,6.13,0,0,0,0-4.71A5.64,5.64,0,0,0,212.14,49.25ZM207.6,57.7h-1.81a1.15,1.15,0,0,1-.38-.05.16.16,0,0,1-.11-.08.43.43,0,0,1-.06-.19c0-.12,0-.26,0-.43V49.27h2.37a4.94,4.94,0,0,1,1.84.33,4,4,0,0,1,1.39.89,3.9,3.9,0,0,1,.88,1.34,4.5,4.5,0,0,1,.31,1.66v0a4.44,4.44,0,0,1-.31,1.65,3.92,3.92,0,0,1-.88,1.32,4.13,4.13,0,0,1-1.39.88A4.94,4.94,0,0,1,207.6,57.7Z" fill="#414042"/><path d="M229.58,47.76a1.06,1.06,0,0,0-.3.46l-2.81,8.07-2.65-8.07a1.06,1.06,0,0,0-.3-.47.86.86,0,0,0-.57-.2h-.09a.8.8,0,0,0-.59.22,1.23,1.23,0,0,0-.28.46l-2.64,8.06-2.8-8a1.17,1.17,0,0,0-.31-.48.89.89,0,0,0-.62-.22H213.9v.27a.44.44,0,0,0,.26.42l.2.1a1.2,1.2,0,0,1,.25.2,1,1,0,0,1,.23.41l3.51,9.73a.91.91,0,0,0,.9.73h.11a.84.84,0,0,0,.57-.21,1.06,1.06,0,0,0,.33-.51l2.61-7.76,2.61,7.77a1.25,1.25,0,0,0,.33.49.83.83,0,0,0,.59.22h.09a.87.87,0,0,0,.59-.21,1.19,1.19,0,0,0,.33-.51L230.9,49a1.08,1.08,0,0,1,.23-.43,1.1,1.1,0,0,1,.25-.24.94.94,0,0,1,.2-.12.4.4,0,0,0,.26-.38v-.27h-1.71A.81.81,0,0,0,229.58,47.76Z" fill="#414042"/><path d="M242.1,49v0l-.16-.11c-.12-.09-.24-.19-.37-.27h0l.07,0,.47-.18c.36-.13.44-.35.44-.51v-.27h-4.33a5.68,5.68,0,0,0-2.39.49,5.72,5.72,0,0,0-3.06,3.2,6.16,6.16,0,0,0-.42,2.28,6,6,0,0,0,.42,2.25,5.67,5.67,0,0,0,3,3.17,6.07,6.07,0,0,0,4.78,0,5.59,5.59,0,0,0,1.86-1.29,5.79,5.79,0,0,0,1.2-1.9,6.17,6.17,0,0,0,.42-2.29,6.09,6.09,0,0,0-.71-2.89A5.7,5.7,0,0,0,242.1,49Zm.14,4.53v0a4.48,4.48,0,0,1-.3,1.65,4.26,4.26,0,0,1-.83,1.34,3.88,3.88,0,0,1-1.27.89,4.16,4.16,0,0,1-3.23,0,4.08,4.08,0,0,1-1.28-.91,4.14,4.14,0,0,1-.85-1.34,4.62,4.62,0,0,1-.3-1.69,4.52,4.52,0,0,1,.3-1.65,4.11,4.11,0,0,1,.84-1.34,3.89,3.89,0,0,1,2.88-1.23,3.9,3.9,0,0,1,1.61.34,4.21,4.21,0,0,1,1.29.9,4.16,4.16,0,0,1,.84,1.35A4.61,4.61,0,0,1,242.24,53.49Z" fill="#414042"/><path d="M256.56,58.81a.63.63,0,0,1-.14-.09,2.33,2.33,0,0,1-.27-.24h0a3.61,3.61,0,0,1-.43-.5l-.47-.58-.45-.59-.53-.68-1.16-1.5a4.6,4.6,0,0,0,.83-.32,3.46,3.46,0,0,0,1-.72,3.05,3.05,0,0,0,.69-1,3.71,3.71,0,0,0,.24-1.39,3.47,3.47,0,0,0-.25-1.34,3.11,3.11,0,0,0-.7-1.06,3.92,3.92,0,0,0-1.44-.9,5.6,5.6,0,0,0-1.94-.31h-6v.27a.59.59,0,0,0,.26.52,2.22,2.22,0,0,1,.27.19,1.07,1.07,0,0,1,.23.3,1.25,1.25,0,0,1,.11.63v10h.9a.92.92,0,0,0,.66-.28.89.89,0,0,0,.27-.64V55h2.8l3.09,4a1.79,1.79,0,0,0,.32.3.88.88,0,0,0,.49.14h1.77v-.28A.4.4,0,0,0,256.56,58.81Zm-3.2-6.09a2.8,2.8,0,0,1-.83.41,3.61,3.61,0,0,1-1.08.15h-3.17v-4h3.18a3.16,3.16,0,0,1,2,.53,1.71,1.71,0,0,1,.64,1.45,1.77,1.77,0,0,1-.7,1.47Z" fill="#414042"/><path d="M268.13,58.12l-.16-.26-4.08-5,3.76-3.73a.83.83,0,0,0,.3-.65.91.91,0,0,0-.24-.62.89.89,0,0,0-1.33,0l-5.89,6V48.46a.92.92,0,0,0-.26-.64.89.89,0,0,0-.64-.27h-1.74v.27a.5.5,0,0,0,.27.46,2.09,2.09,0,0,1,.27.16.77.77,0,0,1,.22.22.91.91,0,0,1,.07.44V59.43h.91a.9.9,0,0,0,.64-.28.92.92,0,0,0,.26-.64V56.2l1.91-1.92a.26.26,0,0,1,.19-.1.19.19,0,0,1,.15.08L266.56,59a1,1,0,0,0,.27.27.82.82,0,0,0,.47.14.9.9,0,0,0,.64-.28.89.89,0,0,0,.27-.64.74.74,0,0,0-.08-.38Z" fill="#414042"/><path d="M271.42,47.55H269.7v.27a.51.51,0,0,0,.26.48l.27.16a.93.93,0,0,1,.22.19.65.65,0,0,1,.09.33v9.53a.92.92,0,0,0,.26.64.9.9,0,0,0,.65.28.92.92,0,0,0,.65-.28.87.87,0,0,0,.27-.64v-10a.89.89,0,0,0-.27-.64A.93.93,0,0,0,271.42,47.55Z" fill="#414042"/><path d="M283.22,47.82a.87.87,0,0,0-.25.63v7.61l-6.3-8a1.65,1.65,0,0,0-.33-.32,1,1,0,0,0-.55-.14h-1.71v.28a.54.54,0,0,0,.22.45l.23.16a1,1,0,0,1,.16.18.58.58,0,0,1,.06.32v9.55a.93.93,0,0,0,.25.64.89.89,0,0,0,.64.27.85.85,0,0,0,.63-.27.89.89,0,0,0,.25-.64V50.69L283,58.92a2.33,2.33,0,0,0,.34.31.91.91,0,0,0,.58.16.81.81,0,0,0,.62-.25.86.86,0,0,0,.24-.62V49a.71.71,0,0,1,.06-.38.55.55,0,0,1,.18-.19l.19-.13a.56.56,0,0,0,.24-.52v-.27h-1.56A.85.85,0,0,0,283.22,47.82Z" fill="#414042"/><path d="M292.87,52.84a.82.82,0,0,0-.82.84.83.83,0,0,0,.23.57.82.82,0,0,0,.59.25h2.67v2.3a5.42,5.42,0,0,1-1.22.66,4.74,4.74,0,0,1-3.36,0,3.83,3.83,0,0,1-1.27-.89,4,4,0,0,1-.81-1.35,5,5,0,0,1-.29-1.75,4.41,4.41,0,0,1,.3-1.63,4.19,4.19,0,0,1,.8-1.34,3.7,3.7,0,0,1,1.23-.9,3.64,3.64,0,0,1,1.56-.34,4.36,4.36,0,0,1,1.64.27,5,5,0,0,1,1.22.68l.16.12h0a1.36,1.36,0,0,0,.77.19,2.34,2.34,0,0,0,.69-.15,2.49,2.49,0,0,0,.66-.39l.36-.28-.42-.19-.35-.18a4.2,4.2,0,0,1-.38-.24l-.44-.3a6.42,6.42,0,0,0-1.7-.89,6.55,6.55,0,0,0-2.21-.33,5.54,5.54,0,0,0-2.36.49,5.66,5.66,0,0,0-1.81,1.3,5.8,5.8,0,0,0-1.18,1.9,6.36,6.36,0,0,0-.41,2.28,6.43,6.43,0,0,0,.41,2.3,5.61,5.61,0,0,0,1.16,1.87A5.36,5.36,0,0,0,290.17,59a6.12,6.12,0,0,0,2.43.47,6.35,6.35,0,0,0,2.32-.41,8.61,8.61,0,0,0,1.81-1,1.14,1.14,0,0,0,.55-1V54.56a.89.89,0,0,1,.35-.81l.27-.18a.5.5,0,0,0,.29-.46v-.27Z" fill="#414042"/><path d="M135.14.65a2.16,2.16,0,0,1,.65,1.56,2,2,0,0,1-.65,1.53,2.18,2.18,0,0,1-1.56.63H121.44V39.75a2.41,2.41,0,0,1-2.38,2.38,2.25,2.25,0,0,1-1.67-.71,2.29,2.29,0,0,1-.71-1.67V4.37H106.3a1.69,1.69,0,0,1-.51-.06,2.84,2.84,0,0,1-1.61-.91A5.05,5.05,0,0,1,103.27,2,12.69,12.69,0,0,1,102.79.6c-.12-.4-.25-.6-.4-.6h31.19A2.16,2.16,0,0,1,135.14.65Z" fill="#414042"/><path d="M181.49,12v.4a1.15,1.15,0,0,1-.29.88,2.3,2.3,0,0,1-.68.42,7.57,7.57,0,0,0-1.22.91A6.39,6.39,0,0,0,177.91,17a2,2,0,0,0-.08.22,1.09,1.09,0,0,1-.09.23l-8.11,22.45a2.81,2.81,0,0,1-2.72,2.22h-.17A2.7,2.7,0,0,1,164,39.86L158,22.06c-.11-.27-.21-.47-.28-.63a1.42,1.42,0,0,0-.23-.34c-.07-.11-.13-.17-.17-.17s-.09.06-.17.17a1.43,1.43,0,0,0-.22.34,3.15,3.15,0,0,0-.23.63l-6.13,17.8a2.7,2.7,0,0,1-2.72,2.22h-.11a2.86,2.86,0,0,1-2.78-2.22l-8.34-23.25a5.42,5.42,0,0,0-1.3-2,8.57,8.57,0,0,0-1.19-.85,3,3,0,0,1-.65-.42,1.08,1.08,0,0,1-.31-.88V12L138.9,12V12a2.56,2.56,0,0,1,2.15,2l6.81,20.3L154.72,14a2.48,2.48,0,0,1,2.5-2h.17a2.53,2.53,0,0,1,2.6,2l6.81,20.36L173.72,14a2.44,2.44,0,0,1,2.44-2Z" fill="#414042"/><path d="M207.12,14.46a14.33,14.33,0,0,1,4.68,5.39,15.33,15.33,0,0,1,1.67,7.09v.11a15.33,15.33,0,0,1-1.07,5.73,12.8,12.8,0,0,1-1.31,2.55,20,20,0,0,1-1.76,2.27A14.19,14.19,0,0,1,204.49,41a15.79,15.79,0,0,1-11.88,0,13.82,13.82,0,0,1-4.82-3.32,15.53,15.53,0,0,1-3.07-4.85,15.11,15.11,0,0,1-1.07-5.69v-.06a15.36,15.36,0,0,1,1.07-5.76,15.76,15.76,0,0,1,3.07-4.85,14.79,14.79,0,0,1,10.77-4.53h9.58a.67.67,0,0,1-.42.51,2.77,2.77,0,0,1-.88.22.81.81,0,0,0-.45.15.57.57,0,0,0-.29.39.71.71,0,0,0,.17.57A3.13,3.13,0,0,0,207.12,14.46Zm1.76,12.59a11.59,11.59,0,0,0-.76-4.2,10.82,10.82,0,0,0-2.19-3.51A10.54,10.54,0,0,0,202.59,17a10,10,0,0,0-4-.82,10.18,10.18,0,0,0-4.08.82,9.78,9.78,0,0,0-3.23,2.27,10.87,10.87,0,0,0-2.16,3.43,11.36,11.36,0,0,0-.79,4.26v.11a10.93,10.93,0,0,0,2.89,7.65,10.29,10.29,0,0,0,3.37,2.36,10.51,10.51,0,0,0,8.14,0,9.88,9.88,0,0,0,3.23-2.27,10.84,10.84,0,0,0,2.16-3.4,11.28,11.28,0,0,0,.79-4.28Z" fill="#414042"/><path d="M236,0a24.67,24.67,0,0,1,9.07,1.62A21.31,21.31,0,0,1,252.18,6a19.72,19.72,0,0,1,4.59,6.63A20.82,20.82,0,0,1,258.42,21v.11a20.82,20.82,0,0,1-1.65,8.28,19.91,19.91,0,0,1-4.59,6.7,21.21,21.21,0,0,1-7.09,4.45A24.88,24.88,0,0,1,236,42.13H223.71a2.16,2.16,0,0,1-1.64-.71,2.34,2.34,0,0,1-.68-1.67V5.61a3.1,3.1,0,0,0-.62-2.07,6.87,6.87,0,0,0-1.36-1.19c-.5-.32-.95-.63-1.37-.93A1.65,1.65,0,0,1,217.42,0H236Zm17.47,21.07a17.48,17.48,0,0,0-1.22-6.56,15.55,15.55,0,0,0-3.52-5.31,16.25,16.25,0,0,0-5.53-3.56A19.43,19.43,0,0,0,236,4.37h-9.87V34c0,.65,0,1.2.06,1.68a2.53,2.53,0,0,0,.37,1.19,1.83,1.83,0,0,0,.93.71,5.43,5.43,0,0,0,1.76.23H236a19.43,19.43,0,0,0,7.2-1.28A16.47,16.47,0,0,0,248.75,33a15.45,15.45,0,0,0,3.52-5.26,17.25,17.25,0,0,0,1.22-6.53Z" fill="#a97c50"/><path d="M270.62,13.75a.68.68,0,0,0,.17-.57.56.56,0,0,0-.28-.39.81.81,0,0,0-.45-.15,2.7,2.7,0,0,1-.88-.22.68.68,0,0,1-.43-.51h9.59a14.8,14.8,0,0,1,5.92,1.19,15,15,0,0,1,4.85,3.34,15.92,15.92,0,0,1,3.06,4.85,15.36,15.36,0,0,1,1.08,5.76v.06a15.12,15.12,0,0,1-1.08,5.69,15.68,15.68,0,0,1-3.06,4.85A13.92,13.92,0,0,1,284.29,41a15.17,15.17,0,0,1-6,1.16A15,15,0,0,1,272.41,41a14.33,14.33,0,0,1-4.85-3.37,21.21,21.21,0,0,1-1.76-2.27,12.76,12.76,0,0,1-1.3-2.55,15.13,15.13,0,0,1-1.08-5.73v-.11a15.45,15.45,0,0,1,1.67-7.09,14.51,14.51,0,0,1,4.68-5.39A3,3,0,0,0,270.62,13.75ZM268,27.11a11.28,11.28,0,0,0,.8,4.28,11,11,0,0,0,2.15,3.4,10.28,10.28,0,0,0,11.37,2.27,10.33,10.33,0,0,0,3.38-2.36,10.93,10.93,0,0,0,2.89-7.65v-.11a11.36,11.36,0,0,0-.79-4.26,10.87,10.87,0,0,0-2.16-3.43A9.88,9.88,0,0,0,282.42,17a10.18,10.18,0,0,0-4.08-.82,10,10,0,0,0-4,.82A10.58,10.58,0,0,0,271,19.34a11,11,0,0,0-2.18,3.51,11.59,11.59,0,0,0-.77,4.2Z" fill="#a97c50"/><path d="M333.24,12.31a.91.91,0,0,1-.43.76c-.28.21-.6.43-1,.65a4.74,4.74,0,0,0-1,.82,2,2,0,0,0-.42,1.34v28a18,18,0,0,1-1.08,6.52,14,14,0,0,1-3,4.76,13.36,13.36,0,0,1-5.26,3.21,21.4,21.4,0,0,1-6.9,1,24.91,24.91,0,0,1-7-1c-2.2-.63-2.84-5.54-4.89-6.73h0l.51.2a19.33,19.33,0,0,0,11.29,3.46,12,12,0,0,0,8.39-2.88q3.18-2.9,3.18-8.52V35.61a17.6,17.6,0,0,1-5.11,4.57A14.32,14.32,0,0,1,313.16,42a15.23,15.23,0,0,1-5.58-1.05,14.58,14.58,0,0,1-9.39-13.86v-.11a15,15,0,0,1,1.28-6.27,14.52,14.52,0,0,1,3.37-4.74,15.22,15.22,0,0,1,4.8-3,15,15,0,0,1,5.52-1.05,15.5,15.5,0,0,1,7.52,1.64,15.73,15.73,0,0,1,5,4.26V14.69A2.39,2.39,0,0,1,326.3,13a2.2,2.2,0,0,1,1.69-.7Zm-8.56,14.57a10.76,10.76,0,0,0-.91-4.45A10.35,10.35,0,0,0,321.33,19a11.17,11.17,0,0,0-3.54-2.15,12,12,0,0,0-4.29-.77,11.23,11.23,0,0,0-4.19.77A9.76,9.76,0,0,0,306,19a9.59,9.59,0,0,0-2.15,3.38,12.2,12.2,0,0,0-.77,4.42v.12a13.21,13.21,0,0,0,.71,4.39,9.49,9.49,0,0,0,2,3.43A9.38,9.38,0,0,0,309,37a10.09,10.09,0,0,0,4.05.8,12.26,12.26,0,0,0,4.37-.8,12,12,0,0,0,3.71-2.21,10.57,10.57,0,0,0,2.58-3.4,9.9,9.9,0,0,0,1-4.37Z" fill="#a97c50"/><path d="M343.78,17.12A3.4,3.4,0,0,0,342.36,20V20a4.22,4.22,0,0,0,.29,1.64,2.92,2.92,0,0,0,1,1.19c1,.83,3,1.54,6,2.15q4.94,1.07,7.2,3a6.92,6.92,0,0,1,2.44,5.54v.06a7.75,7.75,0,0,1-2.95,6.28,9.53,9.53,0,0,1-3.23,1.73,13.43,13.43,0,0,1-4,.59,21.3,21.3,0,0,1-3-.2,14,14,0,0,1-2.55-.61,14.62,14.62,0,0,1-2.41-1.12,16.41,16.41,0,0,1-2.41-1.69,1.88,1.88,0,0,1-.85-1.65,2,2,0,0,1,2.09-2.1,1.86,1.86,0,0,1,1.37.51,17.57,17.57,0,0,0,1.81,1.33,9.64,9.64,0,0,0,1.76.88,8.44,8.44,0,0,0,1.95.48,16.93,16.93,0,0,0,2.36.14,7,7,0,0,0,4.25-1.24A3.81,3.81,0,0,0,355,33.86v0a3.75,3.75,0,0,0-.31-1.62A3.42,3.42,0,0,0,353.7,31,15.28,15.28,0,0,0,348,28.94q-5.16-1.08-7.43-3a6.84,6.84,0,0,1-2.5-5.71v-.06a7.43,7.43,0,0,1,2.84-5.94,9.54,9.54,0,0,1,3.17-1.73,12.52,12.52,0,0,1,3.86-.59,16.58,16.58,0,0,1,4.68.55,12.76,12.76,0,0,1,3.83,2,3.72,3.72,0,0,0,.85.57,5.55,5.55,0,0,0,.88.43,5.41,5.41,0,0,0,.93.32l.91.17-.57.67s-.09.16-.28.36a5.59,5.59,0,0,1-.74.64,6,6,0,0,1-1.08.61,3.37,3.37,0,0,1-1.36.28,3.55,3.55,0,0,1-1.81-.5c-.08-.08-.13-.11-.17-.11a13.9,13.9,0,0,0-1.59-1A6.64,6.64,0,0,0,351,16.3a8,8,0,0,0-1.44-.28,15,15,0,0,0-1.73-.09A6.13,6.13,0,0,0,343.78,17.12Z" fill="#a97c50"/><path d="M63.69,21a46.7,46.7,0,0,0-2-6.55L61,12.86l-.74-1.58c-.24-.54-.5-1-.75-1.5L59.16,9,59,8.68l-.27-.47A14.54,14.54,0,0,0,53,3,24.94,24.94,0,0,0,46.13.71a41.24,41.24,0,0,0-7-.69A58.12,58.12,0,0,0,32.3.26c-2.28.22-4.52.52-6.8,1l-.87.19-.47.11-.64.19A5.28,5.28,0,0,0,22,2.6a4.89,4.89,0,0,0-1.17,1.45A7.41,7.41,0,0,0,20,6.54c-.1.67-.15,1.25-.2,1.78a16.84,16.84,0,0,1-1.26,5.56,3.83,3.83,0,0,1-1.21,1.27A12.51,12.51,0,0,1,15,16.41a31.77,31.77,0,0,1-5.79,1.73,57.62,57.62,0,0,1-6.17,1L0,19.41l.71,2.87,1.84,7.51A21.8,21.8,0,0,0,6,37.65a11.1,11.1,0,0,0,3.62,3.08,14.87,14.87,0,0,0,4.22,1.41,70.14,70.14,0,0,0,7.86.81c1.28.09,2.53.2,3.78.34A18.76,18.76,0,0,1,29,44a17.61,17.61,0,0,1,6.37,3.32,26.75,26.75,0,0,1,5.08,5.47,34.48,34.48,0,0,1,3.69,6.69A25.24,25.24,0,0,0,43,55.72a29.17,29.17,0,0,0-1.61-3.56,26.17,26.17,0,0,0-4.69-6.39,20.13,20.13,0,0,0-6.81-4.46,15.6,15.6,0,0,0-2-.64c-.68-.18-1.36-.33-2-.45-1.29-.25-2.59-.48-3.86-.69-2.56-.44-5.13-.76-7.4-1.33a11,11,0,0,1-3-1.19,6.9,6.9,0,0,1-2.07-2,18.77,18.77,0,0,1-2.31-6.32L6.39,24c1.31-.16,2.6-.34,3.91-.59a37.85,37.85,0,0,0,6.85-1.93,17.09,17.09,0,0,0,3.45-1.85,8.94,8.94,0,0,0,3.11-3.61c.19-.44.49-1.18.68-1.76s.36-1.24.5-1.86a25.66,25.66,0,0,0,.5-3.6c.05-.55.1-1.07.15-1.49,0-.19.06-.35.09-.47l.25-.07.74-.16c2-.43,4.13-.76,6.23-1a49.33,49.33,0,0,1,12.44,0c4,.58,7.82,2,9.82,4.88l.17.24.21.35.43.71c.28.47.57.94.81,1.39l.74,1.36.7,1.42a45.68,45.68,0,0,1,2.36,5.86A36.23,36.23,0,0,1,61.92,28a26,26,0,0,1,.13,6.29,11.33,11.33,0,0,1-.72,3A13.14,13.14,0,0,1,59.8,40a23.15,23.15,0,0,1-4.46,4.72,21.27,21.27,0,0,0,5.28-4.06,15.21,15.21,0,0,0,2.05-2.76,11.52,11.52,0,0,0,1.26-3.29A31.23,31.23,0,0,0,63.69,21Z" fill="#414042" fill-rule="evenodd"/><path d="M26,17.33a3,3,0,0,0,.17,1,9.33,9.33,0,0,1,5.6,0,2.71,2.71,0,0,0,.17-1,3,3,0,0,0-5.94,0Z" fill="#414042" fill-rule="evenodd"/><path d="M107.6,19.1a58,58,0,0,1-6.17-1,32,32,0,0,1-5.79-1.73,12.84,12.84,0,0,1-2.34-1.26,3.77,3.77,0,0,1-1.2-1.27,16.6,16.6,0,0,1-1.27-5.56c0-.53-.1-1.11-.2-1.78a7.41,7.41,0,0,0-.75-2.49A4.89,4.89,0,0,0,88.71,2.6a5.28,5.28,0,0,0-1.56-.89l-.64-.19L86,1.41l-.87-.19c-2.28-.44-4.52-.74-6.8-1A58.12,58.12,0,0,0,71.5,0a41.34,41.34,0,0,0-7,.69A24.94,24.94,0,0,0,57.64,3,14.54,14.54,0,0,0,52,8.21l-.27.47L51.51,9l-.38.74c-.25.49-.51,1-.75,1.5l-.74,1.58L49,14.45A45.37,45.37,0,0,0,47,21a31.08,31.08,0,0,0-.25,13.64A11.82,11.82,0,0,0,48,37.93a15.21,15.21,0,0,0,2,2.76,21.14,21.14,0,0,0,5.29,4.06A23.2,23.2,0,0,1,50.87,40a13.14,13.14,0,0,1-1.53-2.76,11.33,11.33,0,0,1-.72-3A26,26,0,0,1,48.75,28a37.21,37.21,0,0,1,1.39-6.17A44.33,44.33,0,0,1,52.51,16l.69-1.42L54,13.2c.23-.45.52-.92.81-1.39l.42-.71.21-.35.17-.24c2-2.89,5.85-4.3,9.82-4.88a49.41,49.41,0,0,1,12.45,0c2.09.24,4.2.57,6.22,1l.74.16.25.07c0,.12.06.28.09.47.06.42.1.94.15,1.49a29,29,0,0,0,.5,3.6c.14.62.31,1.25.51,1.86s.48,1.32.67,1.76a9,9,0,0,0,3.11,3.61,17.09,17.09,0,0,0,3.45,1.85,38.08,38.08,0,0,0,6.85,1.93c1.31.25,2.6.43,3.91.59l-1,4.63A19,19,0,0,1,101,35a6.9,6.9,0,0,1-2.07,2,11,11,0,0,1-3,1.19c-2.27.57-4.84.89-7.4,1.33-1.27.21-2.57.44-3.85.69-.61.12-1.29.27-2,.45a15.23,15.23,0,0,0-2,.64,20.13,20.13,0,0,0-6.81,4.46,25.88,25.88,0,0,0-4.68,6.39,29.23,29.23,0,0,0-1.62,3.56,25.24,25.24,0,0,0-1.14,3.71,34.48,34.48,0,0,1,3.69-6.69,27,27,0,0,1,5.08-5.47A17.61,17.61,0,0,1,81.63,44a18.76,18.76,0,0,1,3.55-.66c1.25-.14,2.5-.25,3.78-.34a70.14,70.14,0,0,0,7.86-.81A14.87,14.87,0,0,0,101,40.73a11.1,11.1,0,0,0,3.62-3.08,21.8,21.8,0,0,0,3.46-7.86L110,22.28l.7-2.87Z" fill="#a97c50" fill-rule="evenodd"/><path d="M84.52,18.28a3,3,0,1,0-5.6,0,9.33,9.33,0,0,1,5.6,0Z" fill="#a97c50" fill-rule="evenodd"/></svg>