<svg xmlns="http://www.w3.org/2000/svg" width="250" viewBox="0 0 776.12 291.58"><title>stork-logo</title><path d="M277,121.69a96.06,96.06,0,0,1,69.08-29.31c25.7,0,50.21,10.44,68.68,29.31,18.47,18.47,28.52,43.78,28.52,70.29,0,26.9-10.05,51.81-28.52,70.28-18.47,18.88-42.57,29.32-68.68,29.32A96,96,0,0,1,277,262.26a100.89,100.89,0,0,1,0-140.57Zm68.68,142.58c38.16,0,69.08-31.73,69.08-72.29s-31.33-72.7-69.08-72.7S277,151.81,277,192,307.5,264.27,345.66,264.27Z" fill="#a57fb9"/><path d="M460.94,192c0-60.64,24.89-89.57,84.74-94.38v26.9c-39.76,4.43-55,23.69-55,65.07v96.79H460.94Z" fill="#a57fb9"/><path d="M556.93,0H585V182.34L650.91,99.6h33.73L623.2,175.5c43.37,14.87,66.26,48.2,66.26,96.4,0,4.81-.4,9.64-.8,14.46H661a113.38,113.38,0,0,0,.4-11.65c0-49.4-26.91-77.51-76.31-79.92v91.57H556.93Z" fill="#a57fb9"/><path d="M116.48,94.85c-29.3-4-56.81,14.46-60.95,44.79-1.81,13.29,2.55,26.31,11.22,36.51,8,10.12,20.1,15.59,31.5,21,17.71,7.62,33.25,19.18,30.18,41.67-2.51,18.4-18.88,29-36.95,26.55a34.06,34.06,0,0,1-26.76-20.72L50.5,269.71A56.77,56.77,0,0,0,85.79,289.2c34.76,4.75,63.62-15.95,68.41-51.06,4.61-33.72-16.89-49.93-43.63-62.6C94.92,168.19,78.24,161.48,81,141a26.14,26.14,0,0,1,29.44-22.37,37.69,37.69,0,0,1,6.37,1.45L122.32,96A51.14,51.14,0,0,0,116.48,94.85Z" fill="#a57fb9"/><path d="M168.54,185.15V55h27.72v45.39h53.81v25.3H196.26V192c0,42.57,17.26,65.06,53.81,70.28v28.52C187.82,278.73,168.54,249.41,168.54,185.15Z" fill="#a57fb9"/><path d="M6.65,68.81H0V62.48H19.71v6.33H13.16V94.86H6.65Z" fill="#a57fb9"/><path d="M23.54,62.48H30.1V75.87h9.19V62.48h6.52V94.86H39.29V82H30.1V94.86H23.54Z" fill="#a57fb9"/><path d="M52.09,62.48h15v6.15H59v7.15h8.11V82H59V88.3h8.11v6.56h-15Z" fill="#a57fb9"/><path d="M727.41,258.57a14.17,14.17,0,0,0-21.68-.09,17,17,0,0,0-4.4,11.66A17.59,17.59,0,0,0,705.66,282a14.24,14.24,0,0,0,21.71.09,18.2,18.2,0,0,0,0-23.5Zm-1.51,11.7a11.11,11.11,0,0,1-2.71,7.52,8.27,8.27,0,0,1-6.6,3.09,8.09,8.09,0,0,1-6.09-2.57,11.76,11.76,0,0,1-3-6.51,8.66,8.66,0,0,1-.18-1.44l.19-1.6a13,13,0,0,1,1.27-4.09,9.29,9.29,0,0,1,2.48-3,8.12,8.12,0,0,1,5.41-2,8.32,8.32,0,0,1,6.64,3.15A11.07,11.07,0,0,1,725.9,270.27Z" fill="#a57fb9"/><path d="M733.93,254.12v6.5h6.81v25.75H747V260.62h6.81v-6.5Z" fill="#a57fb9"/><path d="M770.13,259.77a8.24,8.24,0,0,1,2.27.32,12.07,12.07,0,0,1,2.31,1l1.41.75v-7l-.61-.24a12.9,12.9,0,0,0-4.79-1,15.08,15.08,0,0,0-8.26,2.32,15.92,15.92,0,0,0-5.71,6.63,16.89,16.89,0,0,0-1.68,7.49,17.49,17.49,0,0,0,4.27,11.82,13.78,13.78,0,0,0,10.83,5,11.15,11.15,0,0,0,2.73-.33,17.42,17.42,0,0,0,2.6-.89l.58-.25v-7.1l-1.46.91a9.73,9.73,0,0,1-2.23,1,7.61,7.61,0,0,1-2.22.36,8.1,8.1,0,0,1-6.45-3,11.41,11.41,0,0,1,0-14.66A8,8,0,0,1,770.13,259.77Z" fill="#a57fb9"/><path d="M737,88.23a18.63,18.63,0,0,0,0-14.46,18.3,18.3,0,0,0-4-5.87,19.61,19.61,0,0,0-5.92-4,18.56,18.56,0,0,0-14.48,0,19.22,19.22,0,0,0-5.87,3.94,18.85,18.85,0,0,0-3.94,5.88,18.63,18.63,0,0,0,0,14.46,19.44,19.44,0,0,0,3.94,5.93,18.44,18.44,0,0,0,20.35,4,19.3,19.3,0,0,0,5.92-4A18.79,18.79,0,0,0,737,88.23Zm-10.79,8a16.5,16.5,0,0,1-12.79,0,16.39,16.39,0,0,1-5.19-3.56,17.31,17.31,0,0,1-3.5-5.24,16.49,16.49,0,0,1,3.51-18,16.32,16.32,0,0,1,5.18-3.51A16.36,16.36,0,0,1,735,74.64,16.1,16.1,0,0,1,736.24,81a16.46,16.46,0,0,1-4.79,11.7A16.21,16.21,0,0,1,726.21,96.22Z" fill="#a57fb9"/><path d="M725.53,72.12a8,8,0,0,0-2.69-.78,24.71,24.71,0,0,0-3.1-.21h-7.27V90.76h3.58V83h3.06a7.09,7.09,0,0,1,3.75.71,3,3,0,0,1,1.38,2.09,9.73,9.73,0,0,1,.12,2.65,6,6,0,0,0,.35,2.36h3.48a6.9,6.9,0,0,1-.36-2.2,25.48,25.48,0,0,0-.11-2.6,4.82,4.82,0,0,0-.64-2.12,4.72,4.72,0,0,0-2.35-1.7l-1.32-.56,1.36-.48a6,6,0,0,0,2.52-1.6,4.34,4.34,0,0,0,.85-2.88,4.58,4.58,0,0,0-2.61-4.5ZM724.09,79a3.8,3.8,0,0,1-1.35,1,4.7,4.7,0,0,1-1.77.42c-.6,0-1.15.05-1.64.05h-3.28v-7h3.48a11.3,11.3,0,0,1,3.19.49,2.76,2.76,0,0,1,2,3A3.07,3.07,0,0,1,724.09,79Z" fill="#a57fb9"/></svg>