<svg xmlns="http://www.w3.org/2000/svg" width="350" viewBox="0 0 576 109.42"><title>louruscitto-logo</title><polygon points="52.3 97.13 60.83 97.13 60.83 94.46 52.3 94.46 52.3 90.03 61.93 90.03 61.93 87.36 49.3 87.36 49.3 104.38 62.05 104.38 62.05 101.7 52.3 101.7 52.3 97.13" fill="#1b75bc"/><polygon points="73.45 87.36 70.46 87.36 70.46 104.38 82.4 104.38 82.4 101.66 73.45 101.66 73.45 87.36" fill="#1b75bc"/><polygon points="93.36 97.13 101.9 97.13 101.9 94.46 93.36 94.46 93.36 90.03 103 90.03 103 87.36 90.37 87.36 90.37 104.38 103.12 104.38 103.12 101.7 93.36 101.7 93.36 97.13" fill="#1b75bc"/><path d="M235.09,191.22a5.76,5.76,0,0,1-5.61-6.06v0a5.72,5.72,0,0,1,5.61-6,6.75,6.75,0,0,1,4.77,2.12l1.92-2.22a8.89,8.89,0,0,0-6.66-2.65,8.62,8.62,0,0,0-8.78,8.81v.05A8.57,8.57,0,0,0,235,194a8.76,8.76,0,0,0,6.9-3L240,189A6.68,6.68,0,0,1,235.09,191.22Z" transform="translate(-115.56 -89.29)" fill="#1b75bc"/><polygon points="133.12 90.13 138.52 90.13 138.52 104.38 141.54 104.38 141.54 90.13 146.94 90.13 146.94 87.36 133.12 87.36 133.12 90.13" fill="#1b75bc"/><path d="M284.44,182.07v0a5.15,5.15,0,0,0-1.42-3.67,6.84,6.84,0,0,0-4.91-1.7h-7.59v17h3v-5.93h3.75l4.18,5.93H285l-4.6-6.44A5.12,5.12,0,0,0,284.44,182.07Zm-10.93,3v-5.72h4.36c2.21,0,3.52,1,3.52,2.82v.05c0,1.73-1.36,2.85-3.5,2.85Z" transform="translate(-115.56 -89.29)" fill="#1b75bc"/><rect x="177.57" y="87.36" width="2.99" height="17.03" fill="#1b75bc"/><path d="M313.54,191.22a5.76,5.76,0,0,1-5.62-6.06v0a5.72,5.72,0,0,1,5.62-6,6.79,6.79,0,0,1,4.77,2.12l1.92-2.22a8.91,8.91,0,0,0-6.67-2.65,8.62,8.62,0,0,0-8.78,8.81v.05a8.57,8.57,0,0,0,8.66,8.75,8.78,8.78,0,0,0,6.91-3L318.43,189A6.7,6.7,0,0,1,313.54,191.22Z" transform="translate(-115.56 -89.29)" fill="#1b75bc"/><path d="M334.38,176.53l-7.49,17.14H330l1.75-4.11h8.05l1.73,4.11h3.16l-7.49-17.14Zm-1.58,10.38,2.92-6.81,2.94,6.81Z" transform="translate(-115.56 -89.29)" fill="#1b75bc"/><polygon points="239.85 87.36 236.86 87.36 236.86 104.38 248.8 104.38 248.8 101.66 239.85 101.66 239.85 87.36" fill="#1b75bc"/><path d="M396.27,183.8c-3.26-.78-4-1.36-4-2.68v-.05c0-1.12,1-2,2.78-2a7.78,7.78,0,0,1,4.62,1.75l1.6-2.26a9.47,9.47,0,0,0-6.18-2.14c-3.38,0-5.81,2-5.81,4.94v0c0,3.14,2,4.21,5.67,5.08,3.16.73,3.84,1.39,3.84,2.61v0c0,1.28-1.17,2.13-3,2.13a7.84,7.84,0,0,1-5.37-2.21l-1.8,2.14a10.46,10.46,0,0,0,7.1,2.73c3.58,0,6.08-1.9,6.08-5.09v-.05C401.74,186,399.87,184.67,396.27,183.8Z" transform="translate(-115.56 -89.29)" fill="#1b75bc"/><polygon points="297.56 97.13 306.1 97.13 306.1 94.46 297.56 94.46 297.56 90.03 307.19 90.03 307.19 87.36 294.56 87.36 294.56 104.38 307.31 104.38 307.31 101.7 297.56 101.7 297.56 97.13" fill="#1b75bc"/><path d="M445.2,182.07v0a5.14,5.14,0,0,0-1.41-3.67,6.89,6.89,0,0,0-4.92-1.7h-7.59v17h3v-5.93H438l4.18,5.93h3.53l-4.6-6.44A5.11,5.11,0,0,0,445.2,182.07Zm-10.92,3v-5.72h4.35c2.21,0,3.53,1,3.53,2.82v.05c0,1.73-1.37,2.85-3.51,2.85Z" transform="translate(-115.56 -89.29)" fill="#1b75bc"/><polygon points="344.66 100.44 339.53 87.36 336.22 87.36 343.3 104.5 345.92 104.5 353 87.36 349.77 87.36 344.66 100.44" fill="#1b75bc"/><rect x="360.95" y="87.36" width="2.99" height="17.03" fill="#1b75bc"/><path d="M496.92,191.22a5.76,5.76,0,0,1-5.62-6.06v0a5.72,5.72,0,0,1,5.62-6,6.74,6.74,0,0,1,4.76,2.12L503.6,179a8.89,8.89,0,0,0-6.66-2.65,8.62,8.62,0,0,0-8.78,8.81v.05a8.57,8.57,0,0,0,8.66,8.75,8.78,8.78,0,0,0,6.91-3L501.8,189A6.67,6.67,0,0,1,496.92,191.22Z" transform="translate(-115.56 -89.29)" fill="#1b75bc"/><polygon points="399.15 97.13 407.69 97.13 407.69 94.46 399.15 94.46 399.15 90.03 408.78 90.03 408.78 87.36 396.16 87.36 396.16 104.38 408.9 104.38 408.9 101.7 399.15 101.7 399.15 97.13" fill="#1b75bc"/><path d="M539.44,183.8c-3.25-.78-4-1.36-4-2.68v-.05c0-1.12,1-2,2.77-2a7.73,7.73,0,0,1,4.62,1.75l1.61-2.26a9.48,9.48,0,0,0-6.18-2.14c-3.38,0-5.81,2-5.81,4.94v0c0,3.14,2,4.21,5.66,5.08,3.16.73,3.84,1.39,3.84,2.61v0c0,1.28-1.16,2.13-3,2.13a7.8,7.8,0,0,1-5.37-2.21l-1.81,2.14a10.48,10.48,0,0,0,7.11,2.73c3.57,0,6.08-1.9,6.08-5.09v-.05C544.92,186,543,184.67,539.44,183.8Z" transform="translate(-115.56 -89.29)" fill="#1b75bc"/><path d="M553.48,193.67h1.77c.17,1.77-.83,2.85-3,3.27l.45,1.77c3.51-.28,5.35-1.91,5.35-5.77v-4h-4.62Z" transform="translate(-115.56 -89.29)" fill="#1b75bc"/><polygon points="474.39 87.36 471.4 87.36 471.4 104.38 483.34 104.38 483.34 101.66 474.39 101.66 474.39 87.36" fill="#1b75bc"/><polygon points="494.31 87.36 491.31 87.36 491.31 104.38 503.26 104.38 503.26 101.66 494.31 101.66 494.31 87.36" fill="#1b75bc"/><path d="M633.82,191.22a5.76,5.76,0,0,1-5.61-6.06v0a5.71,5.71,0,0,1,5.61-6,6.75,6.75,0,0,1,4.77,2.12l1.92-2.22a8.89,8.89,0,0,0-6.66-2.65,8.62,8.62,0,0,0-8.78,8.81v.05a8.57,8.57,0,0,0,8.66,8.75,8.76,8.76,0,0,0,6.9-3L638.71,189A6.68,6.68,0,0,1,633.82,191.22Z" transform="translate(-115.56 -89.29)" fill="#1b75bc"/><polygon points="47.46 31.74 36.37 31.74 36.37 71.79 66.86 71.79 66.86 62.06 47.46 62.06 47.46 31.74" fill="#1b75bc"/><path d="M229.51,140.94c0-11.5-9.15-20.71-21.51-20.71s-21.63,9.33-21.63,20.82v.12c0,11.5,9.16,20.71,21.51,20.71s21.63-9.33,21.63-20.83Zm-11.33.23c0,5.78-4.06,10.7-10.18,10.7s-10.24-5-10.24-10.82v-.11c0-5.78,4.06-10.7,10.12-10.7s10.3,5,10.3,10.81Z" transform="translate(-115.56 -89.29)" fill="#1b75bc"/><path d="M274.94,121H263.66v22.54c0,5.61-2.91,8.24-7.38,8.24s-7.38-2.75-7.38-8.52V121H237.64v22.48c0,12.53,7.15,18.31,18.53,18.31s18.77-5.66,18.77-18.59Z" transform="translate(-115.56 -89.29)" fill="#1b75bc"/><path d="M343.29,161.08l-9.56-14c5-2.12,8.24-6.18,8.24-12.3v-.11a12.41,12.41,0,0,0-3.55-9.33c-2.68-2.75-6.92-4.35-13-4.35H306.45v40.05h11.09V149h4.87l8.06,12.13Zm-18.42-20.83h-7.33v-9.61h7.27c3.72,0,6,1.6,6,4.75v.12C330.82,138.42,328.64,140.25,324.87,140.25Z" transform="translate(-115.56 -89.29)" fill="#1b75bc"/><path d="M376,143.57c0,5.61-2.92,8.24-7.39,8.24s-7.37-2.75-7.37-8.52V121H349.93v22.48c0,12.53,7.15,18.31,18.53,18.31s18.77-5.66,18.77-18.59V121H376Z" transform="translate(-115.56 -89.29)" fill="#1b75bc"/><path d="M413.66,136.13c-5.55-1.25-6.92-2-6.92-3.89v-.11c0-1.43,1.31-2.57,4-2.57A20.14,20.14,0,0,1,422,133.5l5.54-7.83c-4.35-3.49-9.67-5.32-16.47-5.32-9.61,0-15.51,5.37-15.51,12.81v.12c0,8.23,6.58,10.64,15.11,12.58,5.43,1.26,6.75,2.17,6.75,3.83v.12c0,1.71-1.6,2.74-4.58,2.74a20.58,20.58,0,0,1-13-4.8l-6.18,7.38c4.92,4.4,11.67,6.63,18.76,6.63,9.73,0,16.19-4.86,16.19-13v-.11C428.59,141.11,422.87,138.14,413.66,136.13Z" transform="translate(-115.56 -89.29)" fill="#1b75bc"/><path d="M456.46,151.75c-5.61,0-9.56-4.69-9.56-10.7v-.11c0-5.83,4-10.58,9.56-10.58,3.83,0,6.46,1.83,8.75,4.69l8.35-6.47c-3.55-4.92-8.81-8.35-17-8.35-12.13,0-21.11,9.15-21.11,20.82v.12a20.33,20.33,0,0,0,20.65,20.71c8.87,0,14-3.83,17.74-9l-8.36-6C463.09,149.81,460.63,151.75,456.46,151.75Z" transform="translate(-115.56 -89.29)" fill="#1b75bc"/><path d="M618.88,89.29H560.63V101H581c-2.08,3.37-10.49,15.56-24.91,19.4a35.66,35.66,0,0,1-12.61,1,59.37,59.37,0,0,1-9.06-5.9h15.22v-11.6H502.26v11.6H518a39.78,39.78,0,0,1-10,9.37A21.62,21.62,0,0,1,492.88,121l0,.06V121H481.69v40.05h11.15V130.34a18.9,18.9,0,0,0,4.54.58,19.32,19.32,0,0,0,2.14-.12,23.37,23.37,0,0,0,9.25-3.24,39.56,39.56,0,0,0,10.9-3v36.49h12.58V121.63A48,48,0,0,0,542.71,124a38.64,38.64,0,0,0,17.54,4.51,33.19,33.19,0,0,0,6.87-.72,39.69,39.69,0,0,0,16.28-8v41.24h12.72v-55.2c1.46-2.16,2.47-3.91,3-4.9h19.75ZM499.22,128.12a16,16,0,0,1-6.38-.57v-3.32a23.51,23.51,0,0,0,9.32,3.3A18.22,18.22,0,0,1,499.22,128.12Zm20.45-6.55a43,43,0,0,1-5.53,2.06,43.88,43.88,0,0,0,5.53-5.88Zm12.58-2.81v-1.55h0q1.85,1.46,3.68,2.73C534.71,119.6,533.49,119.21,532.25,118.76Zm51.15-2.49a38.06,38.06,0,0,1-16.86,8.9,31.62,31.62,0,0,1-16.55-1,37.31,37.31,0,0,0,6.8-1.15c15.69-4.17,24.47-17.18,26.61-20.71Z" transform="translate(-115.56 -89.29)" fill="#1b75bc"/><path d="M659.07,140.94c0-11.5-9.15-20.71-21.51-20.71s-21.63,9.33-21.63,20.82v.12c0,11.5,9.16,20.71,21.52,20.71s21.62-9.33,21.62-20.83Zm-11.33.23c0,5.78-4.06,10.7-10.18,10.7s-10.24-5-10.24-10.82v-.11c0-5.78,4.06-10.7,10.13-10.7s10.29,5,10.29,10.81Z" transform="translate(-115.56 -89.29)" fill="#1b75bc"/><polygon points="521.94 0 521.94 12.35 563.65 12.35 563.65 92.02 543.51 92.02 543.51 104.37 576 104.37 576 0 521.94 0" fill="#1b75bc"/><polygon points="0 104.37 36.37 104.37 36.37 92.02 12.35 92.02 12.35 12.35 358.28 12.35 358.28 0 0 0 0 104.37" fill="#1b75bc"/></svg>