<svg xmlns="http://www.w3.org/2000/svg" width="300" viewBox="0 0 715.7 207.32"><title>ysu-logo</title><path d="M287.3,10.9h-113a.43.43,0,0,0-.4.4L173.8,64a.43.43,0,0,0,.4.4H181a.39.39,0,0,1,.2.7c-8.3,7.2-13,11.1-17.2,14.8a.45.45,0,0,1-.5,0c-4.2-3.7-8.7-7.7-16.9-14.9a.4.4,0,0,1,.2-.7H158a.43.43,0,0,0,.4-.4l-.1-52.7a.43.43,0,0,0-.4-.4L.4,11c-.2,0-.4.1-.4.3L.1,64a.43.43,0,0,0,.4.4H30.9c.1,0,.2,0,.2.1,5.5,4.8,71.9,62.4,78.4,68.1a.37.37,0,0,1,.1.3v6a.43.43,0,0,1-.4.4H82.1a.43.43,0,0,0-.4.4v56.5a.43.43,0,0,0,.4.4H214.7a.43.43,0,0,0,.4-.4V139.7a.43.43,0,0,0-.4-.4c-2.6,0-18.9,0-26.4-.1a.43.43,0,0,1-.4-.4v-7.2a.37.37,0,0,1,.1-.3c6.6-5.7,72.6-62.3,78.2-67,.1-.1.1-.1.2-.1h30a.43.43,0,0,0,.4-.4V11.1a.43.43,0,0,0-.4-.4Z" fill-rule="evenodd"/><path d="M9.8,55H34.5c.1,0,.1,0,.1.1l84.5,73.4a.35.35,0,0,1,.1.2v20.1a.22.22,0,0,1-.2.2H91.6a.22.22,0,0,0-.2.2v37.9a.22.22,0,0,0,.2.2H205.5a.22.22,0,0,0,.2-.2V149.2a.22.22,0,0,0-.2-.2l-26.7-.1a.22.22,0,0,1-.2-.2V127.5c0-.1,0-.1.1-.2L262.8,55l.1-.1h24.2a.22.22,0,0,0,.2-.2V20.6a.22.22,0,0,0-.2-.2H183.6a.22.22,0,0,0-.2.2l-.1,34.1a.22.22,0,0,0,.2.2H207a.21.21,0,0,1,.1.4L163.8,92.5a.19.19,0,0,1-.3,0L121.2,55.2a.21.21,0,0,1,.1-.4h27.3a.22.22,0,0,0,.2-.2l-.1-34a.22.22,0,0,0-.2-.2H9.6a.22.22,0,0,0-.2.2l.1,34.1Q9.65,55,9.8,55Z" fill="#fff" fill-rule="evenodd"/><path d="M188.5,25.6v24c0,.1,0,.1.1.1h32.5c.1,0,.2.1.1.2L163.8,99.2h-.2L107.5,50c-.1-.1,0-.2.1-.2h36.1a.1.1,0,0,0,.1-.1c0-6.1,0-17.9-.1-24,0-.1,0-.1-.1-.1H14.7a.1.1,0,0,0-.1.1c0,6.1,0,17.9.1,24a.1.1,0,0,0,.1.1H36.3c.1,0,.2,0,.2.1l87.7,76.2v27.8a.1.1,0,0,1-.1.1H96.5c-.1,0-.1,0-.1.1v27.8c0,.1,0,.1.1.1H200.4a.1.1,0,0,0,.1-.1V154c0-.1,0-.1-.1-.1-6.5,0-25.2-.1-26.9-.1a.1.1,0,0,1-.1-.1V124.8l87.5-75h21.2a.1.1,0,0,0,.1-.1v-24c0-.1,0-.1-.1-.1H188.6C188.6,25.5,188.5,25.6,188.5,25.6Z" fill="#b81237" fill-rule="evenodd"/><line x1="318.8" x2="318.8" y2="206.8" fill="none" stroke="#000" stroke-miterlimit="10" stroke-width="3"/><path d="M351.3,64.2V47.6L339.2,23.7h9.9l3.9,9.7c1.2,2.9,2,5.1,3,7.7h.1c.9-2.5,1.8-4.9,2.9-7.7l3.9-9.7h9.8L360,47.3V64.2Z"/><path d="M409.3,43.5c0,13.3-7.6,21.3-18.9,21.3s-18.1-9.1-18.1-20.6c0-12.1,7.4-21.2,18.7-21.2C402.9,23.1,409.3,32.4,409.3,43.5Zm-27.8.6c0,7.9,3.5,13.5,9.4,13.5s9.2-5.9,9.2-13.7c0-7.3-3.3-13.5-9.3-13.5C385,30.3,381.5,36.2,381.5,44.1Z"/><path d="M423.7,23.7V47c0,7,2.5,10.5,7,10.5s7.1-3.4,7.1-10.5V23.7h8.7V46.4c0,12.5-6,18.4-16,18.4-9.7,0-15.4-5.6-15.4-18.6V23.7Z"/><path d="M453.9,64.2V23.7h10.2l8,14.8a115.94,115.94,0,0,1,6.3,13.9h.2a150.7,150.7,0,0,1-.7-16.9V23.7h8V64.2h-9.1l-8.2-15.6a144.81,144.81,0,0,1-6.7-14.3l-.2.1c.2,5.3.3,11,.3,17.6V64.2Z"/><path d="M525.4,62.3a40.21,40.21,0,0,1-12.8,2.3c-7,0-12.1-1.9-15.6-5.5s-5.5-8.8-5.4-14.7c.1-13.4,9.4-21.1,22-21.1,5,0,8.8,1,10.7,2l-1.8,7.3a19.85,19.85,0,0,0-9-1.7c-7.2,0-12.7,4.3-12.7,13.1,0,8.3,5,13.3,12.1,13.3a10.54,10.54,0,0,0,4.3-.6V48.2h-5.9V41h14.3V62.3Z"/><path d="M532.4,54.8a20.55,20.55,0,0,0,9.6,2.5c4,0,6.1-1.7,6.1-4.4,0-2.5-1.8-4-6.4-5.7-6.4-2.3-10.6-6.1-10.6-11.9,0-6.9,5.5-12.2,14.5-12.2a24,24,0,0,1,9.8,2l-1.9,7.4a17.21,17.21,0,0,0-8-1.9c-3.8,0-5.6,1.8-5.6,3.9,0,2.6,2.2,3.7,7.1,5.7,6.8,2.6,10,6.4,10,12.1,0,6.8-5,12.6-15.5,12.6a25,25,0,0,1-10.9-2.5Z"/><path d="M570.4,31.4H560V23.7h29.5v7.7H579V64.2h-8.7V31.4Z"/><path d="M627.7,43.5c0,13.3-7.6,21.3-18.9,21.3s-18.1-9.1-18.1-20.6c0-12.1,7.4-21.2,18.7-21.2C621.3,23.1,627.7,32.4,627.7,43.5Zm-27.7.6c0,7.9,3.5,13.5,9.4,13.5s9.2-5.9,9.2-13.7c0-7.3-3.3-13.5-9.3-13.5S600,36.2,600,44.1Z"/><path d="M639.2,64.2l-9.1-40.5h9.3l2.9,16.6c.9,4.9,1.7,10.1,2.3,14.2h.1c.6-4.4,1.5-9.2,2.5-14.2l3.3-16.6h9.2l3.1,17c.9,4.7,1.5,9.1,2.1,13.6h.1c.6-4.5,1.4-9.2,2.2-14l3.1-16.6h8.8l-9.9,40.5h-9.4l-3.3-17.4c-.7-4.1-1.4-7.9-1.8-12.5h-.1c-.7,4.6-1.3,8.4-2.2,12.5l-3.6,17.4Z"/><path d="M683.7,64.2V23.7h10.2l8,14.8a115.94,115.94,0,0,1,6.3,13.9h.2a150.7,150.7,0,0,1-.7-16.9V23.7h8V64.2h-9.1l-8.2-15.6a144.81,144.81,0,0,1-6.7-14.3l-.2.1c.2,5.3.3,11,.3,17.6V64.2Z"/><path d="M342.7,112.7a20.55,20.55,0,0,0,9.6,2.5c4,0,6.1-1.7,6.1-4.4,0-2.5-1.8-4-6.4-5.7-6.4-2.3-10.6-6.1-10.6-11.9,0-6.9,5.5-12.2,14.5-12.2a24,24,0,0,1,9.8,2l-1.9,7.4a17.21,17.21,0,0,0-8-1.9c-3.7,0-5.6,1.8-5.6,3.9,0,2.6,2.2,3.7,7.1,5.7,6.8,2.6,10,6.4,10,12.1,0,6.8-5,12.6-15.5,12.6a25,25,0,0,1-10.9-2.5Z"/><path d="M380.6,89.4H370.3V81.7h29.5v7.7H389.3v32.8h-8.7Z"/><path d="M409.3,111.8l-2.7,10.4h-9l11.7-40.5h11.4l11.9,40.5h-9.4l-3-10.4Zm9.8-6.9-2.4-8.6c-.7-2.4-1.4-5.4-1.9-7.8h-.1c-.6,2.4-1.1,5.5-1.8,7.8l-2.3,8.6Z"/><path d="M440.5,89.4H430.2V81.7h29.5v7.7H449.2v32.8h-8.7Z"/><path d="M487.2,105.1H473v9.6h15.8v7.5H464.3V81.7H488v7.5H473v8.4h14.1v7.5Z"/><path d="M351.1,139.6v23.3c0,7,2.5,10.5,7,10.5s7.1-3.4,7.1-10.5V139.6h8.7v22.7c0,12.5-6,18.4-16,18.4-9.7,0-15.4-5.6-15.4-18.5V139.6Z"/><path d="M381.3,180.1V139.6h10.2l8,14.8a115.94,115.94,0,0,1,6.3,13.9h.2a150.7,150.7,0,0,1-.7-16.9V139.6h8v40.5H404l-8.2-15.6a144.81,144.81,0,0,1-6.7-14.3l-.2.1c.2,5.3.3,11,.3,17.7v12.2h-7.9Z"/><path d="M429.4,139.6v40.5h-8.7V139.6Z"/><path d="M446,180.1l-12.3-40.5h9.5l4.7,17.1c1.3,4.8,2.5,9.4,3.4,14.5h.2c1-4.9,2.2-9.7,3.5-14.3l4.9-17.3h9.2l-12.9,40.5Z"/><path d="M496.1,163H482v9.6h15.8v7.5H473.3V139.6H497v7.5H482v8.4h14.1Z"/><path d="M503.6,140.2a71.56,71.56,0,0,1,11.6-.8c5.7,0,9.7.9,12.4,3.2,2.3,1.9,3.5,4.7,3.5,8.5a10.77,10.77,0,0,1-6.8,10v.2c2.7,1.1,4.2,3.8,5.1,7.6,1.2,4.6,2.4,9.8,3.1,11.4h-8.9a61.81,61.81,0,0,1-2.7-9.4c-1-5-2.7-6.4-6.2-6.5h-2.6v15.9h-8.6V140.2Zm8.6,17.4h3.4c4.3,0,6.9-2.3,6.9-5.8,0-3.7-2.4-5.6-6.4-5.6a21.86,21.86,0,0,0-3.9.3Z"/><path d="M537.7,170.7a20.55,20.55,0,0,0,9.6,2.5c4,0,6.1-1.7,6.1-4.4,0-2.5-1.8-4-6.4-5.7-6.4-2.3-10.6-6.1-10.6-11.9,0-6.9,5.5-12.2,14.5-12.2a24,24,0,0,1,9.8,2l-1.9,7.4a17.21,17.21,0,0,0-8-1.9c-3.8,0-5.6,1.8-5.6,3.9,0,2.6,2.2,3.7,7.1,5.7,6.8,2.6,10,6.4,10,12.1,0,6.8-5,12.6-15.5,12.6a25,25,0,0,1-10.9-2.5Z"/><path d="M577,139.6v40.5h-8.7V139.6Z"/><path d="M591.9,147.3H581.6v-7.7h29.5v7.7H600.6v32.8h-8.7Z"/><path d="M625,180.1V163.5l-12.1-23.9h9.9l3.9,9.7c1.2,2.9,2,5.1,3,7.7h.1c.9-2.5,1.8-4.9,2.9-7.7l3.9-9.7h9.8l-12.7,23.6v16.9Z"/><rect x="189.3" y="197" width="10.2" height="10.2" fill="#fff" stroke="#000" stroke-miterlimit="10" stroke-width="0.25"/></svg>