<svg xmlns="http://www.w3.org/2000/svg" width="300" viewBox="0 0 511.37 127.76"><title>treatspace-logo</title><circle cx="63.88" cy="63.88" r="58.38" fill="none" stroke="#3c9" stroke-miterlimit="10" stroke-width="11"/><path d="M173.18,43.94,171,55.7h9.19l-1.85,9.64h-9.2L166.19,80a31.4,31.4,0,0,0-.7,5.48c0,2.12.88,3.63,3.62,3.63a23.33,23.33,0,0,0,3.54-.18l-1.51,10a25,25,0,0,1-7.51,1c-7.61,0-11.23-4-11.23-9.37a42.4,42.4,0,0,1,.88-8l3.36-17.16h-5.48l1.77-9.64h5.57l1.59-8.13Z" transform="translate(-0.04 -9.23)" fill="#3c9"/><path d="M175.12,98.94,180,73.21c1.23-6.54,1.77-13.79,2.21-17.51h11.05c-.27,2.92-.53,5.84-.8,8.85h.27c3-5.75,7.87-9.82,13.79-9.82a21.22,21.22,0,0,1,2.39.09L206.42,67.2c-.62,0-1.32-.09-2-.09-8.13,0-11.94,7.25-13.53,15.74l-3,16.09Z" transform="translate(-0.04 -9.23)" fill="#3c9"/><path d="M239.59,96.47c-5.05,2.56-11.32,3.45-16.1,3.45-12.38,0-18.74-7.08-18.74-18.31,0-13.17,9.55-26.88,25.2-26.88,8.75,0,15,4.86,15,12.91,0,11-10.7,15-28,14.59a8.48,8.48,0,0,0,1.33,4.42C220,88.86,222.87,90,226.59,90a27.16,27.16,0,0,0,12.11-2.74ZM233,67.64c0-2.12-1.77-3.62-4.68-3.62-5.93,0-9.29,4.86-10.17,8.93,9.9.09,14.85-1.33,14.85-5.22Z" transform="translate(-0.04 -9.23)" fill="#3c9"/><path d="M271.6,98.94c.08-2.56.35-5.48.62-8.58H272c-4,7.17-9.46,9.56-14.5,9.56-7.78,0-13.09-6-13.09-15,0-14.59,9.64-30.15,30.95-30.15a51.4,51.4,0,0,1,14.32,2.13L285,79.49a103.51,103.51,0,0,0-1.68,19.45Zm3.71-34.22a20.39,20.39,0,0,0-3.45-.35c-8.22,0-14.23,10.08-14.23,18.13,0,4.24,1.68,7.16,5.22,7.16,3.8,0,8.48-4.33,10.43-14.94Z" transform="translate(-0.04 -9.23)" fill="#3c9"/><path d="M312.54,43.94,310.33,55.7h9.19l-1.86,9.64h-9.19L305.55,80a31.45,31.45,0,0,0-.71,5.48c0,2.12.89,3.63,3.63,3.63A23.33,23.33,0,0,0,312,89l-1.51,10a25,25,0,0,1-7.51,1c-7.61,0-11.23-4-11.23-9.37a42.4,42.4,0,0,1,.88-8L296,65.34h-5.48l1.77-9.64h5.57l1.59-8.13Z" transform="translate(-0.04 -9.23)" fill="#3c9"/><path d="M316.07,87.54a28.39,28.39,0,0,0,11.32,3c3.63,0,5.48-1.77,5.48-3.89s-1.41-3.62-5.4-5.57c-5-2.47-9.19-6.1-9.19-11.49,0-8.94,7.87-14.86,19-14.86,5,0,9,1,11.14,2.21l-3,9A20.29,20.29,0,0,0,336.76,64c-3.36,0-5.66,1.51-5.66,3.81,0,1.77,1.77,3.27,5.31,5,4.69,2.39,9.64,5.84,9.64,11.85,0,9.9-8.4,15.39-19.81,15.3-5.48-.18-10.7-1.51-13.26-3.45Z" transform="translate(-0.04 -9.23)" fill="#3c9"/><path d="M343.4,116.45l8.31-44c1-5.13,2-12.65,2.56-17.07h11.41l-.8,6.63h.18a17.5,17.5,0,0,1,13.88-7.25c9.37,0,13.88,7.52,13.88,16.36,0,15-10,28.82-25,28.82a17.29,17.29,0,0,1-8.05-1.76h-.17L356,116.45Zm18.12-28.29a8.3,8.3,0,0,0,5.84,2.12c6.81,0,12.11-9.73,12.11-18.22,0-3.45-1.41-7.07-5.57-7.07-4.77,0-9.19,5.39-10.79,13.88Z" transform="translate(-0.04 -9.23)" fill="#3c9"/><path d="M420.42,98.94c.08-2.56.35-5.48.61-8.58h-.26c-4,7.17-9.46,9.56-14.51,9.56-7.77,0-13.08-6-13.08-15,0-14.59,9.64-30.15,30.95-30.15a51.52,51.52,0,0,1,14.32,2.13l-4.6,22.63a104.36,104.36,0,0,0-1.68,19.45Zm3.71-34.22a20.39,20.39,0,0,0-3.45-.35c-8.22,0-14.23,10.08-14.23,18.13,0,4.24,1.68,7.16,5.21,7.16,3.81,0,8.49-4.33,10.44-14.94Z" transform="translate(-0.04 -9.23)" fill="#3c9"/><path d="M468.61,97.62a29.89,29.89,0,0,1-12.29,2.3c-10.7,0-18.22-6.55-18.22-17.78,0-15.38,11.76-27.41,28.21-27.41a25.91,25.91,0,0,1,8.75,1.42L472,66a14.59,14.59,0,0,0-5.83-1.06c-9.11,0-14.68,7.69-14.68,15.83,0,5.92,3.71,8.93,8.49,8.93a21.86,21.86,0,0,0,8.57-1.77Z" transform="translate(-0.04 -9.23)" fill="#3c9"/><path d="M506,96.47c-5,2.56-11.31,3.45-16.09,3.45-12.38,0-18.75-7.08-18.75-18.31,0-13.17,9.55-26.88,25.2-26.88,8.76,0,15,4.86,15,12.91,0,11-10.7,15-28,14.59a8.56,8.56,0,0,0,1.32,4.42C486.38,88.86,489.3,90,493,90a27.21,27.21,0,0,0,12.12-2.74Zm-6.54-28.83c0-2.12-1.77-3.62-4.69-3.62-5.92,0-9.28,4.86-10.17,8.93,9.9.09,14.86-1.33,14.86-5.22v-.09Z" transform="translate(-0.04 -9.23)" fill="#3c9"/><polyline points="7.04 68.64 45.95 68.64 50.7 61.15 55.59 77.28 64 36.38 73.67 85.93 79.01 66.34 82.76 72.67 119 72.64" fill="none" stroke="#3c9" stroke-miterlimit="10" stroke-width="8"/></svg>