<svg xmlns="http://www.w3.org/2000/svg" width="350" viewBox="0 0 432 73.02"><title>bollinger-logo</title><path d="M197.3,313.32q-5.93,6.07-17.1,6.08t-17.09-6.08q-7.94-7.47-7.93-21.52,0-14.34,7.93-21.52,5.91-6.09,17.09-6.09t17.1,6.09q7.89,7.19,7.89,21.52,0,14.06-7.89,21.52m-6.82-7.93q3.81-4.78,3.81-13.59t-3.81-13.57a12.42,12.42,0,0,0-10.28-4.8,12.57,12.57,0,0,0-10.33,4.78Q166,283,166,291.8t3.86,13.59a12.6,12.6,0,0,0,10.33,4.78,12.45,12.45,0,0,0,10.28-4.78" transform="translate(-90 -264.19)" fill="#2d2a26"/><polygon points="123.5 1.59 134.4 1.59 134.4 44.38 160.45 44.38 160.45 53.76 123.5 53.76 123.5 1.59" fill="#2d2a26"/><polygon points="167.78 1.59 178.68 1.59 178.68 44.38 204.72 44.38 204.72 53.76 167.78 53.76 167.78 1.59" fill="#2d2a26"/><rect x="211.16" y="1.59" width="10.83" height="52.16" fill="#2d2a26"/><polygon points="232.01 1.59 243.44 1.59 264.14 37.97 264.14 1.59 274.3 1.59 274.3 53.76 263.4 53.76 242.17 16.75 242.17 53.76 232.01 53.76 232.01 1.59" fill="#2d2a26"/><path d="M409.6,282.07a10.2,10.2,0,0,0-6.05-7.47,14.84,14.84,0,0,0-6-1.17,13,13,0,0,0-10.35,4.75q-4.07,4.76-4.05,14.29t4.38,13.6a14.43,14.43,0,0,0,10,4,12.92,12.92,0,0,0,9-3.15,13.56,13.56,0,0,0,4.32-8.25H398.77V290H420.5v28h-7.22l-1.1-6.51a24.73,24.73,0,0,1-5.66,5.21,19.92,19.92,0,0,1-10.62,2.65,22.07,22.07,0,0,1-17-7.18q-6.9-7.22-6.9-19.74t7-20.3q7-7.63,18.44-7.64,9.94,0,16,5.05a18.71,18.71,0,0,1,6.92,12.58Z" transform="translate(-90 -264.19)" fill="#2d2a26"/><polygon points="379.48 10.83 351.88 10.83 351.88 21.91 377.22 21.91 377.22 30.97 351.88 30.97 351.88 44.38 380.75 44.38 380.75 53.76 341.22 53.76 341.22 1.59 379.48 1.59 379.48 10.83" fill="#2d2a26"/><path d="M512.68,267.13a12.84,12.84,0,0,1,4.88,3.65,16,16,0,0,1,2.62,4.38,14.56,14.56,0,0,1,1,5.49,15.64,15.64,0,0,1-1.87,7.31,10.54,10.54,0,0,1-6.2,5.08,9.74,9.74,0,0,1,5.12,4.12q1.5,2.67,1.5,8.16v3.5a26.45,26.45,0,0,0,.29,4.85,4.34,4.34,0,0,0,2,3V318H510c-.33-1.15-.57-2.09-.71-2.79a25.71,25.71,0,0,1-.46-4.5l-.07-4.85c-.05-3.32-.62-5.54-1.73-6.65s-3.17-1.66-6.21-1.66H490.15V318H479.5V265.79h24.95a22.86,22.86,0,0,1,8.23,1.34m-22.53,7.72v14h11.73a12.39,12.39,0,0,0,5.24-.85q3.09-1.49,3.09-5.87c0-3.16-1-5.29-3-6.37a10.72,10.72,0,0,0-5-.92Z" transform="translate(-90 -264.19)" fill="#2d2a26"/><polygon points="240.08 62.62 240.08 73.02 238.68 73.02 238.68 62.62 232.2 62.62 232.2 61.36 246.58 61.36 246.58 62.62 240.08 62.62" fill="#2d2a26"/><path d="M341.06,337.21a2.53,2.53,0,0,1-2.67-2.38v-6.91a2.53,2.53,0,0,1,2.67-2.37h12.4v1.26h-12.4a1.2,1.2,0,0,0-1.27,1.11v2.83h11V332h-11v2.83a1.21,1.21,0,0,0,1.27,1.13h12.4v1.25Z" transform="translate(-90 -264.19)" fill="#2d2a26"/><path d="M369,337.21h-10.7a2.53,2.53,0,0,1-2.67-2.38v-6.91a2.53,2.53,0,0,1,2.67-2.37H369a2.77,2.77,0,0,1,2.32,1.19l-1.22.62a1.3,1.3,0,0,0-1.1-.55h-10.7a1.19,1.19,0,0,0-1.26,1.11v6.91a1.2,1.2,0,0,0,1.26,1.13H369a1.31,1.31,0,0,0,1.1-.56l1.22.62a2.75,2.75,0,0,1-2.32,1.19" transform="translate(-90 -264.19)" fill="#2d2a26"/><polygon points="297.55 73.02 297.55 67.81 284.58 67.81 284.58 73.02 283.17 73.02 283.17 61.36 284.58 61.36 284.58 66.55 297.55 66.55 297.55 61.36 298.95 61.36 298.95 73.02 297.55 73.02" fill="#2d2a26"/><path d="M410.66,337.21H399.94a2.75,2.75,0,0,1-2.3-1.19l1.23-.62a1.29,1.29,0,0,0,1.07.56h10.72a1.2,1.2,0,0,0,1.26-1.13v-1.7a1.2,1.2,0,0,0-1.26-1.13H400.22a2.53,2.53,0,0,1-2.67-2.37v-1.71a2.53,2.53,0,0,1,2.67-2.37h10.7a2.77,2.77,0,0,1,2.32,1.19l-1.22.62a1.3,1.3,0,0,0-1.1-.55h-10.7a1.19,1.19,0,0,0-1.26,1.11v1.71a1.19,1.19,0,0,0,1.26,1.12h10.44a2.55,2.55,0,0,1,2.67,2.38v1.7a2.54,2.54,0,0,1-2.67,2.38" transform="translate(-90 -264.19)" fill="#2d2a26"/><path d="M418.2,337.21a2.53,2.53,0,0,1-2.67-2.38v-6.91a2.53,2.53,0,0,1,2.67-2.37h12.4v1.26H418.2a1.19,1.19,0,0,0-1.26,1.11v2.83h11V332h-11v2.83A1.2,1.2,0,0,0,418.2,336h12.4v1.25Z" transform="translate(-90 -264.19)" fill="#2d2a26"/><path d="M447.24,333.11c-.28.12-.64.22-.86.3a2,2,0,0,1,.33.28,2.13,2.13,0,0,1,.51.75l1.12,2.77h-1.48l-1-2.35a2.1,2.1,0,0,0-.84-.95,2.29,2.29,0,0,0-1.17-.39H434.2v3.69h-1.41v-9.29a2.53,2.53,0,0,1,2.67-2.37H445.9a2.54,2.54,0,0,1,2.67,2.37v3.23a2.19,2.19,0,0,1-1.33,2m-.07-5.19a1.21,1.21,0,0,0-1.27-1.11H435.46a1.2,1.2,0,0,0-1.26,1.11v4.34h11.7a1.2,1.2,0,0,0,1.27-1.11Z" transform="translate(-90 -264.19)" fill="#2d2a26"/><path d="M462,335a3.58,3.58,0,0,1-1.32,1.54,3.71,3.71,0,0,1-2,.63h-1.08a3.69,3.69,0,0,1-2-.63,3.45,3.45,0,0,1-1.32-1.54l-3.88-9.49h1.5l3.7,9.07a2,2,0,0,0,.84.94,2.22,2.22,0,0,0,1.17.4h1.08a2.28,2.28,0,0,0,1.17-.4,2.15,2.15,0,0,0,.84-.94l3.69-9.07h1.5Z" transform="translate(-90 -264.19)" fill="#2d2a26"/><rect x="377.72" y="61.36" width="1.41" height="11.66" fill="#2d2a26"/><path d="M484.69,337.21H474a2.53,2.53,0,0,1-2.68-2.38v-6.91a2.53,2.53,0,0,1,2.68-2.37h10.69a2.8,2.8,0,0,1,2.33,1.19l-1.23.62a1.3,1.3,0,0,0-1.1-.55H474a1.2,1.2,0,0,0-1.27,1.11v6.91A1.21,1.21,0,0,0,474,336h10.69a1.31,1.31,0,0,0,1.1-.56L487,336a2.78,2.78,0,0,1-2.33,1.19" transform="translate(-90 -264.19)" fill="#2d2a26"/><path d="M491.51,337.21a2.53,2.53,0,0,1-2.67-2.38v-6.91a2.53,2.53,0,0,1,2.67-2.37h12.41v1.26H491.51a1.2,1.2,0,0,0-1.26,1.11v2.83H501.3V332H490.25v2.83a1.21,1.21,0,0,0,1.26,1.13h12.41v1.25Z" transform="translate(-90 -264.19)" fill="#2d2a26"/><path d="M519.22,337.21H508.5a2.75,2.75,0,0,1-2.3-1.19l1.22-.62a1.33,1.33,0,0,0,1.08.56h10.72a1.2,1.2,0,0,0,1.26-1.13v-1.7a1.2,1.2,0,0,0-1.26-1.13H508.78a2.53,2.53,0,0,1-2.67-2.37v-1.71a2.53,2.53,0,0,1,2.67-2.37h10.7a2.77,2.77,0,0,1,2.32,1.19l-1.22.62a1.3,1.3,0,0,0-1.1-.55h-10.7a1.19,1.19,0,0,0-1.26,1.11v1.71a1.19,1.19,0,0,0,1.26,1.12h10.44a2.54,2.54,0,0,1,2.67,2.38v1.7a2.54,2.54,0,0,1-2.67,2.38" transform="translate(-90 -264.19)" fill="#2d2a26"/><path d="M306.55,325.67A5.77,5.77,0,0,0,301,330H92.91V303.77h12V318h23.51a35.59,35.59,0,0,0,7.37-.71,14.34,14.34,0,0,0,9.59-6.72,15.24,15.24,0,0,0,2.32-8.32,13.84,13.84,0,0,0-2-7.64,11.67,11.67,0,0,0-6-4.6,12.63,12.63,0,0,0,4-3,11.64,11.64,0,0,0,2.42-7.68,13.27,13.27,0,0,0-2.4-8q-4-5.41-13.52-5.55H105v14.1H90v53H301a5.77,5.77,0,1,0,5.58-7.21ZM130.89,296.55a5.77,5.77,0,1,1-5.58,7.22H105v-2.89h20.35A5.77,5.77,0,0,1,130.89,296.55ZM118,279.89a5.77,5.77,0,1,1,0,2.88H105v-2.88Zm-25.12,2.88h12v18.11h-12Z" transform="translate(-90 -264.19)" fill="#007cba"/></svg>