<svg xmlns="http://www.w3.org/2000/svg" width="330" viewBox="0 0 255.88 37.26"><title>psych logo</title><path d="M9.15,5a.63.63,0,0,0-.36.26.86.86,0,0,0-.1.42c0,.2,0,.39,0,.58V8.12a2.5,2.5,0,0,1-.44.25,6.82,6.82,0,0,1-.83.36A9.09,9.09,0,0,1,6.31,9a6.11,6.11,0,0,1-1.2.12A6.91,6.91,0,0,1,3,8.86,4.36,4.36,0,0,1,1.41,8a4,4,0,0,1-1-1.45A5.16,5.16,0,0,1,.08,4.59a5,5,0,0,1,.06-.72A4.35,4.35,0,0,1,.36,3,5,5,0,0,1,.79,2.1a4.81,4.81,0,0,1,.71-.88A4.52,4.52,0,0,1,3,.28,5.56,5.56,0,0,1,5.1-.08,5.9,5.9,0,0,1,6.43.06a6.28,6.28,0,0,1,1,.28A4,4,0,0,1,8,.63a1,1,0,0,0,.24.13A.53.53,0,0,0,8.37.61L8.65.25h.11V3H8.61A4.56,4.56,0,0,0,8.2,1.91a3.61,3.61,0,0,0-.59-.82,2.79,2.79,0,0,0-1-.69A3.53,3.53,0,0,0,5.19.14,3,3,0,0,0,3.7.51a3.4,3.4,0,0,0-1.12,1,4.8,4.8,0,0,0-.72,1.43,5.91,5.91,0,0,0-.25,1.69,6.18,6.18,0,0,0,.24,1.78,4.06,4.06,0,0,0,.69,1.38,3,3,0,0,0,1.1.9A3.35,3.35,0,0,0,5.12,9a2.94,2.94,0,0,0,1.12-.21,1.69,1.69,0,0,0,.82-.67,1.42,1.42,0,0,0,.15-.57,6,6,0,0,0,0-.85,6.21,6.21,0,0,0,0-.79A1,1,0,0,0,7,5.32a1.5,1.5,0,0,0-1-.38V4.81H9.61v.13A2.26,2.26,0,0,0,9.15,5Z" transform="translate(-0.06 0.08)" fill="#5e5f5f"/><path d="M17.66,9.1H10V9a2.16,2.16,0,0,0,.58-.16A1.1,1.1,0,0,0,11,8.5a.41.41,0,0,0,.1-.22A2.72,2.72,0,0,0,11.2,8c0-.13,0-.26.05-.39s0-.28,0-.41V6.67c0-.2,0-.41,0-.65V1.66q0-.24,0-.45a2,2,0,0,0-.06-.38.54.54,0,0,0-.12-.24.82.82,0,0,0-.4-.26c-.14,0-.32-.07-.55-.11V.1H17l.85,2.06-.12.06a6.29,6.29,0,0,0-1.9-1.7,3.59,3.59,0,0,0-.79-.17,10.92,10.92,0,0,0-1.4-.08l-.55,0c-.18,0-.32,0-.4.05s0,.41,0,.82,0,.9,0,1.45V3.94c0,.14,0,.25,0,.32V4.4h.68l.49,0,.4-.06a2.3,2.3,0,0,0,.63-.24,1.27,1.27,0,0,0,.4-.36,1.62,1.62,0,0,0,.25-.49,4.54,4.54,0,0,0,.17-.64h.15V6.51h-.15a4.32,4.32,0,0,0-.3-.82A2.14,2.14,0,0,0,15,5.05a1.81,1.81,0,0,0-.49-.29,2.32,2.32,0,0,0-.65-.14H12.67a3.56,3.56,0,0,0,0,.51V7c0,.12,0,.23,0,.31,0,.27,0,.52,0,.76a1.15,1.15,0,0,0,.15.53.79.79,0,0,0,.53.25,5.49,5.49,0,0,0,.93.07h.54l.7-.06a2.8,2.8,0,0,0,.73-.2,2.33,2.33,0,0,0,.65-.4,4.27,4.27,0,0,0,.61-.65,7.72,7.72,0,0,0,.61-.92l.13,0Z" transform="translate(-0.06 0.08)" fill="#5e5f5f"/><path d="M28.05.46a1.12,1.12,0,0,0-.43.54,1.9,1.9,0,0,0-.11.69c0,.34,0,.7-.05,1.08s0,.79-.05,1.27,0,1,0,1.57v.8c0,.29,0,.59,0,.9s0,.6,0,.9V9a.11.11,0,0,1,0,.09.12.12,0,0,1-.09,0A.31.31,0,0,1,27.06,9L25.12,6.76,23.45,4.81C22.92,4.18,22.4,3.58,21.89,3s-1-1.21-1.61-1.84V6.42c0,.43,0,.81,0,1.15a2.13,2.13,0,0,0,.16.77.9.9,0,0,0,.43.43,2.72,2.72,0,0,0,.81.2V9.1H18.63V9a2.2,2.2,0,0,0,.6-.15,1,1,0,0,0,.48-.4,1.72,1.72,0,0,0,.22-.77c0-.34.06-.75.08-1.23s0-.78,0-1.26,0-1,0-1.57V2.06c0-.17,0-.37,0-.61a1.37,1.37,0,0,0-.17-.59,1.08,1.08,0,0,0-.33-.37,1.2,1.2,0,0,0-.4-.18L18.72.22V.1h2.54L27.18,7V2.77c0-.33,0-.65,0-.95a2.47,2.47,0,0,0-.11-.72,1.19,1.19,0,0,0-.45-.57,2.15,2.15,0,0,0-.92-.31V.1h3.1V.22A2.22,2.22,0,0,0,28.05.46Z" transform="translate(-0.06 0.08)" fill="#5e5f5f"/><path d="M37.18,9.1H29.53V9a2.16,2.16,0,0,0,.58-.16,1.1,1.1,0,0,0,.44-.31.41.41,0,0,0,.1-.22A2.72,2.72,0,0,0,30.72,8c0-.13,0-.26.05-.39s0-.28,0-.41V6.67c0-.2,0-.41,0-.65V1.66q0-.24,0-.45a2,2,0,0,0-.06-.38.54.54,0,0,0-.12-.24.82.82,0,0,0-.4-.26c-.14,0-.32-.07-.55-.11V.1h6.9l.85,2.06-.12.06a6.29,6.29,0,0,0-1.9-1.7,3.59,3.59,0,0,0-.79-.17,10.92,10.92,0,0,0-1.4-.08l-.55,0-.4.05c0,.13,0,.41,0,.82s0,.9,0,1.45V3.94c0,.14,0,.25,0,.32V4.4h.68l.49,0,.4-.06a2.3,2.3,0,0,0,.63-.24,1.27,1.27,0,0,0,.4-.36A1.62,1.62,0,0,0,35,3.21a4.54,4.54,0,0,0,.17-.64h.15V6.51H35.2a4.32,4.32,0,0,0-.3-.82,2.14,2.14,0,0,0-.43-.64A1.81,1.81,0,0,0,34,4.76a2.32,2.32,0,0,0-.65-.14H32.19a3.56,3.56,0,0,0,0,.51V7c0,.12,0,.23,0,.31,0,.27,0,.52,0,.76a1.15,1.15,0,0,0,.15.53.79.79,0,0,0,.53.25,5.49,5.49,0,0,0,.93.07h.54l.7-.06a2.8,2.8,0,0,0,.73-.2,2.33,2.33,0,0,0,.65-.4,4.27,4.27,0,0,0,.61-.65,7.72,7.72,0,0,0,.61-.92l.13,0Z" transform="translate(-0.06 0.08)" fill="#5e5f5f"/><path d="M45.09,9.1l-.16-.17-.12-.13a2,2,0,0,1-.15-.22c-.06-.1-.16-.24-.3-.43L44,7.52,43.58,7c-.13-.18-.26-.37-.41-.55l-.52-.64a5.39,5.39,0,0,0-.54-.53,1.42,1.42,0,0,0-.62-.32,2.29,2.29,0,0,0-.36,0h-.29V6.27c0,.4,0,.74,0,1s0,.49,0,.68a.88.88,0,0,0,.13.48,1.12,1.12,0,0,0,.39.33,1.71,1.71,0,0,0,.8.19V9.1h-4V9a2.93,2.93,0,0,0,.6-.15.9.9,0,0,0,.45-.3.5.5,0,0,0,.1-.22A1.59,1.59,0,0,0,39.41,8c0-.12,0-.26,0-.4s0-.28,0-.41,0-.28,0-.48,0-.41,0-.65,0-.48,0-.73V2.12c0-.15,0-.3,0-.45s0-.3,0-.44a3.06,3.06,0,0,0-.07-.37.53.53,0,0,0-.12-.25,1,1,0,0,0-.41-.27L38.28.22V.1H41.7c.56,0,1.06,0,1.49.05a3,3,0,0,1,1.19.33,2.49,2.49,0,0,1,.88.79A2.09,2.09,0,0,1,45.6,2.5a1.87,1.87,0,0,1-.17.83A2.1,2.1,0,0,1,45,4a2.44,2.44,0,0,1-.65.48,4.59,4.59,0,0,1-.79.34v0a1.48,1.48,0,0,1,.41.32,5.05,5.05,0,0,1,.39.48l.71,1,.68,1a3.61,3.61,0,0,0,.9,1,2.28,2.28,0,0,0,1,.38V9.1ZM43.85,1.31a2.17,2.17,0,0,0-.91-.77,2.31,2.31,0,0,0-.63-.2,3.14,3.14,0,0,0-.7-.07l-.42,0-.25,0a1.3,1.3,0,0,1,0,.13s0,.09,0,.15,0,.14,0,.24,0,.25,0,.44,0,.62,0,1,0,.72,0,1.06V4.7c.34,0,.66,0,1,0a3.49,3.49,0,0,0,.85-.19,2.21,2.21,0,0,0,.69-.33,2.13,2.13,0,0,0,.47-.48,2.11,2.11,0,0,0,.27-.59,2.69,2.69,0,0,0,.08-.65A2,2,0,0,0,43.85,1.31Z" transform="translate(-0.06 0.08)" fill="#5e5f5f"/><path d="M53.54,9.1V9l.19,0L54,8.86a.88.88,0,0,0,.28-.17.38.38,0,0,0,.12-.29A1.41,1.41,0,0,0,54.35,8c-.05-.17-.11-.38-.19-.62s-.18-.52-.29-.82l-.35-.94H50.19c-.12.32-.24.62-.36.91s-.23.57-.35.86a3.32,3.32,0,0,0-.26.95.36.36,0,0,0,.1.27.94.94,0,0,0,.25.18,1.91,1.91,0,0,0,.34.1l.35.05V9.1H47.59V9a1.32,1.32,0,0,0,.56-.17l.27-.19a3.7,3.7,0,0,0,.29-.41,9.71,9.71,0,0,0,.48-1c.18-.39.37-.83.59-1.33l.67-1.55c.23-.53.46-1.06.68-1.6l.64-1.5L51.64,1a1.84,1.84,0,0,0,.41-.24,2.21,2.21,0,0,0,.32-.28A2.64,2.64,0,0,0,52.6.15a2.38,2.38,0,0,0,.14-.23h.1l.74,2c.23.62.46,1.22.67,1.8l.62,1.67L55.47,7a6.41,6.41,0,0,0,.26.64c.07.17.16.37.26.58a1.36,1.36,0,0,0,.12.18,1.3,1.3,0,0,0,.23.26,1.63,1.63,0,0,0,.35.23,1.53,1.53,0,0,0,.5.11V9.1ZM51.91,1.52c0,.11-.13.28-.22.52l-.36.85c-.14.33-.3.71-.47,1.13l-.55,1.37h3.11c-.14-.38-.29-.75-.43-1.13l-.43-1.08-.37-1C52.07,1.94,52,1.71,51.91,1.52Z" transform="translate(-0.06 0.08)" fill="#5e5f5f"/><path d="M65.59,9.1h-8V9a2.83,2.83,0,0,0,.62-.16,1.18,1.18,0,0,0,.48-.31.65.65,0,0,0,.1-.22A1.6,1.6,0,0,0,58.84,8c0-.13,0-.26,0-.39s0-.28,0-.41V6.67c0-.2,0-.41,0-.65s0-.48,0-.73V1.7c0-.15,0-.29,0-.42a1.59,1.59,0,0,0-.06-.34A.53.53,0,0,0,58.74.7a1.11,1.11,0,0,0-.47-.33,3,3,0,0,0-.61-.15V.1h4V.22L61.25.3a1.52,1.52,0,0,0-.42.16,1,1,0,0,0-.34.32,1,1,0,0,0-.16.54c0,.3,0,.56,0,.8s0,.48,0,.72,0,.47,0,.72V5.84c0,.21,0,.44,0,.67s0,.48,0,.76,0,.52,0,.77a1,1,0,0,0,.13.53.41.41,0,0,0,.2.13,2.22,2.22,0,0,0,.36.11l.46.07.5,0h.32l.48,0,.54-.06a2.23,2.23,0,0,0,.49-.1,2.77,2.77,0,0,0,.83-.36,2.58,2.58,0,0,0,.57-.52,3.2,3.2,0,0,0,.4-.63c.11-.23.21-.47.31-.72l.13,0Z" transform="translate(-0.06 0.08)" fill="#5e5f5f"/><path d="M20.6,21.36a6.4,6.4,0,0,1-1.1,1.86,6.59,6.59,0,0,1-1.59,1.38,9.43,9.43,0,0,1-1.85.93,11.52,11.52,0,0,1-2.1.52c-.75.12-1.5.21-2.26.27s-1.5.08-2.22.08H7.58v3.29c0,.4,0,.77,0,1.11s0,.7,0,1.1c0,.75,0,1.39.07,1.92a2.46,2.46,0,0,0,.39,1.33,2.76,2.76,0,0,0,1.08.91,5.05,5.05,0,0,0,2.24.53v.35H.2v-.35a9.39,9.39,0,0,0,1.68-.42,2.75,2.75,0,0,0,1.26-.84,1.54,1.54,0,0,0,.28-.63,7.5,7.5,0,0,0,.16-1c0-.35.06-.72.09-1.12s0-.78,0-1.15,0-.77,0-1.33,0-1.17,0-1.84,0-1.35,0-2V17.41c0-.42,0-.85,0-1.28s0-.84-.07-1.22a6.07,6.07,0,0,0-.17-1.05,1.58,1.58,0,0,0-.33-.69,2.65,2.65,0,0,0-1.35-.75Q1,12.22.06,12.09v-.35H.9l1.56,0,1.94,0H6.48c.69,0,1.34,0,1.95,0H10a33.09,33.09,0,0,1,4.1.23A9.3,9.3,0,0,1,17.46,13,7.15,7.15,0,0,1,20,15.38,6.44,6.44,0,0,1,21,19,6.06,6.06,0,0,1,20.6,21.36Zm-4.39-6.12a6.4,6.4,0,0,0-4.49-2.91,14,14,0,0,0-2-.14,8.27,8.27,0,0,0-1.14.06L8,12.33a1.67,1.67,0,0,1-.09.37c0,.11-.06.24-.09.4s0,.4-.06.69-.05.7-.07,1.24q0,1.23-.06,3c0,1.17,0,2.31,0,3.43v4.48c1,0,1.86,0,2.7-.08a8.68,8.68,0,0,0,2.34-.48,6.59,6.59,0,0,0,3.44-2.53,7,7,0,0,0,1.19-4A6.41,6.41,0,0,0,16.21,15.24Z" transform="translate(-0.06 0.08)" fill="#5e5f5f"/><path d="M39.8,33.05a6.68,6.68,0,0,1-1.89,2.28A8,8,0,0,1,35,36.73a14.14,14.14,0,0,1-3.67.45A17.75,17.75,0,0,1,28.41,37a12.53,12.53,0,0,1-2-.5,6.84,6.84,0,0,1-1.21-.55,1.6,1.6,0,0,0-.51-.24q-.11,0-.45.42c-.23.28-.44.55-.63.8h-.32l-.1-7h.35a11.91,11.91,0,0,0,.8,1.84,17.79,17.79,0,0,0,1.07,1.68,10.4,10.4,0,0,0,1.23,1.38,5.82,5.82,0,0,0,1.24.91,10.16,10.16,0,0,0,1.57.63,6.22,6.22,0,0,0,1.89.31,6.13,6.13,0,0,0,4.2-1.41,4.85,4.85,0,0,0,1.61-3.84,4.31,4.31,0,0,0-.31-1.71A4.06,4.06,0,0,0,36,28.45a5.33,5.33,0,0,0-1.28-.93,15.15,15.15,0,0,0-1.57-.7c-.56-.21-1.05-.38-1.47-.52l-1.17-.4-1.12-.39c-.39-.13-.85-.3-1.39-.51a7.53,7.53,0,0,1-1.75-1,7.38,7.38,0,0,1-1.47-1.43,7.51,7.51,0,0,1-1-1.82,5.78,5.78,0,0,1-.39-2.12A7.16,7.16,0,0,1,24,15.41a6.64,6.64,0,0,1,1.86-2.27,7.74,7.74,0,0,1,2.69-1.35,12.57,12.57,0,0,1,5.89-.17,10.4,10.4,0,0,1,1.84.57,6.87,6.87,0,0,1,1.09.58,2,2,0,0,0,.4.26c.07,0,.21-.14.44-.42s.42-.56.61-.84h.38v6.48h-.38A13.25,13.25,0,0,0,37.75,16a9.78,9.78,0,0,0-1.54-2,7.36,7.36,0,0,0-2-1.46,5.55,5.55,0,0,0-2.49-.56,6.5,6.5,0,0,0-2,.32,4.6,4.6,0,0,0-1.68.94,4.33,4.33,0,0,0-1.12,1.56,5.27,5.27,0,0,0-.41,2.12,4,4,0,0,0,1.12,3,7.9,7.9,0,0,0,2.9,1.79c.46.19.9.35,1.31.49l1.2.4,1.21.4,1.27.46a8.17,8.17,0,0,1,3.69,2.54A6.5,6.5,0,0,1,40.48,30,6.42,6.42,0,0,1,39.8,33.05Z" transform="translate(-0.06 0.08)" fill="#5e5f5f"/><path d="M64.07,12.58a5.6,5.6,0,0,0-1.29.91,8.43,8.43,0,0,0-1.14,1.33c-.36.51-.75,1.1-1.17,1.75l-1.17,1.8c-.5.76-1,1.55-1.54,2.36l-1.53,2.35-1.15,1.75v7c0,.68,0,1.34.05,2a2.8,2.8,0,0,0,.33,1.35,2.45,2.45,0,0,0,1.37,1,13.86,13.86,0,0,0,1.61.39v.35H47.66v-.35a7.92,7.92,0,0,0,1.59-.33,3.58,3.58,0,0,0,1.45-1.11,1.12,1.12,0,0,0,.27-.59c.06-.28.1-.6.14-1s.06-.72.07-1.12,0-.78,0-1.15c0-.65.05-1.43.06-2.33s0-2,0-3.27l-.42-.67L50,23.69l-1.12-1.84c-.41-.67-.81-1.33-1.21-2l-1.12-1.81c-.35-.56-.64-1-.88-1.36l-1.2-1.86a9.59,9.59,0,0,0-1.11-1.43,6.15,6.15,0,0,0-1.1-.95A2.45,2.45,0,0,0,41,12.09v-.35h10.6v.35c-.35,0-.7.06-1,.1a5.85,5.85,0,0,0-1,.23,2.23,2.23,0,0,0-.73.42.94.94,0,0,0-.28.72,3.35,3.35,0,0,0,.51,1.38c.34.62.69,1.24,1.06,1.87.26.42.56.93.91,1.53s.74,1.22,1.16,1.89.85,1.34,1.28,2,.83,1.37,1.2,2c.31-.44.68-1,1.12-1.7s.9-1.39,1.35-2.1.89-1.39,1.3-2,.71-1.16.92-1.54c.12-.18.25-.4.39-.64s.27-.51.4-.77a6.52,6.52,0,0,0,.33-.83,2.25,2.25,0,0,0,.14-.77,1.25,1.25,0,0,0-.28-.87,1.84,1.84,0,0,0-.71-.49,4.58,4.58,0,0,0-1-.26l-1-.16v-.35h8.08v.35A5.54,5.54,0,0,0,64.07,12.58Z" transform="translate(-0.06 0.08)" fill="#5e5f5f"/><path d="M87.54,19.86a11.6,11.6,0,0,0-1.36-3.15A11.38,11.38,0,0,0,84,14.15a9.89,9.89,0,0,0-2.8-1.71,8.74,8.74,0,0,0-3.31-.63,8.48,8.48,0,0,0-4.3,1.08,9.9,9.9,0,0,0-3.17,2.87,13.6,13.6,0,0,0-2,4,15.73,15.73,0,0,0-.68,4.63,15.16,15.16,0,0,0,.71,4.73,11.63,11.63,0,0,0,2,3.83,9.69,9.69,0,0,0,3.22,2.57,9.26,9.26,0,0,0,4.2,1,8.64,8.64,0,0,0,3.41-.67,10.16,10.16,0,0,0,2.84-1.75,10.3,10.3,0,0,0,2.1-2.5,9.32,9.32,0,0,0,1.17-2.92h.42l-.1,7.7H87.4a10.94,10.94,0,0,0-.87-1.09c-.3-.32-.51-.49-.63-.49a3.32,3.32,0,0,0-.63.37,10.28,10.28,0,0,1-1.61.81,15.63,15.63,0,0,1-6,1.1,17.52,17.52,0,0,1-5.88-.93,12.72,12.72,0,0,1-4.46-2.62,11.42,11.42,0,0,1-2.82-4.06,13.53,13.53,0,0,1-1-5.2,13.2,13.2,0,0,1,.09-1.44,13.54,13.54,0,0,1,.31-1.71,14.17,14.17,0,0,1,.63-1.91,14.74,14.74,0,0,1,1-2,13.17,13.17,0,0,1,1.83-2.28A11.3,11.3,0,0,1,69.94,13a14.28,14.28,0,0,1,3.33-1.32,16.55,16.55,0,0,1,4.16-.49,15.3,15.3,0,0,1,3.67.39,17.47,17.47,0,0,1,2.63.84,9.25,9.25,0,0,1,1.61.84,2.62,2.62,0,0,0,.63.38s.13-.05.26-.15.27-.24.42-.39.31-.33.47-.52a6.62,6.62,0,0,0,.46-.62H88v7.84Z" transform="translate(-0.06 0.08)" fill="#5e5f5f"/><path d="M107.77,36.94v-.35a7.36,7.36,0,0,0,2.17-.47,2.37,2.37,0,0,0,1.15-.83,1.21,1.21,0,0,0,.13-.42c0-.21.06-.45.08-.73s0-.57,0-.88,0-.59,0-.87c0-.77,0-1.56,0-2.38V24.48H97.58V32c0,.68,0,1.33,0,2a2.53,2.53,0,0,0,.31,1.33,2.63,2.63,0,0,0,1.19.91,5.52,5.52,0,0,0,1.51.39v.35H90.3v-.35A7.2,7.2,0,0,0,92,36.12a3.24,3.24,0,0,0,1.23-.83,1.48,1.48,0,0,0,.23-.57c0-.27.1-.58.14-.93s.06-.73.08-1.14,0-.8,0-1.17,0-.77,0-1.33,0-1.17,0-1.84,0-1.35,0-2V16.15c0-.42,0-.81,0-1.17a7.72,7.72,0,0,0-.16-1,1.64,1.64,0,0,0-.32-.69,2.76,2.76,0,0,0-1.2-.85,7,7,0,0,0-1.63-.37v-.35h10.43v.35q-.5.08-1,.21a3.22,3.22,0,0,0-1,.44,2.44,2.44,0,0,0-.77.82,2.86,2.86,0,0,0-.35,1.33c0,.82,0,1.7-.05,2.64s0,1.85,0,2.71v3.54h13.83V18.14c0-.6,0-1.29,0-2.06,0-.44-.05-.91-.08-1.38a2.59,2.59,0,0,0-1.77-2.35,7,7,0,0,0-1.61-.26v-.35h10.53v.35a5.68,5.68,0,0,0-1.64.47,2.45,2.45,0,0,0-1.19,1.07,1.76,1.76,0,0,0-.21.68c-.05.29-.08.62-.11,1s0,.73,0,1.1V27.84c0,.65,0,1.33,0,2s0,1.47,0,2.31c0,.68,0,1.3.06,1.87a2.51,2.51,0,0,0,.26,1.17,2.35,2.35,0,0,0,1.22,1,7.37,7.37,0,0,0,1.68.39v.35Z" transform="translate(-0.06 0.08)" fill="#5e5f5f"/><path d="M144.89,29.34A12.92,12.92,0,0,1,142,33.47a12.52,12.52,0,0,1-4.2,2.7,14.26,14.26,0,0,1-10.13,0,12.69,12.69,0,0,1-4.17-2.63,12.33,12.33,0,0,1-2.82-4.06,13,13,0,0,1-1-5.2,12.83,12.83,0,0,1,1.09-5.4,11.94,11.94,0,0,1,2.92-4.06,12.9,12.9,0,0,1,4.3-2.56,15.32,15.32,0,0,1,5.2-.89,13,13,0,0,1,5.34,1,12.2,12.2,0,0,1,4,2.82,12.44,12.44,0,0,1,2.52,4.07,13.59,13.59,0,0,1,.87,4.83A12.66,12.66,0,0,1,144.89,29.34Zm-3.83-9.45A13.39,13.39,0,0,0,139.41,16a9.29,9.29,0,0,0-2.74-2.87A6.81,6.81,0,0,0,132.78,12a6.93,6.93,0,0,0-3.94,1.11,9,9,0,0,0-2.73,2.85,13.34,13.34,0,0,0-1.57,4,20,20,0,0,0-.51,4.5,18.65,18.65,0,0,0,.56,4.58,12.8,12.8,0,0,0,1.66,3.89A8.67,8.67,0,0,0,129,35.57a7.26,7.26,0,0,0,3.87,1,6.57,6.57,0,0,0,3.83-1.12,9.38,9.38,0,0,0,2.71-2.89,13.93,13.93,0,0,0,1.63-4,18.48,18.48,0,0,0,.54-4.41A17.86,17.86,0,0,0,141.06,19.89Z" transform="translate(-0.06 0.08)" fill="#5e5f5f"/><path d="M169.06,36.94H146.59v-.35a9.13,9.13,0,0,0,1.74-.46,3.19,3.19,0,0,0,1.34-.87,1.73,1.73,0,0,0,.3-.61,5.43,5.43,0,0,0,.19-.93c.05-.35.09-.72.13-1.1s.05-.77.05-1.14,0-.77,0-1.33,0-1.17,0-1.84,0-1.35,0-2v-10a10.63,10.63,0,0,0-.06-1.17,6,6,0,0,0-.15-1,1.57,1.57,0,0,0-.32-.66,3,3,0,0,0-1.31-.91,7.17,7.17,0,0,0-1.73-.42v-.35H158v.35l-1.08.21a4.18,4.18,0,0,0-1.19.45,2.74,2.74,0,0,0-1.4,2.42c0,.82,0,1.56-.06,2.24s0,1.34,0,2,0,1.33,0,2V27.8c0,.61,0,1.23,0,1.88s0,1.36,0,2.15.05,1.46.09,2.13a3.12,3.12,0,0,0,.36,1.51,1.5,1.5,0,0,0,.56.35,6,6,0,0,0,1,.3c.39.08.83.15,1.29.21a11.06,11.06,0,0,0,1.4.08h.9c.4,0,.85,0,1.34-.07s1-.09,1.51-.16a8.77,8.77,0,0,0,1.36-.28,7.86,7.86,0,0,0,2.33-1A7.14,7.14,0,0,0,168,33.42a8.46,8.46,0,0,0,1.12-1.78c.31-.65.6-1.32.88-2l.35.11Z" transform="translate(-0.06 0.08)" fill="#5e5f5f"/><path d="M196.32,29.34a12.79,12.79,0,0,1-2.86,4.13,12.52,12.52,0,0,1-4.2,2.7,14.26,14.26,0,0,1-10.13,0A12.75,12.75,0,0,1,175,33.56a12.33,12.33,0,0,1-2.82-4.06,12.81,12.81,0,0,1-1-5.2,13,13,0,0,1,1.08-5.4,12.21,12.21,0,0,1,2.92-4.06,13,13,0,0,1,4.31-2.56,15.27,15.27,0,0,1,5.2-.89,13,13,0,0,1,5.33,1,12.09,12.09,0,0,1,6.53,6.89,13.6,13.6,0,0,1,.88,4.83A12.66,12.66,0,0,1,196.32,29.34Zm-3.84-9.45A13.65,13.65,0,0,0,190.84,16a9.32,9.32,0,0,0-2.75-2.87A6.78,6.78,0,0,0,184.21,12a6.93,6.93,0,0,0-3.94,1.11,8.86,8.86,0,0,0-2.73,2.85,13.35,13.35,0,0,0-1.58,4,20.62,20.62,0,0,0-.5,4.5A18.19,18.19,0,0,0,176,29a12.56,12.56,0,0,0,1.66,3.89,8.64,8.64,0,0,0,2.76,2.69,7.26,7.26,0,0,0,3.87,1,6.6,6.6,0,0,0,3.84-1.12,9.62,9.62,0,0,0,2.71-2.89,13.91,13.91,0,0,0,1.62-4A18,18,0,0,0,193,24.2,17.39,17.39,0,0,0,192.48,19.89Z" transform="translate(-0.06 0.08)" fill="#5e5f5f"/><path d="M224.56,25.58a1.81,1.81,0,0,0-1,.72,2.47,2.47,0,0,0-.28,1.19c0,.54,0,1.07,0,1.61v5.11a7.66,7.66,0,0,1-1.2.7,21.54,21.54,0,0,1-2.35,1,22.43,22.43,0,0,1-3.06.85,16,16,0,0,1-3.36.35,19.17,19.17,0,0,1-5.95-.85,11.94,11.94,0,0,1-4.43-2.52,11.1,11.1,0,0,1-2.76-4.06,14.36,14.36,0,0,1-1-5.38,13,13,0,0,1,.17-2,14.1,14.1,0,0,1,.61-2.4,12.9,12.9,0,0,1,1.23-2.55,12.1,12.1,0,0,1,2-2.45,12.47,12.47,0,0,1,4.12-2.64,15.74,15.74,0,0,1,6-1,16.51,16.51,0,0,1,3.71.37,18.73,18.73,0,0,1,2.71.8,11,11,0,0,1,1.7.81,3.28,3.28,0,0,0,.66.36q.08,0,.39-.42c.2-.28.46-.61.77-1h.31v7.63h-.42a12.52,12.52,0,0,0-1.15-3,11.44,11.44,0,0,0-1.65-2.31,8.31,8.31,0,0,0-2.87-1.92,10,10,0,0,0-3.92-.74,8.37,8.37,0,0,0-4.16,1,9.79,9.79,0,0,0-3.15,2.76,13.11,13.11,0,0,0-2,4,15.85,15.85,0,0,0-.7,4.74,17.36,17.36,0,0,0,.67,5,11.32,11.32,0,0,0,1.92,3.87,8.77,8.77,0,0,0,3.08,2.5,9.27,9.27,0,0,0,4.17.89,8.49,8.49,0,0,0,3.13-.57,4.75,4.75,0,0,0,2.29-1.88,4.17,4.17,0,0,0,.42-1.61,20.43,20.43,0,0,0,.14-2.38,18.23,18.23,0,0,0-.12-2.2,2.76,2.76,0,0,0-.72-1.61,4.17,4.17,0,0,0-2.84-1.09v-.35h10.26v.35A7.26,7.26,0,0,0,224.56,25.58Z" transform="translate(-0.06 0.08)" fill="#5e5f5f"/><path d="M226.25,11.78c1.58,0,3.26-.19,4.71.58a3.35,3.35,0,0,1,1.36,2.26c.81,3.1.32,6.33.82,9.47a4.56,4.56,0,0,0,2.24,3.4,11.07,11.07,0,0,0,3.75.9c0-4.23,0-8.82,0-13a3.11,3.11,0,0,0-.86-2.48,7.93,7.93,0,0,0-2.67-.73c0-.34,0-.06,0-.39h11c0,.33,0,0,0,.39a7.71,7.71,0,0,0-2.68.74c-.77.51-.87,1.82-.86,2.67V28.39c1.82-.21,3.91-.49,5.14-2,.77-.83.89-2.34,1-3.41.25-3.07-.11-6.25.93-9.2a2.47,2.47,0,0,1,1.55-1.63,10.86,10.86,0,0,1,4.25-.37c0,.32,0,0,0,.32a2.9,2.9,0,0,0-2.29,1,6.72,6.72,0,0,0-.35,2.89c0,2.85.23,5.84-1,8.49a5.7,5.7,0,0,1-2.55,2.84,22.33,22.33,0,0,1-6.68,1.74c0,1.43,0,3.15,0,4.59a2.87,2.87,0,0,0,1.27,2.55,9.46,9.46,0,0,0,2.6.32v.41H235.24v-.41c1.27-.07,3,.09,3.56-1.38.64-1.85.21-4.16.34-6.08a22.47,22.47,0,0,1-6.67-1.73,6.54,6.54,0,0,1-3.06-4.18c-.84-2.84-.38-5.82-.56-8.73a4.51,4.51,0,0,0-.2-.92,1.85,1.85,0,0,0-1.14-1.13,4.17,4.17,0,0,0-1.26-.27Z" transform="translate(-0.06 0.08)" fill="#5e5f5f"/></svg>