<svg xmlns="http://www.w3.org/2000/svg" width="250" viewBox="0 0 176 60.54"><title>revive logo</title><path d="M171.43,48.69l-1.19.17c-.54.75-2,2.85-2.12,3s-.84-.06-.73-.34,1.3-1.8,1.8-2.53l-1.35.24c-.52.11-.11-.73.23-.84a27.79,27.79,0,0,1,3.56-.21C171.93,48.18,171.67,48.67,171.43,48.69Zm.6-.4c.15-.18,1.37-.15,1.22.12s-.28,1.82-.28,1.82,1.67-1.67,1.87-1.9,1.37,0,1.13.28-1.41,3.42-1.43,3.61-.71-.12-.65-.4,1-2.66,1-2.66-1.8,2-1.93,2.12-.64-.15-.62-.47a8.44,8.44,0,0,1,.17-1.75c-.32.47-2.1,2.63-2.14,2.76s-.92-.11-.75-.37S171.93,48.46,172,48.29Z" transform="translate(0 0)" fill="#12284c"/><path d="M2.09,16.62C.74,12.43,5.41,5.79,12.92,2.78,23-1.33,39-.93,47.39,4.29c8.06,4.9,5.69,12.88-2.53,18.81-6.41,4.59-14.39,7.12-21,8.46a15,15,0,0,1,5.69,1.82,29.61,29.61,0,0,1,7.27,7.43c4.9,6.56,9.09,14.23,13.29,13.52,2.37.24-3.56,4.9-6.8,4.66-4-.31-8-7.43-12.18-14.07-2.53-4-5.14-7.83-7.82-10a8.34,8.34,0,0,0-5.14-1.82C14,41.6,7.54,58.2,7.15,60c-1,1.5-7.67-.47-7.12-3.48C.9,53.38,7.15,39.7,9.12,35.75l1.11-2.37c-1-.4-.39-2.06,1.19-2.53,4.11-8.62,10.19-20.48,13.36-26.17A67.08,67.08,0,0,0,13.87,8.24c-7.28,3.08-9.81,8.06-9,9.49C4.62,19.07,2.8,18.83,2.09,16.62ZM20,29.11c4.91-1.34,11.07-3.56,15.66-6.8C43.51,16.86,47.78,8,40.43,5A23.15,23.15,0,0,0,34,3.73C32,6.26,25.8,17.41,20,29.11Z" transform="translate(0 0)" fill="#12284c"/><path d="M54.1,41.21a12,12,0,0,0-.71,3.47c-.08,2.22.4,4.67,3,4.91,7,.63,16.76-13,20.24-17.32.86-1,3.08-1,2.37.79C76.48,38.12,69.36,48.48,62.56,52,57,54.8,49.2,51.32,47.15,45.87,44.06,37.73,53.31,24.13,60,21.12c5.85-2.6,13.13,3.25,12.18,7.59C71.34,32.75,60.51,38.52,54.1,41.21Zm1.74-4a46.68,46.68,0,0,0,10.83-9.33c2.22-2.84.48-4.11-2.45-1.5A43.69,43.69,0,0,0,55.84,37.17Z" transform="translate(0 0)" fill="#12284c"/><path d="M80.43,46.66c1,0,16.76-24.27,22.92-26.17,1.9-.55,3.48.71,2.61,2.06-4.19,1.18-15.81,18.1-21.66,26.09-1.11,1.5-3.24,4.9-4.27,4.9-3.16,0-7.9-3-7.67-5.06.71-4.9,5.3-20.4,4-23.24.15-2.22,7.11-1.51,7.51,1.73S80.51,42.79,80.43,46.66Z" transform="translate(0 0)" fill="#12284c"/><path d="M113.55,27.29c-.24,1.82-1.9,3.32-4.51,8.38-4.42,8.54-5.29,13.76-2.92,13.36,3.48-.55,13.12-12.41,15.65-16.44,1.35-1.82,3-.48,2.37.95-2.68,5.14-9.56,14.78-14.54,17.78-4,2.38-8.3-.07-10-2.21s-2-6.24,1.58-13.6c3.08-6.4,5.85-9.48,6.08-11.62C108.17,22.63,113.87,24.68,113.55,27.29Z" transform="translate(0 0)" fill="#12284c"/><path d="M125.8,46.66c1,0,16.76-24.27,22.93-26.17,1.89-.55,3.48.71,2.61,2.06-4.19,1.18-15.82,18.1-21.67,26.09-1.1,1.5-3.24,4.9-4.26,4.9-3.17,0-7.91-3-7.67-5.06.71-4.9,5.29-20.4,4-23.24.16-2.22,7.11-1.51,7.51,1.73S125.88,42.79,125.8,46.66Z" transform="translate(0 0)" fill="#12284c"/><path d="M151,41.21a11.66,11.66,0,0,0-.71,3.47c-.08,2.22.39,4.67,3,4.91,7,.63,16.76-13,20.24-17.32.87-1,3.08-1,2.37.79-2.53,5.06-9.64,15.42-16.44,18.9-5.54,2.84-13.36-.64-15.42-6.09-3.08-8.14,6.17-21.74,12.89-24.75,5.85-2.6,13.12,3.25,12.17,7.59C168.19,32.75,157.36,38.52,151,41.21Zm1.74-4a46.89,46.89,0,0,0,10.83-9.33c2.21-2.84.47-4.11-2.45-1.5A43.45,43.45,0,0,0,152.7,37.17Z" transform="translate(0 0)" fill="#12284c"/><path d="M119.58,11.35a5.13,5.13,0,0,0-6.94,2.13A5.25,5.25,0,0,0,122,18.19,5.13,5.13,0,0,0,119.58,11.35Zm-1.86,6.78a2,2,0,0,1-3.53-1.76,2,2,0,0,1,3.53,1.76Zm2.56-.3a3.41,3.41,0,0,1-2.14,1.74,3,3,0,0,0,1-1.12,3.21,3.21,0,0,0-5.74-2.88l0,.07a3.36,3.36,0,0,1,.32-1.11,3.69,3.69,0,0,1,6.58,3.3Z" transform="translate(0 0)" fill="#12284c"/></svg>