<svg xmlns="http://www.w3.org/2000/svg" width="250" viewBox="0 0 291.79 137.45"><title>bluehawk-logo</title><path d="M61.14,97.63c-3.62,1.89-5.47,4.15-6.92,8.49-1.6,4.76-.71,6.36-1.66,10.37a9.73,9.73,0,0,1-3.33,5.73,9.3,9.3,0,0,0-.24-2.78,3,3,0,0,0-1.18-1.71,18.13,18.13,0,0,1-2.57,3.74A28.7,28.7,0,0,1,42,124.26a6.35,6.35,0,0,1-3.35,5.22c-3.56,1.79-5.22.29-5.22.29A9.84,9.84,0,0,0,36,129a2.73,2.73,0,0,0,1.66-3.48v0c-.58-2-2.81-2.34-5.49-1.2a7.38,7.38,0,0,0-4.65,6.34,2.42,2.42,0,0,1-1.9-2.11c-.33-2.22.69-4.64,3.48-7.3a13.44,13.44,0,0,1,7.37-3.76,3,3,0,0,0,.45,2.4c.82,1.13,3.3.89,4.63-.18a6.76,6.76,0,0,0,2.64-7.23,12.55,12.55,0,0,0-4.8-7.08,9.43,9.43,0,0,1-.15,3.09,6.18,6.18,0,0,1-1.65,3.14,7.54,7.54,0,0,0-.43-2.15,2.42,2.42,0,0,0-.91-1.26,13.56,13.56,0,0,1-4,4.2,20.55,20.55,0,0,1-4.59,2.12,5.13,5.13,0,0,1-2.37,3.7c-3.27,1.68-4.81.28-4.81.28a10,10,0,0,0,2.4-.67,2.54,2.54,0,0,0,1.51-3.25c-.53-1.84-2.81-2.41-5.38-1.24a8.78,8.78,0,0,0-4.54,6.17A2.1,2.1,0,0,1,12.93,118c-.22-1.08.05-4.06,3.12-7,3.24-3.23,8.21-3.09,8.21-3.09a4.18,4.18,0,0,0,.66,2.45c.74,1,2.15,1.16,3.9.28s3.23-3.06,2.82-6.53a6.23,6.23,0,0,0-3.33-4.76s1.26-.74,7.15-3.35c5.39-2.4,8-2.71,8-2.71s-7.29-.79-20.53,3A36.2,36.2,0,0,0,5.17,107l.9,1.81a5.58,5.58,0,0,1-3.3-.36C1,107.85.17,106.64.33,104.29A15.74,15.74,0,0,1,2.48,98.6S1.67,91.14,9,84c7.78-7.57,13.7-9,13.7-9A36.72,36.72,0,0,0,20,79a17.4,17.4,0,0,0-1.72,3.81,27.48,27.48,0,0,1,7-4.84c3.68-1.67,8.66-3.39,13-4.84C45,70.84,54.77,65.5,51.26,56.92c-1.76-4.32-6.71-3.6-6.71-3.6s6.11-9.41,31.69-19c11.05-4.13,27-7.83,40.79-15.27,13.2-7.1,23.59-19,23.59-19s-1.72,14.54-10,25.34C120.38,38.81,105.08,46,105.08,46c.79-1.2,1.52-2.44,2.19-3.71A39.18,39.18,0,0,0,109.38,38s-6.93,1.54-16.87,9C82.07,54.78,81,60,81,60s6.21-1.47,14.81-4.41a102.34,102.34,0,0,0,18.34-8.87,74.8,74.8,0,0,0,17.18-14.44s-5.09,11.36-8.46,17.28c-3.74,6.68-7.13,10.85-15,16.19s-13.09,6.91-24.42,9.44A29.25,29.25,0,0,0,67.32,85.27s10.59-6.62,22.21-5.78c12.28.9,13.26.26,13.26.26l-6,7a106.68,106.68,0,0,1-14.64,13.54,22.3,22.3,0,0,0-8-3.93,16.86,16.86,0,0,0-13,1.21" transform="translate(-0.31 -0.07)" fill="#069"/><path d="M27.49,72.87s6-2.59,10.63-4.18C42.94,67,47.36,63.78,46.29,60,45,55.61,37,56,37,56a35.21,35.21,0,0,1,7.32-9.36c8.35-7.12,18.34-11.86,23.87-14.14,7-2.91,10.06-6.59,13.79-13.26s3.18-16,3.18-16-8.05,13.21-28,22.17C29.44,38,24.85,57.31,24.85,57.31a6.43,6.43,0,0,1,6.36,3.52c3.86,7-3.7,12-3.7,12" transform="translate(-0.31 -0.07)" fill="#069"/><path d="M282.11,126.4v-.79h4v.79h-1.56v4h-.94v-4m4.67-.79,1.21,3.41,1.23-3.41h1.37v4.76h-.86v-3.84l-1.32,3.84h-.76l-1.33-3.84v3.84H287v-4.76Z" transform="translate(-0.31 -0.07)" fill="#069"/><path d="M241.32,77.71h-18.1c-13.3,0-17.73-7.86-17.73-18.38v-27h11.85V58.85c0,8.62,6.45,8.62,8.79,8.62h3.28V32.29H241.3" transform="translate(-0.31 -0.07)" fill="#069"/><polyline points="225.88 130.4 212.92 130.4 207.52 106.01 207.36 106.01 201.98 130.4 189.01 130.4 177.5 84.97 190.52 84.97 195.81 109.88 195.95 109.88 201.42 84.97 213.49 84.97 219.48 109.72 219.64 109.72 224.38 84.97 237.39 84.97" fill="#069"/><polyline points="277.02 130.4 264.02 104.99 274.87 84.97 261.72 84.97 252.17 103.17 252.17 84.97 240.28 84.97 240.28 130.4 252.17 130.4 252.17 107.88 263.1 130.4" fill="#069"/><path d="M165.2,53.26a11.23,11.23,0,0,0,5.25-9.32c0-6.46-5.9-11.69-13.19-11.69H134.73s-.77,2.63-1.61,5c-1,2.65-2.16,5.29-2.16,5.29h4.25V77.76L157,77.7c8.29,0,15-5.94,15-13.27a13,13,0,0,0-6.83-11.13M147.08,42.53h5c3.51,0,6,1.43,6,3.79s-2.49,3.82-6,3.82h-5Zm5.61,25h-5.61V58.9h5.61c3.4,0,6.15,1.42,6.15,4.16s-2.75,4.43-6.15,4.43" transform="translate(-0.31 -0.07)" fill="#069"/><polyline points="187.25 67.42 202.85 67.42 200.08 77.66 175.35 77.66 175.35 32.23 187.25 32.23" fill="#069"/><polyline points="275.46 42.45 257.04 42.45 257.04 49.19 273.63 49.19 270.86 59.43 257.04 59.43 257.04 67.42 283.95 67.42 278.76 77.65 245.12 77.65 245.12 32.23 278.22 32.23" fill="#069"/><path d="M110.44,116.57H123.1v13.88h12.05V85H123.06v21.19H110.44V85H103.7s-1.76,2.17-2.55,3.07-2.76,3-2.76,3v15.12H93.68l-2.86,10.36h7.57v13.88h12" transform="translate(-0.31 -0.07)" fill="#069"/><path d="M175.24,85.05h-6.69c-8.67,0-16.16,1.08-22.58,7.55-5.73,5.73-8.27,14.08-8.27,22.07a41.93,41.93,0,0,0,7.14,22.85l9.81-6.48A29,29,0,0,1,150,116.47H163.2v14h12m-24-24.31c1.34-3.39,3.15-8.93,12-10.34v10.34Z" transform="translate(-0.31 -0.07)" fill="#069"/></svg>