<svg xmlns="http://www.w3.org/2000/svg" width="250" viewBox="0 0 411.44 74.26"><title>codepen-logo</title><path d="M70.14,231a18.83,18.83,0,0,1,12.14,4.43l4.47-5.33a25.87,25.87,0,1,0,0,39.59l-4.47-5.33A18.89,18.89,0,1,1,70.14,231Z" transform="translate(-44.28 -212.75)" fill="#231f20"/><path d="M213.27,225.51H199.35a3.48,3.48,0,0,0-3.48,3.48v41.77a3.48,3.48,0,0,0,3.48,3.48h13.92a24.37,24.37,0,1,0,0-48.73Zm0,41.77H202.83v-34.8h10.44a17.4,17.4,0,1,1,0,34.8Z" transform="translate(-44.28 -212.75)" fill="#231f20"/><path d="M256.49,229v41.77a3.48,3.48,0,0,0,3.48,3.48h29v-7H263.45V253.36h16.24v-7H263.45V232.48H289v-7H260A3.48,3.48,0,0,0,256.49,229Z" transform="translate(-44.28 -212.75)" fill="#231f20"/><path d="M361.85,229v41.77a3.48,3.48,0,0,0,3.48,3.48h29v-7H368.81V253.36h16.25v-7H368.81V232.48h25.53v-7h-29A3.48,3.48,0,0,0,361.85,229Z" transform="translate(-44.28 -212.75)" fill="#231f20"/><path d="M328.72,225.51H313.64a3.48,3.48,0,0,0-3.48,3.48v45.25h7V253.36h11.6a13.93,13.93,0,1,0,0-27.85Zm0,20.89h-11.6V232.48h11.6a7,7,0,1,1,0,13.92Z" transform="translate(-44.28 -212.75)" fill="#231f20"/><path d="M448.76,225.51v35.64L420.1,226.77A3.48,3.48,0,0,0,414,229v45.25h7V238.61L449.56,273a3.49,3.49,0,0,0,2.68,1.25,3.44,3.44,0,0,0,1.18-.2,3.49,3.49,0,0,0,2.3-3.28V225.51Z" transform="translate(-44.28 -212.75)" fill="#231f20"/><path d="M176.1,238l-.06-.27a.88.88,0,0,0,0-.15,1.55,1.55,0,0,0-.08-.23c0-.06,0-.11-.07-.16l-.11-.21-.09-.15-.14-.19a1.34,1.34,0,0,0-.11-.14l-.15-.17-.13-.13-.18-.15-.15-.11-.05,0-33.94-22.62a3.17,3.17,0,0,0-3.54,0l-33.93,22.62-.06,0-.14.11-.18.15a.8.8,0,0,0-.13.13,1.29,1.29,0,0,0-.16.17l-.11.14a2.14,2.14,0,0,0-.13.19,1.19,1.19,0,0,0-.09.15,2.12,2.12,0,0,0-.11.21.77.77,0,0,0-.07.16l-.09.23a.88.88,0,0,1,0,.15,2.56,2.56,0,0,0,0,.27l0,.14c0,.14,0,.28,0,.42v22.62c0,.14,0,.28,0,.42l0,.14a2,2,0,0,0,0,.26,1.42,1.42,0,0,1,0,.16l.09.23a.77.77,0,0,0,.07.16,2.12,2.12,0,0,0,.11.21,1.19,1.19,0,0,0,.09.15,2.14,2.14,0,0,0,.13.19l.11.14a1.29,1.29,0,0,0,.16.17.74.74,0,0,0,.13.12l.18.16.14.11.06,0,33.93,22.62A3.2,3.2,0,0,0,139,287a3.15,3.15,0,0,0,1.77-.54l33.94-22.62.05,0,.15-.11.18-.16.13-.12.15-.17a1.34,1.34,0,0,0,.11-.14l.14-.19.09-.15.11-.21c0-.05,0-.1.07-.16a1.55,1.55,0,0,0,.08-.23.75.75,0,0,0,0-.16l.06-.26c0-.05,0-.09,0-.14a3,3,0,0,0,0-.42V238.57a3,3,0,0,0,0-.42C176.12,238.1,176.1,238.06,176.1,238ZM139,257.43l-11.28-7.55L139,242.33l11.29,7.55Zm-3.19-20.64L122,246l-11.17-7.47,25-16.67Zm-19.57,13.09-8,5.34V244.54Zm5.74,3.84L135.83,263v14.88l-25-16.66ZM142.21,263l13.84-9.25,11.16,7.47-25,16.66Zm19.58-13.09,8-5.34v10.68ZM156.05,246l-13.84-9.25V221.9l25,16.67Z" transform="translate(-44.28 -212.75)" fill="#231f20"/></svg>