<svg xmlns="http://www.w3.org/2000/svg" width="100" viewBox="0 0 189.29 283.82"><title>wwwf-logo</title><path d="M394.06,407.41a4,4,0,0,0-3.75,2.6l-7.6,19.29-.73,2.21-.6-2.22-5.89-18.8a1.17,1.17,0,0,0-.06-.2v0h0a4,4,0,0,0-3.77-2.68H362.1a4,4,0,0,0-3.8,4,7.92,7.92,0,0,0,.43,2l1.26,3.92-4.68,11.76-.75,2.18L354,429.3l-5.9-18.81a1.17,1.17,0,0,0-.06-.2l0,0a4,4,0,0,0-3.75-2.68h-9.55a4,4,0,0,0-3.81,4,7.92,7.92,0,0,0,.43,2l14.29,42.54a4,4,0,0,0,7.72.23l10-25.26.71-2.23.61,2.22,8.4,25a4,4,0,0,0,3.89,3,4,4,0,0,0,3.87-2.92l16.92-43.1a4,4,0,0,0-3.65-5.77Z" transform="translate(-327.96 -175.38)" fill="#231f20"/><path d="M465.14,407.41a4,4,0,0,0-3.76,2.6l-7.59,19.29-.73,2.21-.59-2.22-5.9-18.8-.06-.2,0,0h0a4,4,0,0,0-3.77-2.68h-9.54a4,4,0,0,0-3.81,4,8,8,0,0,0,.44,2l1.26,3.92-4.68,11.76-.76,2.18-.58-2.21-5.9-18.81-.06-.2,0,0a4,4,0,0,0-3.76-2.68h-9.54a4,4,0,0,0-3.81,4,7.88,7.88,0,0,0,.42,2l14.3,42.54a4,4,0,0,0,7.72.23l10-25.26.72-2.23.6,2.22,8.4,25a4,4,0,0,0,7.77.09l16.91-43.1a4,4,0,0,0-3.64-5.77Z" transform="translate(-327.96 -175.38)" fill="#231f20"/><path d="M511.33,407.48H478a3.48,3.48,0,0,0-3.47,3.48h0v44.27h0a3.75,3.75,0,0,0,3.75,3.59h9.43a3.73,3.73,0,0,0,3.68-3.7v-20.7H505a3.66,3.66,0,0,0-.06-7.32H491.39V415.32s20.06,0,20.11,0a3.91,3.91,0,0,0-.16-7.82Z" transform="translate(-327.96 -175.38)" fill="#231f20"/><path d="M459.62,266.43c6.09,6.78,6.71,27,22,18.94,9.15-4.83,9-25.22-3.16-32.58-9.9-5.86-15.32,2-18.9,11.69a1.94,1.94,0,0,0,.1,1.95Z" transform="translate(-327.96 -175.38)" fill="#231f20"/><path d="M435.93,263.16c-6.33,5.28-10.69,19.75-22.45,14.85-9.45-4.83-10.36-23.57,5.95-32.25,11.38-5.23,17.15,5.14,17.2,16.12a2.09,2.09,0,0,1-.7,1.28Z" transform="translate(-327.96 -175.38)" fill="#231f20"/><path d="M451.66,300.08c6.3-.64,4.9-6.47.12-7.91a56.06,56.06,0,0,0-15.29-2c-8.1.18-7.88,6.37-3.68,7.42,3.16,1.05,5.25,1.47,8,5,2.51,4.84,1.38-1.48,10.85-2.52Z" transform="translate(-327.96 -175.38)" fill="#231f20"/><path d="M481.39,195.65c7.91-13.16,21.67-10.62,28.58-4.06,7.53,7.14,8.74,15.37,5.82,21.15-3.93,7.79-14,17.2-20.64,8.07-2.91-4-9.09-8.83-12.44-10.24-5.15-2.16-6.18-6.86-1.32-14.92Z" transform="translate(-327.96 -175.38)" fill="#231f20"/><path d="M512.85,253.69c-.71-2.34-1.87-2.2-1.85-.27.7,24-13.66,49.69-44.32,49.84-7.83,0-5.49,12.58-19.78,6.27-10.3-6.93-16.18,6.73-23.54-8-1.6-4.27-4.05-5.95-7.15-6.72C385.92,287.31,376.28,245.64,403,212c5.25,3.16,7.2,3.65,12.84-1.54a40.74,40.74,0,0,1,10.56-6.71c6.4-2.42,9.86-5.15,4.35-17.39-7.16-15.91-21.72-11.39-28.39-5.9-7.54,6.19-12.81,16.19-3.13,28-27.13,18.29-31.75,40.77-31.12,60.31.59,20.75-4.69,19,1.95,40.13.58,1.85-.75,1.8-1.71,1.22-28.26-18.12-43.53-73.3.49-103.73,1-.85.62-2-3,.07-38.13,20.16-41.65,59.25-35.32,85.54,3.1,12.76-1.6,15.11,3.33,31.85,11.36,34.9,21,37.63,34.68,38.68,24.89,0,8-13.75,8.93-31,0-1,1.22-1.5,1.92.58,13.69,30.71,23.36,58.63,59.36,56,20.81-2.73,9.25-13,8-18.92C431.35,318.37,468.54,306.39,458,356c-6.93,28.39,15,25.55,30.49,15.35,15.92-10.49,35.88-79.63,24.33-117.65Zm-60.62,60.14c-3.45,9.09-21.35,6-21.9-2.84,0-.38.49-.27.69-.23a97.17,97.17,0,0,0,20.65,2.72c.18,0,.63-.11.56.35Z" transform="translate(-327.96 -175.38)" fill="#231f20"/><path d="M372.38,375.46a6.66,6.66,0,1,1-6.66-6.66A6.66,6.66,0,0,1,372.38,375.46Zm-6.66-8a8,8,0,1,0,8,8A8,8,0,0,0,365.72,367.48Z" transform="translate(-327.96 -175.38)" fill="#231f20"/><path d="M368,376.68a2,2,0,0,1-2.05,1.64,2.66,2.66,0,0,1-2.54-2.9c0-1.61.87-2.83,2.49-2.83a2,2,0,0,1,2.1,1.57h1.15a3.08,3.08,0,0,0-3.26-2.71,3.69,3.69,0,0,0-3.79,4,3.79,3.79,0,0,0,3.85,4,3.24,3.24,0,0,0,3.22-2.79Z" transform="translate(-327.96 -175.38)" fill="#231f20"/><path d="M512.64,394.5a6.67,6.67,0,1,1-6.66-6.67A6.66,6.66,0,0,1,512.64,394.5Zm-6.66-8a8,8,0,1,0,8,8A8,8,0,0,0,506,386.52Z" transform="translate(-327.96 -175.38)" fill="#231f20"/><path d="M504.6,395h1.31l2,3.26h1.28L507,395a2,2,0,0,0,2-2.08c0-1.48-.88-2.13-2.66-2.13h-2.86v7.52h1.14Zm0-1v-2.34h1.55c.79,0,1.64.18,1.64,1.11,0,1.16-.87,1.23-1.83,1.23Z" transform="translate(-327.96 -175.38)" fill="#231f20"/></svg>