<svg xmlns="http://www.w3.org/2000/svg" width="175" viewBox="0 0 112 90.19"><title>mcdonough-logo</title><rect x="0.14" width="59.53" height="59.75" fill="#00476c"/><path d="M252,374.89h9.69c9.27,0,15.76,2.9,15.76,13.2,0,10-6.68,13.43-15.76,13.43H252Zm7.1,21.36h2.75c5.3,0,8.27-2.75,8.27-8.05s-3.09-8.05-8.27-8.05h-2.75Z" transform="translate(-218.1 -341.65)" fill="#fff"/><rect x="59.68" y="33.26" width="52.03" height="56.64" fill="#f0e904"/><rect x="59.68" y="33.26" width="52.03" height="56.64" fill="none" stroke="#f0e904" stroke-width="0.58"/><path d="M281.12,375.45h-3.33v-.6h7.31l8,20.15,7.8-20.15h7.2v.6h-3.33v25.47h3.33v.6H297.3v-.6h3.56v-24h-.07l-9.25,24h-.34l-9.4-23.57h-.07v20.42c0,2.5.34,3.15,2.35,3.15h1.51v.6h-7.8v-.6h1c2,0,2.35-.65,2.35-3.15Z" transform="translate(-218.1 -341.65)" fill="#fff"/><path d="M319.69,392.88h-8.11L310,397.66a8,8,0,0,0-.57,2.31c0,.53.46.95,1.67.95h2v.6h-7.81v-.6h1.22c1.17,0,1.66-.12,2.38-2.24L317,374.24h.42l9.2,26.68h3.15v.6h-11.1v-.6h3.71Zm-4.09-12.09h-.08l-3.71,11.49h7.69Z" transform="translate(-218.1 -341.65)" fill="#fff"/><polygon points="0 33.24 11.18 33.24 16.83 50.94 16.9 50.94 22.82 33.24 33.58 33.24 33.58 59.87 26.63 59.87 26.75 39.42 26.67 39.42 19.88 59.87 13.35 59.87 6.87 39.42 6.79 39.42 6.95 59.87 0 59.87 0 33.24" fill="#fff"/><rect x="31.96" y="33.39" width="2.12" height="26.77" fill="#fff"/><path d="M259.12,396.26a5.9,5.9,0,0,1-5.9,5.6,7.22,7.22,0,0,1-7.44-7.51c0-4.79,3.51-8.74,7.65-8.74,2.46,0,5.05,1.13,5.05,3.4a1.73,1.73,0,0,1-1.68,1.83,1.6,1.6,0,0,1-1.69-1.57c0-1.46.88-1.39.88-1.94,0-.81-1.61-1.13-2.63-1.13-3.41,0-4.21,2.3-4.21,5.78v3.18c0,3.18.14,6.11,4.07,6.11a5.29,5.29,0,0,0,5.33-5Z" transform="translate(-218.1 -341.65)" fill="#f0e904"/><rect x="40.06" y="54.61" width="1.24" height="0.95" fill="#fff"/></svg>