<svg xmlns="http://www.w3.org/2000/svg" width="300" viewBox="0 0 405.97 144.73"><title>qws-logo</title><path d="M213.15,417.67c-.48-.26-.92-.48-1.37-.7,18.21-9.73,30.16-26,30.16-44.45,0-13.54-6.44-25.9-17.06-35.37,8.16,8.47,13,19,13,30.39,0,28-29.32,50.79-65.5,50.79s-65.49-22.74-65.49-50.79c0-11.34,4.79-21.81,12.89-30.27-10.54,9.46-16.93,21.77-16.93,35.25,0,29.79,31.14,53.94,69.55,53.94a86.72,86.72,0,0,0,28.49-4.74c6.28,5.24,22.82,8.83,34-4.33C234.89,417.39,222.85,422.83,213.15,417.67Z" transform="translate(-102.85 -323.9)" fill="#3cb4e5"/><path d="M201.7,346.07c7.56,5.83,12.24,13.91,12.24,22.84,0,17.8-18.6,32.22-41.54,32.22s-41.55-14.42-41.55-32.22c0-8.93,4.68-17,12.24-22.84-9.14,6.29-14.91,15.45-14.91,25.67,0,18.94,19.8,34.29,44.22,34.29s44.21-15.35,44.21-34.29C216.61,361.52,210.85,352.35,201.7,346.07Z" transform="translate(-102.85 -323.9)" fill="#3cb4e5" fill-rule="evenodd"/><path d="M294.69,424.91V413.43h-.25a22,22,0,0,1-8.94,9.81,25.48,25.48,0,0,1-13,3.39,28.54,28.54,0,0,1-10.3-1.66,17.25,17.25,0,0,1-6.9-4.75,19.26,19.26,0,0,1-3.89-7.53,37.83,37.83,0,0,1-1.23-10.11V361.27h7.77V402.7q.24,8.64,4,13.08t13,4.44a16.4,16.4,0,0,0,8.63-2.16,18.32,18.32,0,0,0,5.92-5.74,25.76,25.76,0,0,0,3.45-8.2,40.27,40.27,0,0,0,1.12-9.43V361.27h7.76v63.64Z" transform="translate(-102.85 -323.9)" fill="#2d2a26"/><path d="M314.84,371.13a18.34,18.34,0,0,1,5.36-6.66,22.91,22.91,0,0,1,8-3.82,38.79,38.79,0,0,1,10.11-1.23,45.06,45.06,0,0,1,8.39.8,20.21,20.21,0,0,1,7.52,3,16.51,16.51,0,0,1,5.43,6.23,22.58,22.58,0,0,1,2.09,10.42v33.79q0,4.69,4.56,4.69a6,6,0,0,0,2.47-.5v6.54c-.9.16-1.71.29-2.41.37a23.83,23.83,0,0,1-2.64.12,11.65,11.65,0,0,1-4.75-.8,6.37,6.37,0,0,1-2.78-2.28,8.47,8.47,0,0,1-1.29-3.52,29.45,29.45,0,0,1-.31-4.5h-.25a52.61,52.61,0,0,1-4.25,5.49,21.25,21.25,0,0,1-4.81,4,22.44,22.44,0,0,1-6,2.47,33.46,33.46,0,0,1-8.08.86,31.71,31.71,0,0,1-8.32-1.05,18.51,18.51,0,0,1-6.79-3.33,15.94,15.94,0,0,1-4.56-5.79,19.31,19.31,0,0,1-1.67-8.33q0-6.66,3-10.42a18.57,18.57,0,0,1,7.83-5.73,44.77,44.77,0,0,1,11-2.78q6.1-.79,12.39-1.54c1.65-.16,3.09-.37,4.32-.61a7.66,7.66,0,0,0,3.08-1.3,6,6,0,0,0,1.91-2.53,10.76,10.76,0,0,0,.68-4.19,14.26,14.26,0,0,0-1.29-6.48,10.37,10.37,0,0,0-3.58-4,14.54,14.54,0,0,0-5.3-2,36,36,0,0,0-6.48-.56q-7.39,0-12.09,3.52c-3.12,2.34-4.76,6.11-4.93,11.28H312.5a25.68,25.68,0,0,1,2.34-9.62m38.85,19a4.48,4.48,0,0,1-2.84,2,28.37,28.37,0,0,1-3.7.86q-4.93.87-10.17,1.54a56.71,56.71,0,0,0-9.56,2,18.79,18.79,0,0,0-7.09,3.88,9.28,9.28,0,0,0-2.78,7.22,11.33,11.33,0,0,0,1.17,5.24,12.79,12.79,0,0,0,3.15,3.95,14,14,0,0,0,4.56,2.53,16.81,16.81,0,0,0,5.3.86,26.57,26.57,0,0,0,8.51-1.36,20.79,20.79,0,0,0,7.09-3.95,18.75,18.75,0,0,0,6.6-14.67V390.13Z" transform="translate(-102.85 -323.9)" fill="#2d2a26"/><rect x="274.51" y="12.95" width="7.76" height="88.05" fill="#2d2a26"/><path d="M408,349.31h-7.77V336.85H408Zm0,75.6h-7.77V361.27H408Z" transform="translate(-102.85 -323.9)" fill="#2d2a26"/><path d="M448.15,361.27v6.53H435.2v42.92a13.91,13.91,0,0,0,1.05,6q1,2.16,5.24,2.41a62.08,62.08,0,0,0,6.66-.37v6.53c-1.15,0-2.3,0-3.46.13s-2.3.12-3.45.12q-7.77,0-10.85-3t-3-11.16V367.8h-11.1v-6.53h11.1V342.15h7.77v19.12Z" transform="translate(-102.85 -323.9)" fill="#2d2a26"/><path d="M460.48,361.27l21,54.26,19.6-54.26h7.77l-33.1,86.83a70.33,70.33,0,0,1-3.21,6.72,15.2,15.2,0,0,1-3.26,4.19,10.74,10.74,0,0,1-4.2,2.22c-1.6.45-7.21.53-9.67.55-1.5,0-1.41.05-3.66,0-.86,0-1.52,0-2.26,0v-6.66h2.65l2.8,0s6.57.09,7.68-.41a9.21,9.21,0,0,0,2.9-2,11.68,11.68,0,0,0,2.09-3.15c.58-1.23,1.19-2.59,1.85-4.07l8.19-20.72-25.4-63.39Z" transform="translate(-102.85 -323.9)" fill="#2d2a26"/><path d="M189.73,355.69A15.38,15.38,0,0,1,195.06,367c0,9.71-10.15,17.58-22.66,17.58s-22.67-7.87-22.67-17.58a15.4,15.4,0,0,1,5.34-11.33c-4.6,3.49-7.45,8.35-7.45,13.73,0,10.62,11.09,19.22,24.78,19.22s24.77-8.6,24.77-19.22C197.17,364,194.32,359.18,189.73,355.69Z" transform="translate(-102.85 -323.9)" fill="#3cb4e5" fill-rule="evenodd"/><polygon points="49.92 112.26 35.96 137.76 34.8 137.76 26.18 122.53 17.84 137.76 16.67 137.76 2.3 112.26 3.35 112.26 17.27 136.94 25.59 121.55 20.43 112.26 21.48 112.26 35.4 136.94 48.86 112.26 49.92 112.26" fill="#2d2a26"/><path d="M139,461.89h-1.44l-8.48-15-8.21,15h-1.44l-14.64-26h1.6l13.77,24.43,8-14.9-5.28-9.53h1.58l13.78,24.43,13.33-24.43h1.59Zm-1.17-.46h.89l13.7-25h-.52l-13.6,24.93L124.2,436.39h-.52l5,9.06-.07.11-8.51,15.76-14.06-24.93h-.51l14.1,25h.89L129,445.94Z" transform="translate(-102.85 -323.9)" fill="#2d2a26"/><path d="M177,461.66h-1.09v-5.3q-2.92,5.72-11.05,5.71a13.53,13.53,0,0,1-8.09-2.29,9.13,9.13,0,0,1,0-14.63,13.88,13.88,0,0,1,8.24-2.3,15.34,15.34,0,0,1,6.39,1.25,8.42,8.42,0,0,1,4.47,4.51v-5.68H177Zm-1.09-9.14a7.91,7.91,0,0,0-3.38-6.92,13.42,13.42,0,0,0-7.71-2,12,12,0,0,0-7.41,2.22,7.94,7.94,0,0,0-3.27,6.73,7.77,7.77,0,0,0,3.27,6.69,12.12,12.12,0,0,0,7.41,2.15,13.15,13.15,0,0,0,7.56-2.15,7.71,7.71,0,0,0,3.53-6.69" transform="translate(-102.85 -323.9)" fill="#2d2a26"/><path d="M164.89,462.31a13.83,13.83,0,0,1-8.23-2.34,9.37,9.37,0,0,1,0-15,14.23,14.23,0,0,1,8.38-2.34,15.69,15.69,0,0,1,6.49,1.26,9,9,0,0,1,4.14,3.71V442.7h1.56v19.2h-1.56v-4.65c-2.08,3.36-5.72,5.06-10.82,5.06m.19-19.22a13.78,13.78,0,0,0-8.11,2.25,8.24,8.24,0,0,0-3.59,7.18,8.15,8.15,0,0,0,3.56,7.07,13.37,13.37,0,0,0,7.95,2.25c5.29,0,8.94-1.88,10.85-5.59l.44-.86v6h.62V443.17h-.62v6.62l-.45-1.09a8.28,8.28,0,0,0-4.36-4.39,15.21,15.21,0,0,0-6.29-1.22m-.23,18.5a12.35,12.35,0,0,1-7.55-2.19,8,8,0,0,1-3.37-6.88,8.21,8.21,0,0,1,3.37-6.92,12.33,12.33,0,0,1,7.55-2.27,13.64,13.64,0,0,1,7.84,2.08,8.15,8.15,0,0,1,3.49,7.11,8,8,0,0,1-3.64,6.89,13.42,13.42,0,0,1-7.69,2.18m0-17.79a11.8,11.8,0,0,0-7.27,2.18,7.73,7.73,0,0,0-3.18,6.54,7.57,7.57,0,0,0,3.18,6.5,11.91,11.91,0,0,0,7.27,2.1,13,13,0,0,0,7.43-2.1,7.53,7.53,0,0,0,3.43-6.5,7.73,7.73,0,0,0-3.29-6.73,13.2,13.2,0,0,0-7.57-2" transform="translate(-102.85 -323.9)" fill="#2d2a26"/><polygon points="89.75 121.18 84.6 121.18 84.6 137.76 83.66 137.76 83.55 121.18 78.5 121.18 78.5 120.46 83.55 120.46 83.55 114.67 84.6 114.67 84.6 120.46 89.75 120.46 89.75 121.18" fill="#2d2a26"/><path d="M187.69,461.89h-1.41l-.11-16.58h-5v-1.19h5v-5.79h1.53v5.79h5.15v1.19h-5.15Zm-.94-.46h.47V444.84h5.15v-.25h-5.15V438.8h-.58v5.79h-5v.25h5Z" transform="translate(-102.85 -323.9)" fill="#2d2a26"/><path d="M219.2,452.6l-23.21,0q.15,8.73,11,8.73a15.72,15.72,0,0,0,5.8-1,7.65,7.65,0,0,0,4.39-3.72h1.13a7.85,7.85,0,0,1-4.81,4.36,18.26,18.26,0,0,1-6.62,1.09,14.57,14.57,0,0,1-8.31-2.1c-2.38-1.63-3.58-4.11-3.58-7.45a8.43,8.43,0,0,1,3.84-7.37,14.26,14.26,0,0,1,8.31-2.3,15.71,15.71,0,0,1,8.17,2,7.66,7.66,0,0,1,3.91,7Zm-1.32-.68a7.25,7.25,0,0,0-3.42-6.43,15,15,0,0,0-14.75,0,7.91,7.91,0,0,0-3.72,6.4Z" transform="translate(-102.85 -323.9)" fill="#2d2a26"/><path d="M206.86,462.31a14.74,14.74,0,0,1-8.44-2.15c-2.44-1.67-3.68-4.24-3.68-7.64a8.72,8.72,0,0,1,3.94-7.57,14.6,14.6,0,0,1,8.44-2.33,16,16,0,0,1,8.29,2,7.9,7.9,0,0,1,4,7.16v1.06l-23.2,0c.19,5.55,3.71,8.25,10.74,8.25a15.73,15.73,0,0,0,5.71-1,7.59,7.59,0,0,0,4.28-3.61l.06-.13h1.62l-.13.32a8.14,8.14,0,0,1-4.94,4.49,18.54,18.54,0,0,1-6.71,1.11m.26-19.22a14.08,14.08,0,0,0-8.17,2.25,8.26,8.26,0,0,0-3.74,7.18c0,3.24,1.17,5.68,3.47,7.25a14.3,14.3,0,0,0,8.18,2.07,18,18,0,0,0,6.53-1.08,7.81,7.81,0,0,0,4.55-3.9h-.63a8,8,0,0,1-4.46,3.7,16,16,0,0,1-5.88,1c-7.34,0-11.11-3-11.21-8.95v-.24l23.21,0v-.59a7.46,7.46,0,0,0-3.8-6.76,15.54,15.54,0,0,0-8-1.92m11,9.06H195.74l0-.25a8.11,8.11,0,0,1,3.83-6.57,15.19,15.19,0,0,1,15,0,7.53,7.53,0,0,1,3.53,6.63Zm-21.87-.46h21.39a7,7,0,0,0-3.31-6,14.76,14.76,0,0,0-14.49,0,7.66,7.66,0,0,0-3.59,6" transform="translate(-102.85 -323.9)" fill="#2d2a26"/><path d="M235.15,443.57c-3.39,0-6,1-7.94,2.9a10.77,10.77,0,0,0-2.86,7.93v7.26h-1.09V443.31h1.09v6.92c-.07-2.44,1.17-4.34,3.72-5.72a14.94,14.94,0,0,1,7.08-1.66Z" transform="translate(-102.85 -323.9)" fill="#2d2a26"/><path d="M224.59,461.89H223V443.07h1.57v4.6A7.21,7.21,0,0,1,228,444.3a15.28,15.28,0,0,1,7.19-1.68h.23v1.18h-.23a10.47,10.47,0,0,0-7.77,2.83,10.6,10.6,0,0,0-2.79,7.77Zm-1.1-.46h.63v-7a11.08,11.08,0,0,1,2.92-8.1,10.82,10.82,0,0,1,7.87-3v-.25a14.51,14.51,0,0,0-6.72,1.63c-2.33,1.25-3.54,3-3.6,5.1v.41h-.47a2.94,2.94,0,0,1,0-.42v-6.27h-.63Z" transform="translate(-102.85 -323.9)" fill="#2d2a26"/><path d="M277.64,455.46c0,2.25-1.54,4-4.63,5.11a25.28,25.28,0,0,1-8.76,1.35,27.2,27.2,0,0,1-9.48-1.39q-5.42-2.07-5.42-6.92v-.37h1.06v.22q0,7.76,13.91,7.75a25.29,25.29,0,0,0,7.49-1q4.74-1.5,4.74-4.89a4.17,4.17,0,0,0-1.88-3.65,13.24,13.24,0,0,0-4.1-1.46c-1-.23-3.45-.65-7.26-1.28a50.4,50.4,0,0,1-8.65-1.92q-4.22-1.65-4.21-4.89,0-6.24,12.86-6.24,13.47,0,13.61,7.41h-1.08q-.31-4.14-4.63-5.72a25,25,0,0,0-7.9-1q-11.77,0-11.77,5.53c0,1.86,1.12,3.25,3.38,4.17a34.53,34.53,0,0,0,7.26,1.58q9.1,1.25,12.08,2.64a5.14,5.14,0,0,1,3.38,4.93" transform="translate(-102.85 -323.9)" fill="#2d2a26"/><path d="M264.25,462.16a27.4,27.4,0,0,1-9.56-1.41c-3.7-1.41-5.57-3.81-5.57-7.14V453h1.53v.46c0,5,4.6,7.51,13.67,7.51a25.18,25.18,0,0,0,7.42-1c3.08-1,4.57-2.51,4.57-4.67a3.88,3.88,0,0,0-1.78-3.45,12.9,12.9,0,0,0-4-1.43c-1-.23-3.46-.65-7.25-1.28a51.54,51.54,0,0,1-8.7-1.93c-2.89-1.14-4.36-2.86-4.36-5.11,0-4.3,4.41-6.48,13.1-6.48,9.09,0,13.75,2.57,13.85,7.64v.24h-1.54l0-.22c-.19-2.68-1.66-4.48-4.47-5.51a24.78,24.78,0,0,0-7.82-1c-7.66,0-11.54,1.78-11.54,5.29,0,1.77,1.06,3.06,3.24,4a34.7,34.7,0,0,0,7.2,1.56c6.06.83,10.15,1.72,12.14,2.65a5.39,5.39,0,0,1,3.53,5.15c0,2.35-1.61,4.15-4.79,5.33a25.5,25.5,0,0,1-8.84,1.37m-14.66-8.69v.14c0,3.16,1.72,5.35,5.26,6.7a27,27,0,0,0,9.4,1.38,25.05,25.05,0,0,0,8.68-1.34c3-1.11,4.48-2.76,4.48-4.89a4.9,4.9,0,0,0-3.25-4.72c-2-.91-6-1.79-12-2.61a35.69,35.69,0,0,1-7.32-1.6c-2.34-1-3.53-2.44-3.53-4.39,0-3.83,4-5.76,12-5.76a25.06,25.06,0,0,1,8,1c2.9,1.05,4.5,3,4.77,5.7h.63c-.24-4.6-4.74-6.94-13.37-6.94-8.38,0-12.63,2-12.63,6,0,2.07,1.33,3.6,4.06,4.67a51.44,51.44,0,0,0,8.61,1.91c3.85.63,6.23,1,7.27,1.28a13.57,13.57,0,0,1,4.18,1.5,4.37,4.37,0,0,1,2,3.84c0,2.36-1.65,4.08-4.9,5.11a25.39,25.39,0,0,1-7.56,1c-9.38,0-14.14-2.68-14.15-8Z" transform="translate(-102.85 -323.9)" fill="#2d2a26"/><path d="M303.74,461q0,7.38-11.39,7.37a17.61,17.61,0,0,1-6.51-1.05q-3.69-1.47-3.88-4.74H283q.56,5.08,9.44,5.08,10.19,0,10.19-6.7v-4a7,7,0,0,1-4.06,4,14.77,14.77,0,0,1-5.79,1.05,13.88,13.88,0,0,1-6.51-1.35,5.67,5.67,0,0,1-3.24-5.34V443.31h1.1v12a5.12,5.12,0,0,0,2.85,4.82,12.33,12.33,0,0,0,5.8,1.2,11.61,11.61,0,0,0,6.92-1.84,7.22,7.22,0,0,0,2.93-6.25v-10h1.09Z" transform="translate(-102.85 -323.9)" fill="#2d2a26"/><path d="M292.35,468.63a18,18,0,0,1-6.6-1.07c-2.53-1-3.89-2.67-4-4.95v-.24h1.51l0,.2c.36,3.24,3.46,4.87,9.21,4.87,6.7,0,10-2.11,10-6.46v-2.92a7.72,7.72,0,0,1-3.74,3.18,15,15,0,0,1-5.88,1.07,14.22,14.22,0,0,1-6.62-1.38,5.92,5.92,0,0,1-3.36-5.55V443.07h1.56v12.27a4.85,4.85,0,0,0,2.74,4.61,12.07,12.07,0,0,0,5.68,1.17,11.45,11.45,0,0,0,6.78-1.79,7,7,0,0,0,2.84-6.06v-10.2H304V461c0,5.05-3.92,7.61-11.63,7.61m-10.13-5.8c.2,2,1.41,3.38,3.7,4.29a17.49,17.49,0,0,0,6.43,1c7.51,0,11.16-2.34,11.16-7.14V443.54h-.62v9.73a7.46,7.46,0,0,1-3,6.44,11.93,11.93,0,0,1-7.06,1.88,12.55,12.55,0,0,1-5.91-1.23,5.33,5.33,0,0,1-3-5v-11.8h-.62v11.84a5.41,5.41,0,0,0,3.11,5.13,13.66,13.66,0,0,0,6.4,1.33,14.53,14.53,0,0,0,5.7-1,6.85,6.85,0,0,0,3.93-3.88l.46-1.25V461c0,4.6-3.51,6.93-10.43,6.93-5.91,0-9.15-1.7-9.65-5.08Z" transform="translate(-102.85 -323.9)" fill="#2d2a26"/><path d="M328.87,457.07q0,2.94-3.5,4.21a17.41,17.41,0,0,1-5.94.87q-10.57,0-10.57-6.81H310q0,6,9.44,6a15.7,15.7,0,0,0,5.16-.75q3.08-1.1,3.08-3.54c0-1.9-1.88-3.2-5.64-3.87-.25-.05-2-.26-5.15-.64-4.64-.55-7-2.1-7-4.63,0-1.8,1.05-3.16,3.16-4.06a13.31,13.31,0,0,1,5.45-1.05q10.15,0,10.16,5.94h-1.21q0-5.14-8.68-5.15a12.84,12.84,0,0,0-4.86.86c-1.9.78-2.86,1.93-2.86,3.46,0,1.91,1.86,3.12,5.57,3.65l5.38.75q6.81.92,6.81,4.74" transform="translate(-102.85 -323.9)" fill="#2d2a26"/><path d="M319.43,462.38c-7.17,0-10.81-2.37-10.81-7v-.23h1.64v.23c0,3.89,3,5.78,9.2,5.78a15.49,15.49,0,0,0,5.08-.73c2-.7,2.92-1.78,2.92-3.32,0-1.76-1.83-3-5.44-3.64-.18,0-1.21-.17-5.14-.64-4.76-.56-7.17-2.2-7.17-4.86,0-1.9,1.12-3.34,3.31-4.27a13.39,13.39,0,0,1,5.54-1.08c6.9,0,10.39,2.08,10.39,6.18V449h-1.67v-.23c0-3.31-2.77-4.92-8.45-4.92a12.79,12.79,0,0,0-4.77.85c-1.83.74-2.71,1.8-2.71,3.24,0,1.76,1.8,2.91,5.36,3.42l5.38.75c4.65.62,7,2.29,7,5,0,2.06-1.23,3.55-3.65,4.44a18,18,0,0,1-6,.87m-10.33-6.8c.11,4.26,3.5,6.34,10.33,6.34a17.22,17.22,0,0,0,5.86-.86c2.25-.82,3.34-2.12,3.34-4,0-2.41-2.22-3.92-6.6-4.5l-5.38-.76c-3.83-.54-5.77-1.85-5.77-3.88,0-1.62,1-2.86,3-3.68a13.35,13.35,0,0,1,4.95-.88c5.79,0,8.78,1.73,8.91,5.15h.74c-.14-3.63-3.47-5.47-9.92-5.47a13.08,13.08,0,0,0-5.36,1c-2,.87-3,2.12-3,3.84,0,2.39,2.27,3.87,6.75,4.4,3.18.37,4.92.59,5.17.64,3.87.69,5.84,2.08,5.84,4.1,0,1.74-1.09,3-3.24,3.76a15.93,15.93,0,0,1-5.24.76c-6.29,0-9.55-2-9.67-6Z" transform="translate(-102.85 -323.9)" fill="#2d2a26"/><polygon points="240.91 121.18 235.75 121.18 235.75 137.76 234.81 137.76 234.7 121.18 229.66 121.18 229.66 120.46 234.7 120.46 234.7 114.67 235.75 114.67 235.75 120.46 240.91 120.46 240.91 121.18" fill="#2d2a26"/><path d="M338.84,461.89h-1.4l-.12-16.58h-5v-1.19h5v-5.79h1.52v5.79H344v1.19h-5.16Zm-.94-.46h.47V444.84h5.16v-.25h-5.16V438.8h-.58v5.79h-5v.25h5Z" transform="translate(-102.85 -323.9)" fill="#2d2a26"/><path d="M370.35,452.6l-23.2,0q.15,8.73,11,8.73a15.71,15.71,0,0,0,5.79-1,7.67,7.67,0,0,0,4.4-3.72h1.13a7.85,7.85,0,0,1-4.81,4.36,18.26,18.26,0,0,1-6.62,1.09,14.58,14.58,0,0,1-8.32-2.1q-3.57-2.45-3.57-7.45a8.43,8.43,0,0,1,3.84-7.37,14.22,14.22,0,0,1,8.31-2.3,15.7,15.7,0,0,1,8.16,2,7.64,7.64,0,0,1,3.91,7Zm-1.31-.68a7.24,7.24,0,0,0-3.43-6.43,15,15,0,0,0-14.74,0,7.91,7.91,0,0,0-3.72,6.4Z" transform="translate(-102.85 -323.9)" fill="#2d2a26"/><path d="M358,462.31a14.79,14.79,0,0,1-8.45-2.15c-2.44-1.67-3.67-4.24-3.67-7.64a8.71,8.71,0,0,1,3.93-7.57,14.64,14.64,0,0,1,8.45-2.33,16,16,0,0,1,8.28,2,7.91,7.91,0,0,1,4,7.16v1.06l-23.2,0c.19,5.55,3.7,8.25,10.74,8.25a15.73,15.73,0,0,0,5.71-1,7.54,7.54,0,0,0,4.27-3.61l.07-.13h1.62l-.13.32a8.16,8.16,0,0,1-4.95,4.49,18.48,18.48,0,0,1-6.7,1.11m.26-19.22a14.14,14.14,0,0,0-8.18,2.25,8.25,8.25,0,0,0-3.73,7.18c0,3.24,1.16,5.68,3.47,7.25a14.25,14.25,0,0,0,8.18,2.07,18,18,0,0,0,6.53-1.08,7.79,7.79,0,0,0,4.54-3.9h-.62a8,8,0,0,1-4.46,3.7,16,16,0,0,1-5.88,1c-7.34,0-11.12-3-11.22-8.95v-.24l23.21,0v-.59a7.46,7.46,0,0,0-3.8-6.76,15.56,15.56,0,0,0-8-1.92m11,9.06H346.89l0-.25a8.16,8.16,0,0,1,3.83-6.57,13.53,13.53,0,0,1,7.54-2,13.38,13.38,0,0,1,7.46,2,7.52,7.52,0,0,1,3.53,6.63Zm-21.87-.46h21.4a7,7,0,0,0-3.32-6,14.74,14.74,0,0,0-14.48,0,7.67,7.67,0,0,0-3.6,6" transform="translate(-102.85 -323.9)" fill="#2d2a26"/><path d="M410,461.66h-1V449.51q0-5.94-7.38-5.94a11.11,11.11,0,0,0-5.9,1.47,5.5,5.5,0,0,0-2.86,5v11.62h-1.09V449.51q0-5.94-7.53-5.94a9.19,9.19,0,0,0-6.08,2,7.12,7.12,0,0,0-2.56,5.76v10.34h-1.1V443.31h1.1v4.77a6.36,6.36,0,0,1,3.64-4.1,13,13,0,0,1,5.53-1.13,10.81,10.81,0,0,1,4.74,1,5.8,5.8,0,0,1,3.2,3.46c1.28-3,4.21-4.44,8.8-4.44q8.54,0,8.54,6.29Z" transform="translate(-102.85 -323.9)" fill="#2d2a26"/><path d="M410.19,461.89h-1.52V449.51c0-3.84-2.33-5.71-7.14-5.71a11,11,0,0,0-5.78,1.44A5.25,5.25,0,0,0,393,450v11.85h-1.57V449.51c0-3.84-2.38-5.71-7.28-5.71a9.11,9.11,0,0,0-6,1.94,6.94,6.94,0,0,0-2.47,5.58v10.57h-1.56V443.07h1.56v3.75a7,7,0,0,1,3.31-3.05,13.23,13.23,0,0,1,5.63-1.15,11.2,11.2,0,0,1,4.85,1,6.14,6.14,0,0,1,3.11,3.08c1.43-2.71,4.38-4.08,8.78-4.08,5.82,0,8.77,2.19,8.77,6.52Zm-1.05-.46h.58V449.14c0-4.07-2.71-6.05-8.3-6.05-4.47,0-7.35,1.44-8.58,4.29l-.25.57-.19-.58a5.57,5.57,0,0,0-3.08-3.32,10.57,10.57,0,0,0-4.64-1,12.66,12.66,0,0,0-5.43,1.11,6.15,6.15,0,0,0-3.52,3.94l-.46,1.73v-6.33h-.62v17.89h.62V451.32a7.4,7.4,0,0,1,2.64-5.94,9.5,9.5,0,0,1,6.25-2.05c5.15,0,7.75,2.08,7.75,6.18v11.92h.63V450a5.75,5.75,0,0,1,3-5.2,11.37,11.37,0,0,1,6-1.51c5.05,0,7.61,2.08,7.61,6.18Z" transform="translate(-102.85 -323.9)" fill="#2d2a26"/><path d="M435.05,457.07q0,2.94-3.5,4.21a17.41,17.41,0,0,1-5.94.87q-10.58,0-10.57-6.81h1.16q0,6,9.45,6a15.68,15.68,0,0,0,5.15-.75q3.07-1.1,3.08-3.54c0-1.9-1.88-3.2-5.64-3.87-.25-.05-2-.26-5.15-.64-4.64-.55-7-2.1-7-4.63,0-1.8,1.05-3.16,3.16-4.06a13.31,13.31,0,0,1,5.45-1.05q10.15,0,10.16,5.94h-1.21q0-5.14-8.69-5.15a12.82,12.82,0,0,0-4.85.86c-1.9.78-2.86,1.93-2.86,3.46,0,1.91,1.86,3.12,5.57,3.65l5.38.75q6.81.92,6.81,4.74" transform="translate(-102.85 -323.9)" fill="#2d2a26"/><path d="M425.61,462.38c-7.17,0-10.81-2.37-10.81-7v-.23h1.64v.23c0,3.89,3,5.78,9.2,5.78a15.54,15.54,0,0,0,5.08-.73c2-.7,2.93-1.78,2.93-3.32,0-1.76-1.84-3-5.45-3.64-.18,0-1.21-.17-5.14-.64-4.76-.56-7.17-2.2-7.17-4.86,0-1.9,1.11-3.34,3.3-4.27a13.47,13.47,0,0,1,5.55-1.08c6.89,0,10.39,2.08,10.39,6.18V449h-1.67v-.23c0-3.31-2.77-4.92-8.46-4.92a12.78,12.78,0,0,0-4.76.85c-1.82.74-2.71,1.8-2.71,3.24,0,1.76,1.8,2.91,5.36,3.42l5.38.75c4.65.62,7,2.29,7,5,0,2.06-1.23,3.55-3.65,4.44a18,18,0,0,1-6,.87m-10.34-6.8c.12,4.26,3.51,6.34,10.34,6.34a17.22,17.22,0,0,0,5.86-.86c2.25-.82,3.34-2.12,3.34-4,0-2.41-2.22-3.92-6.6-4.5l-5.38-.76c-3.83-.54-5.77-1.85-5.77-3.88,0-1.62,1-2.86,3-3.68a13.3,13.3,0,0,1,4.94-.88c5.79,0,8.79,1.73,8.92,5.15h.74c-.14-3.63-3.47-5.47-9.92-5.47a13.08,13.08,0,0,0-5.36,1c-2,.87-3,2.12-3,3.84,0,2.39,2.27,3.87,6.75,4.4,3.17.37,4.91.59,5.18.64,3.86.69,5.83,2.08,5.83,4.1,0,1.74-1.09,3-3.25,3.76a15.82,15.82,0,0,1-5.23.76c-6.29,0-9.55-2-9.67-6Z" transform="translate(-102.85 -323.9)" fill="#2d2a26"/><path d="M172.38,323.9s-11,20.3-11,26.38a11,11,0,0,0,22,0C183.38,344.2,172.38,323.9,172.38,323.9ZM169.64,357c-3.87,3.31-13.79-9.89-1.27-17.77,0,0-3.68,6-.19,10.88S170.46,356.28,169.64,357Z" transform="translate(-102.85 -323.9)" fill="#3cb4e5"/></svg>