<svg xmlns="http://www.w3.org/2000/svg" width="250" viewBox="0 0 521.18 203.06"><title>widernet-logo</title><path d="M340.73,245.77a3.16,3.16,0,0,1,2.64,0Z" transform="translate(-42.07 -42.71)" fill="#c5c7c8"/><path d="M120.47,137.25l-17.68,47.06a5.64,5.64,0,0,1-5.33,3.63,5.73,5.73,0,0,1-5.33-3.75L81.47,152.85,70.8,184.19a5.54,5.54,0,0,1-5.19,3.75,5.83,5.83,0,0,1-5.47-3.63L42.47,137.25a5.36,5.36,0,0,1-.4-2.08,5.84,5.84,0,0,1,3.51-5.33,6.13,6.13,0,0,1,2.22-.39A5.37,5.37,0,0,1,53,133l12.09,33,11.18-32.77a5.47,5.47,0,0,1,5.2-3.76,5.57,5.57,0,0,1,5.19,3.76L97.84,166l12.23-32.9a5.48,5.48,0,0,1,5.2-3.63,6.07,6.07,0,0,1,2.21.39,5.83,5.83,0,0,1,3.5,5.33,6.1,6.1,0,0,1-.51,2.08" transform="translate(-42.07 -42.71)" fill="#326698"/><path d="M138,115.27a7,7,0,0,1-7-7,7.1,7.1,0,0,1,7-7.16,7.22,7.22,0,0,1,7.14,7.16,7.09,7.09,0,0,1-7.14,7m0,72.67a6.26,6.26,0,0,1-6.24-6.36V135.81a6.27,6.27,0,0,1,6.24-6.36,6.38,6.38,0,0,1,6.37,6.36v45.77a6.37,6.37,0,0,1-6.37,6.36" transform="translate(-42.07 -42.71)" fill="#326698"/><path d="M211.34,187.94a6.38,6.38,0,0,1-6.38-6.36v-3c-3.63,6.23-10.52,9.89-18.58,9.89-16.51,0-28.22-12.75-28.22-29.77s11.32-29.79,28.22-29.79c8.32,0,15.33,4,18.58,10V105.39a6.38,6.38,0,0,1,12.75,0v76.19a6.37,6.37,0,0,1-6.37,6.36m-23.41-47.7c-10.4,0-17,8.32-17,18.47s6.63,18.45,17,18.45,17-7.93,17-18.45-6.62-18.47-17-18.47" transform="translate(-42.07 -42.71)" fill="#326698"/><path d="M282.71,162.6H242.53c.65,8.71,7.67,15.2,17,15.2a23.89,23.89,0,0,0,16.89-7.13,4.09,4.09,0,0,1,3.13-1.18,5.36,5.36,0,0,1,4.15,2.08,5.2,5.2,0,0,1,1.05,3,6.06,6.06,0,0,1-1.82,4.16c-5.45,5.86-14.7,9.76-23.8,9.76a29.68,29.68,0,0,1-29.76-29.77c0-16.52,12.87-29.79,29.37-29.79s28.61,12.75,28.61,29.52a4.41,4.41,0,0,1-4.68,4.16m-23.93-23c-8.71,0-14.68,5.71-16,14h32c-1.16-7.93-7.4-14-16-14" transform="translate(-42.07 -42.71)" fill="#326698"/><path d="M332.5,140.24c-10.28,0-20,5.59-20,16.77v24.57a6.36,6.36,0,1,1-12.72,0V135.81a6.26,6.26,0,0,1,6.23-6.36,6.48,6.48,0,0,1,6.49,6.36v2.74c5.22-6.89,11.05-9.63,20-9.63a5.55,5.55,0,0,1,5.58,5.6,5.65,5.65,0,0,1-5.58,5.72" transform="translate(-42.07 -42.71)" fill="#326698"/><path d="M398.54,187.94a3.72,3.72,0,0,1-3.77-3.89V154.92c0-10.79-5.85-19.11-18.08-19.11a19.51,19.51,0,0,0-19.76,19.38v28.86a3.91,3.91,0,0,1-7.81,0V133.36a3.73,3.73,0,0,1,3.78-3.91,3.91,3.91,0,0,1,3.9,3.91v6.23c4.29-6.51,12.74-10.67,21.45-10.67,14.95,0,24.32,11.32,24.32,26.14v29a3.94,3.94,0,0,1-4,3.89" transform="translate(-42.07 -42.71)" fill="#b1b3b5"/><path d="M469.36,160.78H422.94a21.68,21.68,0,0,0,21.86,21.06c8.57,0,14.43-3.77,19.23-9.1a3.16,3.16,0,0,1,2.48-1.29,3.44,3.44,0,0,1,2.07.76,3.24,3.24,0,0,1,1.17,2.48,3.4,3.4,0,0,1-.78,2.08c-4.42,6-13.64,11.71-24.43,11.71a29.5,29.5,0,0,1-29.65-29.77c0-16.65,12.48-29.79,29-29.79,16.24,0,28.47,13.27,28.47,29.13a2.68,2.68,0,0,1-3,2.73m-25.47-25.22c-11.45,0-19.77,8.32-20.95,19.36h41.61c-1.16-10.91-9.22-19.36-20.66-19.36" transform="translate(-42.07 -42.71)" fill="#b1b3b5"/><path d="M508.37,137.12H496.8v47.07a3.6,3.6,0,0,1-3.77,3.75,3.81,3.81,0,0,1-4-3.75V137.12H478.73a3.25,3.25,0,0,1,0-6.5H489V111.51a3.93,3.93,0,0,1,4-3.9,3.72,3.72,0,0,1,3.77,3.9v19.11h11.57a3.25,3.25,0,1,1,0,6.5" transform="translate(-42.07 -42.71)" fill="#b1b3b5"/><path d="M250.74,227.47c0,3.74-5.19,6.26-10.08,6.26-6.2,0-8.93-4.42-8.93-10.12,0-10.54,7-17.33,15.36-17.33,3.36,0,6.47,1.51,7,3.33a7.07,7.07,0,0,1-3.16,3.66l-.57-.52,0-.37a4,4,0,0,0-4.3-3.7c-6.71,0-10,7.4-10,13.68,0,4.77,2,8.64,6.8,8.64a10.41,10.41,0,0,0,7.8-3.89l0,.36" transform="translate(-42.07 -42.71)" fill="#b1b3b5"/><path d="M269.2,229.4c0,1.56.77,1.88,1.53,1.88a3,3,0,0,0,.95-.16l.29.72s-2.34,1.89-4.22,1.89c-3.05,0-2.37-3.86-1.81-5.5-1.69,3.09-4.58,5.5-6.92,5.5-2.09,0-4.17-2-4.17-6.39,0-7.76,4.85-14.59,11-14.59,1.48,0,4.26.67,6.16.8l-1,5c-.16.84-.32,1.68-1.52,7.79a25.85,25.85,0,0,0-.28,3m-4.35-14.48c-3.25,0-6.31,5.66-6.31,12,0,2.9,1.24,3.94,2.54,3.94,1.59,0,3.73-2.46,4.78-3.77A91.32,91.32,0,0,0,268,215.39a14.53,14.53,0,0,0-3.14-.47" transform="translate(-42.07 -42.71)" fill="#b1b3b5"/><path d="M282.54,212.82c3,0,5.14,1.29,5.14,3.18a2.2,2.2,0,0,1-2.05,2.25,1.9,1.9,0,0,1-1.08-.44,4.14,4.14,0,0,0,.13-1.05c0-1-.49-2-2.7-2a3.3,3.3,0,0,0-3.51,3.18c0,3.58,7.89,3.74,7.89,9.09,0,4.5-3.94,6.71-7.8,6.71-3.62,0-6.54-3-4.35-5.55.05,1.53,2.58,3.21,4.8,3.21,1.81,0,3.7-.79,3.7-3.24,0-3.14-7.37-3.5-7.37-8.9,0-3.49,3.26-6.43,7.2-6.43" transform="translate(-42.07 -42.71)" fill="#b1b3b5"/><path d="M296.45,213.42h4.74c1.18,0,1.46-.48,1.46-.48l0,.29c0,1.69-1.68,2.65-3.5,2.65-.71,0-1.88-.08-2.61-.08l-.56,0c0,1.77-2.13,9.21-2.17,12.23,0,1.48.53,2.4,2.49,2.4a7.6,7.6,0,0,0,4.18-1.95v.35c0,2.89-3.37,4.86-6.18,4.86-2.29,0-4.27-1.25-4.23-4,0-3.19,2.3-9.78,2.37-12.92a2.06,2.06,0,0,0-.12-.84,2.2,2.2,0,0,0-1.53-1.37l.45-1.21c.16,0,1.84.09,4.37-3.33h1.9l-1.09,3.33" transform="translate(-42.07 -42.71)" fill="#b1b3b5"/><path d="M303.32,233.05c2.94-15.4,2.94-15.84,2.94-16,0-1-.48-1.45-1.08-1.45l-.32,0-.37-.65a6.32,6.32,0,0,1,4.28-2c1.07,0,1.51.85,1.48,1.89a40.61,40.61,0,0,1-.89,4.19c-.32,1.64-1.17,6.94-1.89,11.21a12.57,12.57,0,0,0-.24,2.29l0,.72h-3.9l0-.15m6.13-27.7a2.08,2.08,0,0,1,2,2.08,2.27,2.27,0,0,1-2.13,2.18,2.1,2.1,0,0,1-2.05-2.18,2.14,2.14,0,0,1,2.14-2.08" transform="translate(-42.07 -42.71)" fill="#b1b3b5"/><path d="M327.41,212.75c1.81,0,3.62,1.45,3.42,4.33-.16,2.06-2.57,12.27-2.57,16.12h-3.83a13.42,13.42,0,0,1,.29-1.92c2-10.61,2-11.1,2.09-11.74.28-2.33-.08-3.62-1.7-3.62-2.32,0-5,2.05-6.38,3.89-.29,1.66-1.13,6.11-1.86,10.38-.12.85-.19,1.62-.24,2.29v.72h-3.89v-.15l2.89-15.12c.21-1-.12-2.37-1-2.37l-.33,0L314,215a6.17,6.17,0,0,1,4.25-2c1.09,0,1.48.85,1.48,1.89a15.49,15.49,0,0,1-.63,3.29c1.43-2,4.91-5.33,8.36-5.33" transform="translate(-42.07 -42.71)" fill="#b1b3b5"/><path d="M343.73,212.82c1.49,0,4.7.6,6.59.73l-1,5c-.16.85-.36,1.69-1.56,7.8a23.87,23.87,0,0,0-.28,3c.28,6.42.28,5.38.28,5.5,0,6.15-5.4,8.48-10.14,8.48-3.86,0-7.19-1.41-7.19-4a2.45,2.45,0,0,1,2.37-2.61,1.65,1.65,0,0,1,1.52.84,3.46,3.46,0,0,0-.44,1.57c0,1.72,2,2.45,4.3,2.45,5.31,0,5.84-3.78,5.84-6.47,0-1.73-.29-2.53-.29-4.62a2.8,2.8,0,0,1,.08-.76,7.24,7.24,0,0,1-6,3.93c-3.13,0-4.34-2.85-4.34-6.47.13-6.11,4.19-14.44,10.22-14.44m-4.14,18a6.13,6.13,0,0,0,4.14-1.94,114.17,114.17,0,0,0,2.3-13.38,8.42,8.42,0,0,0-2.74-.53c-3.14,0-6,7-6,11.7,0,2.38.55,4.15,2.29,4.15" transform="translate(-42.07 -42.71)" fill="#b1b3b5"/><path d="M376.38,229.4c0,1.56.76,1.88,1.53,1.88a3.14,3.14,0,0,0,1-.16l.28.72s-2.33,1.89-4.22,1.89c-3.05,0-2.37-3.86-1.8-5.5-1.69,3.09-4.59,5.5-6.92,5.5-2.1,0-4.18-2-4.18-6.39,0-7.76,4.86-14.59,11-14.59,1.49,0,4.27.67,6.15.8l-1,5c-.17.84-.32,1.68-1.53,7.79a25.85,25.85,0,0,0-.28,3M372,214.92c-3.25,0-6.31,5.66-6.31,12,0,2.9,1.25,3.94,2.53,3.94,1.61,0,3.75-2.46,4.79-3.77a87.93,87.93,0,0,0,2.13-11.68,14.4,14.4,0,0,0-3.14-.47" transform="translate(-42.07 -42.71)" fill="#b1b3b5"/><path d="M412.88,234.06l-1.37-.37a3,3,0,0,1-2.28-3.06l-1.41-11-6.11,11L400,234.06l-1.36-.37a3,3,0,0,1-2.29-3.06l-2.22-17.4c-.6-4.66-1.57-5.72-1.77-5.8l.4-.67a8,8,0,0,1,2.9-.57,2.36,2.36,0,0,1,2,.72c.12,4.18,1.73,18.66,2.67,22.35a25.29,25.29,0,0,1,1.39-3l5.55-10.69-.28-2.37c-.55-4.66-1.56-5.72-1.77-5.8l.41-.67a8.08,8.08,0,0,1,2.93-.57,2.43,2.43,0,0,1,2.05.72c.12,4.18,1.73,18.66,2.62,22.35a22.84,22.84,0,0,1,1.44-3l7.28-14a8.56,8.56,0,0,0,1.09-2.61,2.8,2.8,0,0,0-.4-2.26l.4-.67a5.29,5.29,0,0,1,2.25-.41,5,5,0,0,1,2.21.41,30.9,30.9,0,0,1-2.46,5.34l-10.4,18.53-1.78,3.43" transform="translate(-42.07 -42.71)" fill="#b1b3b5"/><path d="M425.55,233.05c2.93-15.4,2.93-15.84,2.93-16,0-1-.48-1.45-1.09-1.45l-.32,0-.36-.65a6.34,6.34,0,0,1,4.27-2c1.08,0,1.52.85,1.48,1.89a40.65,40.65,0,0,1-.88,4.19c-.32,1.64-1.17,6.94-1.89,11.21a12.57,12.57,0,0,0-.24,2.29l0,.72H425.5l.05-.15m6.11-27.7a2.09,2.09,0,0,1,2,2.08,2.27,2.27,0,0,1-2.13,2.18,2.13,2.13,0,0,1,.08-4.26" transform="translate(-42.07 -42.71)" fill="#b1b3b5"/><path d="M446.09,230.47a10.42,10.42,0,0,1,.09-1.28V229c-2.05,2.89-4.76,4.7-7.13,4.7-2.61,0-4.3-2.21-4.3-6.87,0-6,3.75-14,11.06-14a10.73,10.73,0,0,1,3.33.6l.93-5.22c.29-1.29.29-3.58-1.17-3.62l.16-.72a6.67,6.67,0,0,1,3.35-1c2.36,0,2.12,1.89,1.8,3.67-.12.8-1.8,8.4-2.12,10C451,222,450,227.26,450,229.26c0,1.62.65,2,1.42,2a4,4,0,0,0,1-.16l.28.72c-.92.68-2.88,1.89-4.34,1.89-1.89,0-2.33-1.68-2.33-3.26m2.7-15.08a9.09,9.09,0,0,0-3.38-.47c-5.23,0-7,6.83-7,11.58,0,2.57.53,4.54,2.29,4.54,1.49,0,4.1-1.85,5.79-3.93.37-2,1-4.71,1.09-5.44Z" transform="translate(-42.07 -42.71)" fill="#b1b3b5"/><path d="M454.85,225.76c.16-7.22,5.32-12.94,10.21-12.94,3.64,0,5.32,1.74,5.27,4.26-.07,4.31-5.33,6.84-10.93,6.84h-.81a8.46,8.46,0,0,0-.08,1.05c0,2.65,1.33,5.71,4.39,5.71a9.13,9.13,0,0,0,6.59-3.55c.16,3.55-4.18,6.6-8.32,6.6-3.58,0-6.39-2.94-6.32-8m3.95-3.28c3.41-.29,7.64-1,7.72-5.27a1.87,1.87,0,0,0-2-2.13c-3,0-5.18,4.26-5.7,7.4" transform="translate(-42.07 -42.71)" fill="#b1b3b5"/><path d="M472.26,233.2c.49-2.41,1.65-8.11,2.74-13.71a11.19,11.19,0,0,0,.25-2.32c0-1.41-.7-1.61-1.1-1.61l-.29,0-.34-.65a6.28,6.28,0,0,1,4-2,1.55,1.55,0,0,1,1.75,1.73,6.31,6.31,0,0,1-.31,1.77,15.45,15.45,0,0,0-1,3.26c.61-1.58,3.59-6.91,7.48-6.91,1.7,0,2.26.93,2.26,1.85,0,1.48-1.33,2.41-2.58,2.76a1.69,1.69,0,0,0-1.72-1.41c-3.79,0-5.84,7.73-6.36,10.5a49.07,49.07,0,0,0-.86,6.75h-3.89" transform="translate(-42.07 -42.71)" fill="#b1b3b5"/><path d="M503.66,210.81a2.18,2.18,0,0,1-2.45,2.05,2.07,2.07,0,0,1-1.88-2.21c0-2,2.05-5,6.47-7.51l.52,1c-2.55,2.22-3.63,3.38-3.63,5.2,0,.88.45,1.12.94,1.12l0,.4" transform="translate(-42.07 -42.71)" fill="#b1b3b5"/><path d="M509,221c-.9,4.74-1.78,9.74-1.95,12.25h-2.8l.12-.64c1-5.22,2-10.44,2.73-14.35s1.29-6.47,1.29-6.47c.36-2.13.36-3.21-.2-4.34l.39-.69a3.63,3.63,0,0,1,2.26-.4c1.5,2.37.65,1.29,12.07,18.61a8.55,8.55,0,0,1,1,2.58,24.33,24.33,0,0,1,.23-2.54s.09-.56,2.5-13.22c.43-2.37.33-3.54-.2-4.34l.39-.69a4.38,4.38,0,0,1,2.06-.48,2.67,2.67,0,0,1,1.69.44c-1.25,5.35-2.85,12.54-4.07,18.86-.56,3.06-1,5.79-1.25,7.67h-2.17l-11.37-17.88a13.27,13.27,0,0,1-1.13-2.5,11.52,11.52,0,0,1-.19,1.78c-.42,2-1,4.35-1.37,6.35" transform="translate(-42.07 -42.71)" fill="#b1b3b5"/><path d="M532.25,225.76c.17-7.22,5.3-12.94,10.21-12.94,3.62,0,5.31,1.74,5.27,4.26-.07,4.31-5.35,6.84-10.93,6.84H536c0,.32-.08.68-.08,1.05,0,2.65,1.34,5.71,4.39,5.71a9.16,9.16,0,0,0,6.6-3.55c.16,3.55-4.18,6.6-8.33,6.6-3.58,0-6.39-2.94-6.31-8m4-3.28c3.4-.29,7.63-1,7.71-5.27a1.86,1.86,0,0,0-2-2.13c-3,0-5.19,4.26-5.7,7.4" transform="translate(-42.07 -42.71)" fill="#b1b3b5"/><path d="M557,213.42h4.75c1.16,0,1.45-.48,1.45-.48l0,.29c0,1.69-1.68,2.65-3.49,2.65-.74,0-1.89-.08-2.62-.08l-.57,0c0,1.77-2.12,9.21-2.17,12.23,0,1.48.54,2.4,2.5,2.4a7.63,7.63,0,0,0,4.18-1.95v.35c-.05,2.89-3.38,4.86-6.18,4.86-2.3,0-4.27-1.25-4.22-4,0-3.19,2.27-9.78,2.36-12.92a2.25,2.25,0,0,0-.12-.84,2.21,2.21,0,0,0-1.53-1.37l.45-1.21c.16,0,1.84.09,4.38-3.33h1.87L557,213.42" transform="translate(-42.07 -42.71)" fill="#b1b3b5"/><path d="M448.93,44.34c-2.16,2.16-2,5.87.43,8.26l13.17,13.19a6.16,6.16,0,0,1,0,8.69l-5.16,5.15a6.14,6.14,0,0,1-8.69,0l-5.34-5.34a6,6,0,0,1-.28-8.4,5.55,5.55,0,1,0-7.84-7.84,6,6,0,0,1-8.41-.29L413.55,44.5a6.17,6.17,0,0,0-8.7,0L369.93,79.43a6.16,6.16,0,0,1-8.69,0l-5-5a6.18,6.18,0,0,1,0-8.69l5.35-5.33a6,6,0,0,1,8.45-.24,5.69,5.69,0,0,0,8,.19c2.16-2.15,2-5.87-.42-8.27l-7.32-7.3a6.13,6.13,0,0,0-8.68,0L340.76,65.62a6.17,6.17,0,0,0,0,8.68l42.6,42.61a6.17,6.17,0,0,0,8.7,0l7.28-7.3c2.38-2.4,2.59-6.1.42-8.26a5.69,5.69,0,0,0-8.06.22,6,6,0,0,1-8.49-.19L378,96.19a6.2,6.2,0,0,1,0-8.69l5.36-5.34a6.17,6.17,0,0,1,8.7,0l27,27.06c2.39,2.38,4.34,4.35,4.34,4.35s1.72,1.74,3.83,3.85,5.8,1.89,8.18-.5l42.6-42.6a6.16,6.16,0,0,0,0-8.69L457.2,44.77c-2.39-2.4-6.11-2.59-8.27-.43m-43.76,16a6.17,6.17,0,0,1,8.68,0L419,65.54c2.39,2.39,4.33,4.36,4.31,4.38s1.7,1.81,3.86,4,4,3.91,4,3.88,2,1.91,4.39,4.29l5.34,5.34a6.17,6.17,0,0,1,0,8.69l-5.36,5.36a6.19,6.19,0,0,1-8.7,0l-5.33-5.34a6,6,0,0,1-.23-8.46,5.55,5.55,0,1,0-7.85-7.83,6,6,0,0,1-8.44-.24l-5.18-5.19a6.13,6.13,0,0,1,0-8.69Z" transform="translate(-42.07 -42.71)" fill="#326698"/><path d="M457.85,108.94v1.12h-2.13v5.57h-1.34v-5.57h-2.11v-1.12h5.58m7.23,6.69-.24-3.93c0-.51,0-1.13-.06-1.86h-.07c-.17.58-.35,1.37-.56,2l-1.2,3.71h-1.38l-1.18-3.8c-.14-.5-.35-1.31-.49-1.89h-.09c0,.6,0,1.28,0,1.86l-.25,3.93h-1.28l.49-6.69h2l1.13,3.28a15.82,15.82,0,0,1,.43,1.69h.07c.13-.59.31-1.18.44-1.64l1.15-3.33h1.93l.5,6.69Z" transform="translate(-42.07 -42.71)" fill="#326698"/></svg>