<svg xmlns="http://www.w3.org/2000/svg" width="350" viewBox="0 0 447.53 92.8"><title>nectar-logo</title><path d="M414,376.13V400h-7.75V421.5H379.34V328.85H414q15.9,0,23.51,8.38t7.62,25.86V421.5H418.28V361.58q0-5.29-1.26-7.35t-4.5-2.05q-6.28,0-6.29,9.4v14.55Z" transform="translate(-82.23 -328.7)" fill="#414042"/><path d="M279.41,402.6l1.78-.14Zm-2.48-30.82h-1.51v1.51h1.51ZM270,403.17l-4.14.16a37.45,37.45,0,0,1-7.87-2c-.08,0-.19,0-.27-.05s-.11-.11-.18-.13l-.66-.27a3.23,3.23,0,0,1-.49-.18c-.42-.21-1-.47-1.46-.71a28.45,28.45,0,0,1-3.16-1.86c-.07-.05-.21-.1-.31-.18s0-.08,0-.09c-.19-.13-.4-.2-.58-.35s0-.05-.09-.09l-.26-.18-.49-.35c-.09-.06-.28-.25-.4-.36L249,396a25.6,25.6,0,0,1-3.33-3.55,1.55,1.55,0,0,0-.13-.17c0-.05-.15-.09-.18-.14s-.12-.31-.22-.44-.12,0-.13,0a1.13,1.13,0,0,0-.22-.4c-.05,0-.07-.12-.14-.18s-.22-.32-.31-.44c-.28-.44-.56-.87-.84-1.34,0,0,0-.09,0-.13a9.37,9.37,0,0,1-.93-1.73c-.07-.14-.16-.26-.22-.4s0-.19-.05-.27-.1-.11-.13-.17c-.09-.22-.16-.43-.27-.67a1,1,0,0,0,0-.14c-.09-.12-.07-.29-.18-.48a10.38,10.38,0,0,1-.53-1.47,16.53,16.53,0,0,1-.53-1.95c-.08-.35-.2-.69-.27-1a10.19,10.19,0,0,1-.13-1.11c-.05-.36-.16-.7-.18-1.07a26,26,0,0,1-.09-3.68c.06-.75.2-1.48.27-2.22a11.91,11.91,0,0,1,.31-1.6c0-.18,0-.36.09-.53.14-.66.38-1.3.57-1.91a26.36,26.36,0,0,1,2.31-5.24c.31-.53.65-1,1-1.51.06-.09.06-.12.13-.22s.19-.31.31-.49.39-.55.58-.8c0,0,.12,0,.13,0s0-.11,0-.14.14-.14.23-.26.24-.27.35-.4.14-.09.18-.13.13-.3.22-.4.26-.21.36-.32a27.76,27.76,0,0,1,2.17-2.17c.11-.1.25-.17.36-.27a18.23,18.23,0,0,1,2.48-1.86,29.59,29.59,0,0,1,8.17-3.86l1.15-.36c.4-.12.84-.22,1.26-.32l1.19-.26c.42-.08.64-.14,1.09-.21l.37-.05a2.91,2.91,0,0,1,.32,0h2c1.9.14,3.79.3,5.66.38,2.6.12,5.22.36,7.82.49,1.3.07,2.61.17,3.9.22s2.33.12,3.49.19V328.85H261.79q-20.33,0-34.2,13.77t-13.87,34q0,20.06,13.6,33.6c9.08,9,20.35,11.3,33.81,11.3H288.3V402c-2.57.11-6.28.45-8.89.57C276.36,402.73,273.18,403,270,403.17Zm16.8-31.39v1.51h1.5v-1.51Zm0,9h1.5v-1.5h-1.5Zm-11.4,0h1.51v-1.5h-1.51Z" transform="translate(-82.23 -328.7)" fill="#414042"/><polygon points="217.59 0.15 217.59 22.55 238.18 22.55 238.19 92.68 265.07 92.68 265.07 22.55 285.6 22.55 285.6 0.15 217.59 0.15" fill="#414042"/><path d="M458,380.81h1.5v-1.5H458Zm10.71,22.68c-3.13-.15-6.27-.48-9.41-.62-.88,0-1.76-.1-2.65-.16V421.5h26.89V402.81l-7.59.94Zm-9.21-31.71H458v1.51h1.5Zm69.27-7.58c-1.76-13.07-11.41-22.51-11.41-22.51A41.8,41.8,0,0,0,488,328.85H441.84c1.37.34,3.62,1.37,6.47,4.45,3.2,3.46,5.67,9.67,7.07,16.69h1.3l.92,0,3.86-.27c1.28-.08,2.58-.2,3.87-.26s2.23-.13,3.46-.23l3.42-.17c.33,0,.62-.09.93-.09a46.16,46.16,0,0,1,5.95.26c.62.09,1.25.1,1.86.18.3,0,.6.13.89.18a35,35,0,0,1,5.77,1.46,37.06,37.06,0,0,1,5.64,2.62c.06,0,.06.11.13.14a2.94,2.94,0,0,1,.54.26c.2.14.37.32.57.45s.25.11.36.18.07.09.13.13a3.49,3.49,0,0,1,.31.18c.5.36,1.08.82,1.6,1.24.05,0,.2.21.27.27s.46.38.71.57.41.46.62.67c.47.49,1,1,1.51,1.55.64.74,1.2,1.55,1.82,2.31.27.62.77,1,1,1.69a3,3,0,0,1,.58.89,24.28,24.28,0,0,1,1.55,3.41c.05.12.07.25.14.4a19.73,19.73,0,0,1,.84,2.89,20.45,20.45,0,0,1,.54,3,25.94,25.94,0,0,1-.49,7.85,29.88,29.88,0,0,1-1.82,5.29c-.22.48-.46,1-.71,1.42-.05.08-.1.14-.14.22s0,.19-.09.27-.13.1-.17.18a4.08,4.08,0,0,1-.31.57s-.07.05-.09.09a5.4,5.4,0,0,1-.23.49s-.12.11-.17.18a6.49,6.49,0,0,0-.49.75,2.28,2.28,0,0,1-.22.31c-.11.14-.22.27-.31.4s-.4.53-.63.8a2.53,2.53,0,0,1-.13.22c0,.06-.18.08-.22.14s0,.19-.09.26-.17.08-.22.14c-.32.36-.65.74-1,1.1l-.71.71a2.44,2.44,0,0,1-.76.67c-.14.31-.49.39-.66.67-.31.13-.43.45-.8.53a10.79,10.79,0,0,1-2,1.42,4,4,0,0,0-.39.27c-.16.11-.45.23-.67.35s-.68.43-1,.62-.56.3-.85.43l9.52,21.27H528.8l-9-21.42C531.77,387.43,530.24,374.92,528.8,364.2Zm-59.38,16.61h1.5v-1.5h-1.5Zm1.5-9h-1.5v1.51h1.5Z" transform="translate(-82.23 -328.7)" fill="#414042"/><path d="M203.21,363.86c-1.52,4.9-2.23,15-.67,22.54H191.67q-3.57,0-5.06,1.06a4.08,4.08,0,0,0-1.49,3.57c0,1.9.51,3.15,1.52,3.75s3.09.89,6.23.89h11.67s2.81,14.73,19.39,25.83H189.82q-14.9,0-22.78-7.12t-7.88-20.57V358.39c0-8.66,2.48-17.77,7.45-22.54s11.95-7.15,21-7.15h39c-17.23,12.65-21.64,26-21.64,26H193.79q-6.94,0-6.95,4.5a4,4,0,0,0,1.66,3.68q1.65,1,5.89,1Z" transform="translate(-82.23 -328.7)" fill="#414042"/><path d="M152.76,416.52c-5.14-7.41-5.16-20.48-5.16-20.48V363.75q0-16.89-8.12-25.89t-23.41-9H82.23V421.5h26.89V363.75q0-8.28,5.7-8.28,5.88,0,5.89,8.28V421.5h36.48A22.87,22.87,0,0,1,152.76,416.52Z" transform="translate(-82.23 -328.7)" fill="#414042"/></svg>