<svg xmlns="http://www.w3.org/2000/svg" width="288.95" height="108.98" viewBox="0 0 288.95 108.98"><title>davinci-logo</title><polygon points="68.5 91.42 68.5 89.95 76.71 89.95 76.71 91.42 73.37 91.42 73.37 104.92 71.84 104.92 71.84 91.42 68.5 91.42" fill="#231f20"/><path d="M232.29,399.46h1.43v6.26a6,6,0,0,1,1.9-1.7,4.64,4.64,0,0,1,2.25-.57,3.94,3.94,0,0,1,2.21.63,3.81,3.81,0,0,1,1.42,1.7,9.08,9.08,0,0,1,.46,3.33v5.7h-1.43v-5.28a13.8,13.8,0,0,0-.15-2.56,2.94,2.94,0,0,0-1-1.65,2.87,2.87,0,0,0-1.83-.56,3.55,3.55,0,0,0-2.32.86,4,4,0,0,0-1.35,2.12,15.06,15.06,0,0,0-.2,3v4.06h-1.43Z" transform="translate(-153.67 -309.89)" fill="#231f20"/><path d="M254.33,411.14l1.21.63a6.57,6.57,0,0,1-1.37,1.87,5.28,5.28,0,0,1-1.74,1.08,6.06,6.06,0,0,1-2.19.37,5.3,5.3,0,0,1-4.24-1.77,6,6,0,0,1-1.53-4,5.93,5.93,0,0,1,1.29-3.75,5.3,5.3,0,0,1,4.39-2.1,5.48,5.48,0,0,1,4.53,2.15,6,6,0,0,1,1.22,3.78h-10a4.48,4.48,0,0,0,1.23,3.17,3.93,3.93,0,0,0,2.94,1.23,4.86,4.86,0,0,0,1.65-.29,4.49,4.49,0,0,0,1.36-.78,6.79,6.79,0,0,0,1.21-1.57m0-3a4.66,4.66,0,0,0-.83-1.82,4,4,0,0,0-1.44-1.1,4.36,4.36,0,0,0-1.88-.41,4.11,4.11,0,0,0-2.81,1,4.72,4.72,0,0,0-1.29,2.29Z" transform="translate(-153.67 -309.89)" fill="#231f20"/><polygon points="110.88 89.95 112.38 89.95 112.38 96.23 120 96.23 120 89.95 121.5 89.95 121.5 104.92 120 104.92 120 97.7 112.38 97.7 112.38 104.92 110.88 104.92 110.88 89.95" fill="#231f20"/><path d="M289.61,403.74v11.07H288.2v-1.9a6.3,6.3,0,0,1-2,1.64,5.65,5.65,0,0,1-6.45-1.16,5.73,5.73,0,0,1-1.67-4.15,5.61,5.61,0,0,1,1.68-4.09,5.49,5.49,0,0,1,4-1.7,5.17,5.17,0,0,1,2.47.58,5.6,5.6,0,0,1,1.94,1.74v-2Zm-5.7,1.09a4.28,4.28,0,0,0-3.8,2.22,4.51,4.51,0,0,0,0,4.48,4.43,4.43,0,0,0,1.61,1.66,4.26,4.26,0,0,0,2.17.59,4.5,4.5,0,0,0,2.22-.59,4.1,4.1,0,0,0,1.61-1.59,4.52,4.52,0,0,0,.56-2.27,4.41,4.41,0,0,0-1.26-3.21,4.17,4.17,0,0,0-3.12-1.29" transform="translate(-153.67 -309.89)" fill="#231f20"/><path d="M293.31,399.18a1.18,1.18,0,0,1,0,2.35,1.1,1.1,0,0,1-.82-.35,1.16,1.16,0,0,1,0-1.66,1.09,1.09,0,0,1,.82-.34m-.71,4.55H294v11.08H292.6Z" transform="translate(-153.67 -309.89)" fill="#231f20"/><path d="M296.45,403.74h1.45v1.61a5.41,5.41,0,0,1,1.38-1.43,2.73,2.73,0,0,1,1.5-.47,2.47,2.47,0,0,1,1.26.38l-.74,1.2a2,2,0,0,0-.75-.2,2.09,2.09,0,0,0-1.38.59,3.79,3.79,0,0,0-1,1.82,17.05,17.05,0,0,0-.27,3.83v3.74h-1.45Z" transform="translate(-153.67 -309.89)" fill="#231f20"/><path d="M323.21,402.62l-1.18.9a6.49,6.49,0,0,0-2.35-1.93,6.81,6.81,0,0,0-3-.65,6.7,6.7,0,0,0-3.32.85,6.26,6.26,0,0,0-2.36,2.32,6.38,6.38,0,0,0-.84,3.26,6.1,6.1,0,0,0,1.88,4.57,6.5,6.5,0,0,0,4.73,1.83,6.67,6.67,0,0,0,5.27-2.46l1.18.89a7.49,7.49,0,0,1-2.8,2.21,8.72,8.72,0,0,1-3.74.78,7.78,7.78,0,0,1-6.2-2.62,7.93,7.93,0,0,1-1.9-5.33,7.38,7.38,0,0,1,2.31-5.53,7.93,7.93,0,0,1,5.77-2.25,8.54,8.54,0,0,1,3.79.83,7.29,7.29,0,0,1,2.77,2.33" transform="translate(-153.67 -309.89)" fill="#ec1872"/><path d="M331.22,403.45a5.49,5.49,0,0,1,4.24,1.85,6,6,0,0,1-.08,8.06,5.85,5.85,0,0,1-8.33,0,5.95,5.95,0,0,1-.08-8.05,5.48,5.48,0,0,1,4.25-1.86m0,1.39a4.1,4.1,0,0,0-3,1.32,4.38,4.38,0,0,0-1.28,3.17,4.49,4.49,0,0,0,.59,2.24,4.19,4.19,0,0,0,1.57,1.61,4.5,4.5,0,0,0,4.35,0,4.12,4.12,0,0,0,1.57-1.61,4.49,4.49,0,0,0,.59-2.24,4.35,4.35,0,0,0-1.29-3.17,4.1,4.1,0,0,0-3.05-1.32" transform="translate(-153.67 -309.89)" fill="#ec1872"/><rect x="185.75" y="89.57" width="1.42" height="15.35" fill="#ec1872"/><path d="M349.05,403.45a5.5,5.5,0,0,1,4.24,1.85,5.94,5.94,0,0,1-.09,8.06,5.84,5.84,0,0,1-8.32,0,5.93,5.93,0,0,1-.09-8.05,5.5,5.5,0,0,1,4.26-1.86m0,1.39a4.1,4.1,0,0,0-3.05,1.32,4.34,4.34,0,0,0-1.28,3.17,4.59,4.59,0,0,0,.58,2.24,4.26,4.26,0,0,0,1.57,1.61,4.52,4.52,0,0,0,4.36,0,4.19,4.19,0,0,0,1.57-1.61,4.48,4.48,0,0,0,.58-2.24,4.34,4.34,0,0,0-1.28-3.17,4.1,4.1,0,0,0-3-1.32" transform="translate(-153.67 -309.89)" fill="#ec1872"/><path d="M356.91,403.74h1.46v1.61a5.24,5.24,0,0,1,1.37-1.43,2.79,2.79,0,0,1,1.51-.47,2.52,2.52,0,0,1,1.26.38l-.74,1.2a2,2,0,0,0-.75-.2,2.07,2.07,0,0,0-1.38.59,3.64,3.64,0,0,0-1,1.82,17.05,17.05,0,0,0-.27,3.83v3.74h-1.46Z" transform="translate(-153.67 -309.89)" fill="#ec1872"/><polygon points="216.07 89.95 224.66 89.95 224.66 91.42 217.57 91.42 217.57 96.11 224.59 96.11 224.59 97.57 217.57 97.57 217.57 103.46 224.59 103.46 224.59 104.92 216.07 104.92 216.07 89.95" fill="#231f20"/><polygon points="225.75 93.85 227.46 93.85 230.4 97.9 233.32 93.85 235.03 93.85 231.26 99.08 235.5 104.92 233.77 104.92 230.4 100.27 227.05 104.92 225.35 104.92 229.54 99.09 225.75 93.85" fill="#231f20"/><path d="M390.7,403.74h1.43v2a5.78,5.78,0,0,1,1.94-1.74,5.09,5.09,0,0,1,2.45-.58,5.49,5.49,0,0,1,4,1.7,5.64,5.64,0,0,1,1.67,4.09,5.72,5.72,0,0,1-1.66,4.15,5.63,5.63,0,0,1-6.44,1.16,6.16,6.16,0,0,1-2-1.64v5.95H390.7Zm5.7,1.09a4.14,4.14,0,0,0-3.11,1.29,4.38,4.38,0,0,0-1.27,3.21,4.53,4.53,0,0,0,.57,2.27,4,4,0,0,0,1.61,1.59,4.5,4.5,0,0,0,2.22.59,4.23,4.23,0,0,0,2.16-.59,4.43,4.43,0,0,0,1.61-1.66,4.51,4.51,0,0,0,0-4.48,4.37,4.37,0,0,0-1.61-1.64,4.27,4.27,0,0,0-2.19-.58" transform="translate(-153.67 -309.89)" fill="#231f20"/><path d="M414.23,411.14l1.2.63a6.57,6.57,0,0,1-1.37,1.87,5.28,5.28,0,0,1-1.74,1.08,6.06,6.06,0,0,1-2.19.37,5.3,5.3,0,0,1-4.24-1.77,6,6,0,0,1-1.53-4,5.93,5.93,0,0,1,1.29-3.75,5.3,5.3,0,0,1,4.39-2.1,5.48,5.48,0,0,1,4.53,2.15,6,6,0,0,1,1.22,3.78h-10a4.52,4.52,0,0,0,1.23,3.17,4,4,0,0,0,2.95,1.23,4.84,4.84,0,0,0,1.64-.29,4.49,4.49,0,0,0,1.36-.78,7.07,7.07,0,0,0,1.22-1.57m0-3a4.8,4.8,0,0,0-.83-1.82,4.07,4.07,0,0,0-1.45-1.1,4.4,4.4,0,0,0-1.88-.41,4.12,4.12,0,0,0-2.81,1,4.72,4.72,0,0,0-1.29,2.29Z" transform="translate(-153.67 -309.89)" fill="#231f20"/><path d="M417.91,403.74h1.46v1.61a5.24,5.24,0,0,1,1.37-1.43,2.74,2.74,0,0,1,1.51-.47,2.52,2.52,0,0,1,1.26.38l-.75,1.2a2,2,0,0,0-.75-.2,2.07,2.07,0,0,0-1.37.59,3.72,3.72,0,0,0-1,1.82,17.25,17.25,0,0,0-.26,3.83v3.74h-1.46Z" transform="translate(-153.67 -309.89)" fill="#231f20"/><polygon points="272.3 89.74 273.72 89.74 273.72 93.85 275.98 93.85 275.98 95.08 273.72 95.08 273.72 104.92 272.3 104.92 272.3 95.08 270.35 95.08 270.35 93.85 272.3 93.85 272.3 89.74" fill="#231f20"/><path d="M437.35,405l-.92.94a3.27,3.27,0,0,0-2.23-1.11,1.72,1.72,0,0,0-1.19.46,1.43,1.43,0,0,0-.49,1.07,1.56,1.56,0,0,0,.41,1,5.77,5.77,0,0,0,1.71,1.17,6.37,6.37,0,0,1,2.16,1.59,2.91,2.91,0,0,1,.56,1.74,3.12,3.12,0,0,1-1,2.31,3.25,3.25,0,0,1-2.39,1,4.16,4.16,0,0,1-1.83-.42,4.09,4.09,0,0,1-1.45-1.15l.9-1a3.12,3.12,0,0,0,2.32,1.23,2.07,2.07,0,0,0,1.46-.55,1.68,1.68,0,0,0,.6-1.29,1.63,1.63,0,0,0-.4-1.09,6.23,6.23,0,0,0-1.79-1.18,5.88,5.88,0,0,1-2.05-1.53,2.86,2.86,0,0,1-.54-1.72,2.76,2.76,0,0,1,.87-2.09,3,3,0,0,1,2.17-.84,4.5,4.5,0,0,1,3.08,1.5" transform="translate(-153.67 -309.89)" fill="#231f20"/><path d="M441.36,412.57a1.19,1.19,0,0,1,.89.37,1.28,1.28,0,0,1,0,1.78,1.26,1.26,0,0,1-1.77-1.78,1.18,1.18,0,0,1,.88-.37m.73-1.51h-1.48v-11.6h1.48Z" transform="translate(-153.67 -309.89)" fill="#231f20"/><path d="M153.67,385.65l1.27-.76c.89,1.64,1.93,2.47,3.1,2.47a3,3,0,0,0,1.42-.35,2.53,2.53,0,0,0,1-.94,2.4,2.4,0,0,0,.35-1.26,2.52,2.52,0,0,0-.51-1.47,11.94,11.94,0,0,0-2.56-2.4,13.11,13.11,0,0,1-2.33-2.05,3.75,3.75,0,0,1-.8-2.29,3.48,3.48,0,0,1,.47-1.78,3.3,3.3,0,0,1,1.32-1.27,3.76,3.76,0,0,1,1.85-.46,3.9,3.9,0,0,1,2,.52,6.76,6.76,0,0,1,2,1.93l-1.23.93a5.77,5.77,0,0,0-1.44-1.48,2.43,2.43,0,0,0-1.29-.35,2.1,2.1,0,0,0-1.49.54,1.82,1.82,0,0,0-.57,1.36,2.37,2.37,0,0,0,.2.94,3.7,3.7,0,0,0,.74,1c.2.19.85.69,1.94,1.5a11.37,11.37,0,0,1,2.67,2.55,4.15,4.15,0,0,1,.72,2.25,3.79,3.79,0,0,1-1.24,2.83,4.14,4.14,0,0,1-3,1.2,4.44,4.44,0,0,1-2.47-.72,6.66,6.66,0,0,1-2-2.44" transform="translate(-153.67 -309.89)" fill="#ec1872"/><path d="M176.4,377.36v11.08H175v-1.91a6,6,0,0,1-2,1.64,5.62,5.62,0,0,1-6.45-1.15,5.73,5.73,0,0,1-1.67-4.15,5.59,5.59,0,0,1,1.68-4.09,5.46,5.46,0,0,1,4-1.7,5.2,5.2,0,0,1,2.47.58A5.58,5.58,0,0,1,175,379.4v-2Zm-5.7,1.09a4.34,4.34,0,0,0-2.2.59,4.28,4.28,0,0,0-1.6,1.64,4.54,4.54,0,0,0-.59,2.23,4.48,4.48,0,0,0,.6,2.24,4.36,4.36,0,0,0,1.61,1.66,4.18,4.18,0,0,0,2.17.6,4.5,4.5,0,0,0,2.22-.59,4.13,4.13,0,0,0,1.61-1.6,4.59,4.59,0,0,0,.56-2.26,4.42,4.42,0,0,0-1.26-3.22,4.22,4.22,0,0,0-3.12-1.29" transform="translate(-153.67 -309.89)" fill="#ec1872"/><rect x="25.72" y="63.2" width="1.43" height="15.35" fill="#ec1872"/><path d="M189,377.08a5.47,5.47,0,0,1,4.24,1.85,5.94,5.94,0,0,1-.09,8.06,5.87,5.87,0,0,1-8.32,0,5.95,5.95,0,0,1-.08-8.05,5.47,5.47,0,0,1,4.25-1.86m0,1.39a4.1,4.1,0,0,0-3,1.32,4.38,4.38,0,0,0-1.28,3.17,4.48,4.48,0,0,0,.58,2.24,4.22,4.22,0,0,0,1.58,1.61,4.5,4.5,0,0,0,4.35,0,4.19,4.19,0,0,0,1.57-1.61,4.48,4.48,0,0,0,.58-2.24,4.34,4.34,0,0,0-1.28-3.17,4.1,4.1,0,0,0-3.05-1.32" transform="translate(-153.67 -309.89)" fill="#ec1872"/><path d="M197.42,377.36h1.43v2a6,6,0,0,1,1.89-1.71,4.76,4.76,0,0,1,2.26-.56,3.94,3.94,0,0,1,2.21.63,3.81,3.81,0,0,1,1.42,1.7,9.12,9.12,0,0,1,.45,3.33v5.7h-1.42v-5.28a12.69,12.69,0,0,0-.16-2.56,2.77,2.77,0,0,0-.95-1.65,2.87,2.87,0,0,0-1.83-.56,3.53,3.53,0,0,0-2.32.86,4,4,0,0,0-1.35,2.11,15.32,15.32,0,0,0-.2,3v4.06h-1.43Z" transform="translate(-153.67 -309.89)" fill="#ec1872"/><path d="M182.75,404.42c-9,3.1-17.54,1.55-25.38-3.31-5.18-3.22-4.78-8,.7-10.91,9-4.82,26.91-2.3,32-1.85,10.92.62,17.71-.29,22.13-1.28,1.72-.38,3-.55,3.55-2.5,3.67-13.49,6.61-27.1,4.61-41.16-1.27-9-4.13-11.47-13.12-12.92-2.88-.46-5.79-.65-8.68-1-1.81-.22-3.9-.6-3.91-2.78,0-1.92,2.13-2.35,3.61-2.65,5.12-1.07,10.32-.82,15.5-.63,3.41.12,6.75.28,9.82-1.75,1.81-1.19,3.53-1.22,4.88,1,1.56,2.61,4.57,2.91,7.12,3.77,8.57,2.9,17.32,5.29,25.32,9.65,7.62,4.16,14,9.36,15.84,18.51,1.53,7.46-1,13.42-6.46,18.27-9.09,8.12-20.41,11.58-31.83,14.75a47.66,47.66,0,0,1-8.52,1.85c-6.45.56-12.31,1.66-14.87,8.84-.52,1.44-2.05,3.56-4.08,2.31-2.33-1.43-.07-3.21.54-4.6,1.38-3.08,1.43-4-2.66-3.66-15.84,1.17-26.14-1.71-37.94-1.43-1.19.15-7.73.52-7.62,5.62.08,4.09,4.67,4.88,8.08,5.73,3.73.92,7.58,1.41,11.37,2.1m38.6-18.55c4.41,0,8.15-1.12,11.87-2,10.69-2.61,21.36-5.45,30.34-12.26,6.75-5.12,8.27-11.5,3.82-18.24-6.53-9.86-16.31-14.47-27.89-15.16-4.48-.27-9.47,4.1-9.58,7.94a114.46,114.46,0,0,1-8.56,39.75" transform="translate(-153.67 -309.89)" fill="#231f20" fill-rule="evenodd"/><path d="M329.54,372.78c13.23-14.66,26.27-29.49,38.17-45.27a41.62,41.62,0,0,0,4.6-7.39c2.35-5,.1-8.32-5.43-8.15-2.21.07-4.42.53-6.88.85,3.75-3.53,14.58-3.94,17.94-.86,1.92,1.76,2,3.92,1.23,6.25-1.41,4.41-4.1,8-7,11.55-10.75,13.17-23,25.07-33.21,38.69-2.05,2.71-4,5.5-6,8.23-1.4,1.88-2.8,4.23-2.1,6.25,1.89,5.4-1.89,8.44-4.28,12.05-1.53,2.31-4.11,1.5-5.33-1.75-1.6-4.22-1.18-8.58-.46-12.93,2.07-12.77,6.56-25,8.47-37.8.52-3.47,1-7.1-2.66-9.06s-6.6.15-9.39,2.14c-4.17,3-6.84,7.26-9.62,11.45-.91,1.37-1.21,3.43-3.6,3.84-.08-.68-.4-1.38-.19-1.83,4.12-8.71,9-17,17.2-22.41,7.64-5.05,15.7-.45,15.69,8.83,0,7.5-2.33,14.65-4.17,21.85-1.24,4.84-2.65,9.65-4,14.47-.54,1.2-.25,1.56,1,1" transform="translate(-153.67 -309.89)" fill="#231f20" fill-rule="evenodd"/><path d="M394.29,385.44c.21,2.71.12,4.29-2,4.8a3,3,0,0,1-3.77-2.24c-1.17-3.34-2-6.79-3-10.19-.38-1.37-.46-3.22-2.06-3.49-2-.34-2.65,1.66-3.29,3-1.44,3-2.53,6.25-3.92,9.33a2.49,2.49,0,0,1-2.64,1.74,2.08,2.08,0,0,1-1.55-2.63c1.25-5.57.09-11.3,1.25-16.86.33-1.53.43-3.61,2.48-3.67,2.21-.06,1.37,2,1.66,3.29.76,3.29,2.34,1.75,3.72.58,2.27-1.9,4.1-5.31,7.69-3.63,3.27,1.54,2.92,5.29,3.05,8.18.2,4.43,1.65,8.52,2.32,11.77" transform="translate(-153.67 -309.89)" fill="#231f20" fill-rule="evenodd"/><path d="M276.36,383.74c0-4.77,2.74-8.13,5.82-11.33,1.79-1.86,4-3,4.38-6.39.35-2.87,3.56-1.95,5.33-.26,1.93,1.83,2.57,4.46,3.14,7,1.11,4.88,3,9.19,7.56,11.89,1,.6,2.52,1.32,2,2.92-.5,1.45-2.07,1.42-3.32,1.58a5.93,5.93,0,0,1-6.23-2.87c-1.51-2.55-2.89-2.2-4.81-.42a14.73,14.73,0,0,1-6.69,3.8c-4.38,1-7.24-1.4-7.15-5.89m4.84-2.64c-.08,3.65,1.41,4.32,4.15,2.68a10.63,10.63,0,0,0,4.58-4.78,6,6,0,0,0-2.38-7.6c-2-1.11-3.15,2-4.18,3.73a14.22,14.22,0,0,0-2.17,6" transform="translate(-153.67 -309.89)" fill="#231f20" fill-rule="evenodd"/><path d="M410.85,389.65c-3.64-.47-7.54-.82-9.6-4.53-2.18-3.93-.51-7.59,1.72-10.89,3.54-5.22,8.74-7.46,14.92-7.66,1.75-.06,3.5.35,3.52,2.42,0,1.91-1.85,2.11-3.24,2.15a14.43,14.43,0,0,0-8.95,3.26c-3,2.41-3.46,7.28-.88,9.44,3.18,2.65,5.61.94,7.78-1.71,1.2-1.47,2.3-3.4,4.66-2.82,1.44.35,1.78,1.66,1.9,3.05.25,2.65-1,4.32-3.26,5.39a24.49,24.49,0,0,1-8.57,1.9" transform="translate(-153.67 -309.89)" fill="#231f20" fill-rule="evenodd"/><path d="M428.32,377.54c.46-3.62,1.13-7.91,4.86-10.88.69-.56,1.56-1.37,2.58-.78s.74,1.66.49,2.6-.62,2.15-1,3.21c-2.13,6.45-1.47,8.39,4.33,11.9,1.29.78,2.69,1.29,2.19,3.17s-2,2.2-3.79,2.12c-5.39-.23-9.75-4.95-9.69-11.34" transform="translate(-153.67 -309.89)" fill="#231f20" fill-rule="evenodd"/><path d="M353.41,377.62c.38-3.67,1.13-8,4.87-10.95.7-.56,1.57-1.42,2.59-.75s.68,1.72.43,2.65c-.32,1.25-.7,2.48-1.1,3.71-1.88,5.86-1.12,8,4.28,11.18,1.45.86,3.08,1.45,2.33,3.55s-2.68,2-4.48,1.78c-5.16-.65-8.94-5.08-8.92-11.17" transform="translate(-153.67 -309.89)" fill="#231f20" fill-rule="evenodd"/><path d="M360.8,354.78c-1.77,0-4,.17-3.8-2.4.31-3.68,3.17-4.91,6.38-5.43,2-.32,2.94.52,2.89,2.66-.07,3.67-2,5.22-5.47,5.17" transform="translate(-153.67 -309.89)" fill="#231f20" fill-rule="evenodd"/><path d="M435.69,354.79c-1.77,0-4,.17-3.76-2.44.3-3.7,3.18-4.85,6.36-5.39,2.07-.35,2.84.59,2.84,2.68,0,3.75-2,5.16-5.44,5.15" transform="translate(-153.67 -309.89)" fill="#231f20" fill-rule="evenodd"/></svg>