<svg xmlns="http://www.w3.org/2000/svg" width="125" viewBox="0 0 768 768"><title>zeiss-logo</title><path d="M.7,0H768V768c-102.9-48-233.1-82.3-384-82.3S102.9,720,0,768V1.4C0,.7,0,0,.7,0ZM180.3,215.3c-1.4,6.2,0,14.4-.7,21.9,20.6-3.4,17.1,16.5,17.1,35v57.6c0,18.5,2.7,37-17.1,33.6v21.3H322.2V327.8H300.9c-2.1,25.4-17.8,39.8-48,35.7.7-17.1-.7-35.7.7-51.4,13.7-2.1,15.1,8.9,16.5,19.2,5.5,1.4,13.7,0,19.9.7V270.3H268.7c1.4,13-2.1,21.3-15.8,19.9V238.1c32.2-4.1,44.6,11.7,48.7,35.7,5.5,1.4,13.7,0,19.9.7V216.9C275.7,215.3,227.7,215.3,180.3,215.3ZM32.9,217.4v55.5c6.2,0,14.4.7,19.9-.7,4.8-25.4,20.6-38.4,50.7-35.7C85,292.8,26.7,312,26.7,384H165.2V327.1c-6.9,0-15.1-.7-20.6.7-3.4,25.4-19.9,39.8-51.4,35,19.2-54.9,72.7-75.4,75.4-146.7H33.5C32.2,216,32.9,216.7,32.9,217.4Zm304.5,19.9c20.6-3.4,17.1,15.1,17.1,33.6v59c0,19.2,2.7,37-17.1,33.6v21.3h91.9V363.5c-20.6,3.4-17.1-15.1-17.1-33.6v-59c0-19.2-2.7-37.7,17.1-33.6V216H338.1C336.7,221.5,338.1,230.4,337.4,237.3ZM443,238.6c2.1,16.5,10.3,32.2,19.2,44.6,17.1,25.4,45.3,48,54.2,80.2-32.9,4.1-48-9.6-51.4-35.7-6.2-1.4-14.4,0-21.3-.7v56.9h131c6.9-8.9,6.2-24,2.7-35.7-5.5-16.5-15.8-32.2-26.7-45.9-17.1-21.3-37.7-39.1-43.9-66.5,30.9-2.1,46.6,11,50.7,35.7,5.5,1.4,13.7,0,19.9.7V215.3H447.8C443,220.1,442.3,229.7,443,238.6Zm148.1,0c1.4,13,7.5,24.7,14.4,35.7,18.5,30.2,48,54.9,59,89.1-32.9,3.4-48.7-9.6-51.4-35.7-6.2-1.4-14.4,0-21.3-.7v56.9H722.1c4.8-5.5,6.2-13,5.5-23.3-2.7-25.4-19.9-47.3-35-64.5-15.8-18.5-32.2-35.7-38.4-59.7,30.9-2.1,46.6,11.7,51.4,35.7,5.5,1.4,13,0,19.9.7V215.9H596.6C591.8,220.1,590.4,229.7,591.1,238.6Z" fill="#141e8c"/></svg>