<svg xmlns="http://www.w3.org/2000/svg" width="350" viewBox="0 0 899.28 158.19"><title>top-logo</title><path d="M319.51,105.57h-.19L301.82,55H282.24l-17.5,50.57h-.19L249.91,55H229.28l22.34,68.83h24.25l16.06-45.45h.19l16.07,45.45h24.24L354.78,55H334.15Zm260.54,18.26h21.1V72.11h29.66V57.48l36,42.39v24h21.1v-24L726.05,55H700.58l-23.2,28.13L654.19,55H550.38V72.11h29.67ZM143.68,72.11h29.66v51.72h21.1V72.11H224.1V55H143.68Zm399.71,51.72V55h-21.1v50h-.2L482.45,55h-32.7v68.83h21.1v-50H471l39.64,50ZM1043,71V55H966.43v68.83H1043V107.28H987.54v-11H1043V82H987.54V71ZM933.11,105h-.19L893.28,55H860.57v68.83h21.11v-50h.19l39.64,50h32.71V55H933.11ZM845.54,52.43l-6.37,4.66C834.22,55,828,54.23,820.44,54.23H786.59c-19,0-30.32,4.76-30.32,24.91V99.68c0,7,1.33,12.17,4,15.78l-4.94,3.61,6.18,7.32,6.37-4.75c4.84,2.19,11.22,2.94,18.72,2.94h33.85c19,0,30.33-4.75,30.33-24.9V79.14c0-6.94-1.34-12.07-3.9-15.78l4.85-3.61Zm-66.45,49.15c-.86-2.09-1.15-4.85-1.15-8.46V85.7c0-8.55,2.09-13.78,13.22-13.78h24.71a25.82,25.82,0,0,1,3,.19Zm50-8.46c0,10-2.09,13.78-12.08,13.78H790a12.85,12.85,0,0,1-2-.09l39.74-29.38a20,20,0,0,1,1.33,8.27Zm-22.4,72.16c-24,.09-26.69-.1-26.69-6.09,0-3.71,3.42-5.32,8.46-5.32h24.78c10.27,0,10.88,2.09,10.88,7.13h22.36v-2.19c0-12.07-2.42-20.34-28.21-20.34H787.05c-28.21,0-29.42,9.6-29.42,22.05,0,16.92,3.83,20.73,37.47,20.73,28.82,0,31.43.38,31.43,6.37,0,5.32-4.83,5.8-9.57,5.8h-27.4c-6.44,0-9.56-.58-9.66-7.89H757.53v4.75c0,14.92,8.16,18.54,28.51,18.54h27.1c29.71,0,36.36-3,36.36-21.58C849.5,167.18,841.44,165.18,806.69,165.28Zm-139.86-8.94h30v51.72h21.11V156.34h29.66V139.23H666.83ZM418.08,139.23H360.57v68.83h21.1V190.75H423.6C438.52,190.75,443,179,443,168.7v-5.9C443,149.3,438.14,139.23,418.08,139.23Zm3.23,27.09c0,4.09-1.9,7.32-6.84,7.32h-32.8v-17.3h31c6.37,0,8.65,2.66,8.65,7.32Zm15.79-59H381.67v-11H437.1V82H381.67V71H437.1V55H360.57v68.83H437.1Zm68.81,31.95H484.8v68.83h68.54V190.38H505.91Zm145.32-2.57-6.37,4.66c-4.94-2.09-11.22-2.85-18.72-2.85H592.29c-19,0-30.33,4.75-30.33,24.91v20.53c0,7,1.33,12.17,4,15.78l-5,3.61,6.18,7.32,6.37-4.75c4.85,2.19,11.22,2.95,18.73,2.95h33.85c19,0,30.32-4.76,30.32-24.91V163.38c0-6.95-1.33-12.08-3.9-15.79l4.85-3.61Zm-66.45,49.15c-.86-2.09-1.14-4.85-1.14-8.46v-7.42c0-8.55,2.09-13.78,13.22-13.78h24.71a28.51,28.51,0,0,1,2.95.19Zm50-8.46c0,10-2.1,13.78-12.08,13.78h-27a12.71,12.71,0,0,1-2-.09l39.74-29.38a20,20,0,0,1,1.33,8.27Zm-185,30.71h21.1V139.23h-21.1Z" transform="translate(-143.68 -52.43)" fill="#262626"/></svg>